<svg width="339" height="383" viewBox="0 0 339 383" fill="none" xmlns="http://www.w3.org/2000/svg">
<path d="M95.3336 47.5027L59.6555 2.25244H279.257L243.579 47.5028C238.774 53.5967 231.442 57.1529 223.681 57.1529H115.231C107.471 57.1529 100.139 53.5967 95.3336 47.5027Z" fill="#BBC7E9"/>
<path d="M115.548 39.699V19.0057H125.245C127.728 19.0057 129.62 19.4984 130.92 20.4838C132.221 21.4495 132.871 22.7502 132.871 24.386C132.871 25.4896 132.615 26.4356 132.103 27.2239C131.59 27.9925 130.901 28.5936 130.034 29.0272C129.186 29.441 128.26 29.648 127.255 29.648L127.787 28.5838C128.95 28.5838 129.994 28.8005 130.92 29.2341C131.847 29.648 132.576 30.2589 133.108 31.0669C133.66 31.875 133.936 32.8801 133.936 34.0822C133.936 35.8559 133.256 37.2355 131.896 38.2209C130.536 39.2063 128.516 39.699 125.836 39.699H115.548ZM119.391 36.6837H125.599C127.038 36.6837 128.142 36.4472 128.91 35.9742C129.679 35.5012 130.063 34.7425 130.063 33.6979C130.063 32.6731 129.679 31.9242 128.91 31.4512C128.142 30.9585 127.038 30.7122 125.599 30.7122H119.096V27.7265H124.831C126.171 27.7265 127.196 27.49 127.905 27.017C128.634 26.544 128.999 25.8345 128.999 24.8885C128.999 23.9228 128.634 23.2035 127.905 22.7305C127.196 22.2575 126.171 22.021 124.831 22.021H119.391V36.6837ZM144.363 39.9059C143.023 39.9059 141.841 39.6596 140.816 39.1669C139.791 38.6545 138.993 37.8859 138.421 36.861C137.85 35.8165 137.564 34.506 137.564 32.9293V23.913H141.259V32.4268C141.259 33.8457 141.575 34.91 142.205 35.6195C142.856 36.3092 143.772 36.6541 144.955 36.6541C145.822 36.6541 146.571 36.4767 147.201 36.122C147.852 35.7673 148.354 35.2351 148.709 34.5257C149.083 33.8162 149.271 32.9392 149.271 31.8947V23.913H152.966V39.699H149.448V35.4421L150.069 36.7428C149.537 37.7676 148.758 38.5559 147.733 39.1077C146.709 39.6399 145.585 39.9059 144.363 39.9059ZM164.485 39.9059C162.967 39.9059 161.598 39.5709 160.376 38.9008C159.174 38.211 158.228 37.2651 157.538 36.0629C156.848 34.8607 156.503 33.4417 156.503 31.806C156.503 30.1702 156.848 28.7513 157.538 27.5491C158.228 26.3469 159.174 25.4108 160.376 24.7407C161.598 24.0707 162.967 23.7356 164.485 23.7356C165.805 23.7356 166.988 24.0312 168.032 24.6225C169.077 25.194 169.905 26.071 170.516 27.2535C171.127 28.4359 171.432 29.9534 171.432 31.806C171.432 33.6388 171.136 35.1563 170.545 36.3585C169.954 37.541 169.136 38.4278 168.092 39.0191C167.047 39.6103 165.845 39.9059 164.485 39.9059ZM164.928 36.7428C165.815 36.7428 166.604 36.5457 167.293 36.1516C168.003 35.7574 168.565 35.1859 168.978 34.437C169.412 33.6881 169.629 32.8111 169.629 31.806C169.629 30.7812 169.412 29.9042 168.978 29.175C168.565 28.4261 168.003 27.8546 167.293 27.4604C166.604 27.0662 165.815 26.8692 164.928 26.8692C164.042 26.8692 163.243 27.0662 162.534 27.4604C161.844 27.8546 161.282 28.4261 160.849 29.175C160.435 29.9042 160.228 30.7812 160.228 31.806C160.228 32.8111 160.435 33.6881 160.849 34.437C161.282 35.1859 161.844 35.7574 162.534 36.1516C163.243 36.5457 164.042 36.7428 164.928 36.7428ZM169.717 39.699V35.9742L169.865 31.7764L169.57 27.5787V17.7641H173.235V39.699H169.717ZM185.253 45.6409C183.794 45.6409 182.366 45.4438 180.966 45.0497C179.587 44.6752 178.454 44.1234 177.567 43.3942L179.222 40.6154C179.912 41.1869 180.779 41.6402 181.824 41.9752C182.888 42.33 183.962 42.5073 185.046 42.5073C186.78 42.5073 188.051 42.1033 188.859 41.2953C189.667 40.507 190.071 39.3147 190.071 37.7183V34.91L190.367 31.333L190.249 27.756V23.913H193.767V37.3045C193.767 40.1621 193.037 42.261 191.579 43.6011C190.121 44.961 188.012 45.6409 185.253 45.6409ZM184.78 38.9895C183.282 38.9895 181.922 38.6742 180.7 38.0435C179.498 37.3932 178.542 36.4965 177.833 35.3534C177.143 34.2103 176.798 32.8702 176.798 31.333C176.798 29.8155 177.143 28.4852 177.833 27.3422C178.542 26.1991 179.498 25.3123 180.7 24.6816C181.922 24.0509 183.282 23.7356 184.78 23.7356C186.12 23.7356 187.322 24.0017 188.386 24.5338C189.451 25.0659 190.298 25.8936 190.929 27.017C191.579 28.1403 191.904 29.579 191.904 31.333C191.904 33.087 191.579 34.5355 190.929 35.6786C190.298 36.8019 189.451 37.6395 188.386 38.1913C187.322 38.7234 186.12 38.9895 184.78 38.9895ZM185.342 35.8559C186.268 35.8559 187.096 35.6687 187.825 35.2943C188.554 34.9001 189.116 34.368 189.51 33.6979C189.924 33.0082 190.131 32.2198 190.131 31.333C190.131 30.4461 189.924 29.6677 189.51 28.9976C189.116 28.3078 188.554 27.7856 187.825 27.4308C187.096 27.0564 186.268 26.8692 185.342 26.8692C184.415 26.8692 183.578 27.0564 182.829 27.4308C182.1 27.7856 181.528 28.3078 181.114 28.9976C180.72 29.6677 180.523 30.4461 180.523 31.333C180.523 32.2198 180.72 33.0082 181.114 33.6979C181.528 34.368 182.1 34.9001 182.829 35.2943C183.578 35.6687 184.415 35.8559 185.342 35.8559ZM206.045 39.9059C204.291 39.9059 202.753 39.561 201.433 38.8712C200.132 38.1618 199.117 37.1961 198.388 35.9742C197.679 34.7523 197.324 33.3629 197.324 31.806C197.324 30.2294 197.669 28.84 198.359 27.6378C199.068 26.4159 200.034 25.4601 201.256 24.7703C202.497 24.0805 203.906 23.7356 205.483 23.7356C207.02 23.7356 208.39 24.0707 209.592 24.7407C210.794 25.4108 211.74 26.3568 212.43 27.5787C213.12 28.8005 213.465 30.2392 213.465 31.8947C213.465 32.0523 213.455 32.2297 213.435 32.4268C213.435 32.6239 213.425 32.8111 213.406 32.9885H200.251V30.5348H211.454L210.006 31.3034C210.026 30.3969 209.838 29.5987 209.444 28.9089C209.05 28.2192 208.508 27.6772 207.818 27.283C207.148 26.8889 206.37 26.6918 205.483 26.6918C204.576 26.6918 203.778 26.8889 203.088 27.283C202.418 27.6772 201.886 28.229 201.492 28.9385C201.118 29.6283 200.93 30.4461 200.93 31.3921V31.9834C200.93 32.9293 201.147 33.7669 201.581 34.4961C202.014 35.2253 202.625 35.787 203.414 36.1811C204.202 36.5753 205.109 36.7724 206.133 36.7724C207.02 36.7724 207.818 36.6344 208.528 36.3585C209.237 36.0826 209.868 35.649 210.42 35.0578L212.4 37.334C211.691 38.1618 210.794 38.8023 209.71 39.2555C208.646 39.6891 207.424 39.9059 206.045 39.9059ZM222.956 39.9059C221.222 39.9059 219.882 39.4625 218.936 38.5756C217.99 37.6691 217.517 36.3388 217.517 34.5848V20.4247H221.212V34.4961C221.212 35.245 221.399 35.8264 221.774 36.2402C222.168 36.6541 222.71 36.861 223.4 36.861C224.227 36.861 224.917 36.6443 225.469 36.2107L226.503 38.8417C226.07 39.1964 225.538 39.4625 224.907 39.6399C224.277 39.8172 223.626 39.9059 222.956 39.9059ZM214.915 26.9874V24.0312H225.439V26.9874H214.915Z" fill="#141F3F"/>
<path d="M29.6217 205.304H40.264V207.817H29.6217V205.304ZM29.8878 214.498H41.949V217.069H26.9316V196.376H41.5351V198.948H29.8878V214.498ZM43.6991 217.069L50.4392 208.319L50.4097 209.768L43.9948 201.402H47.1579L52.0651 207.846H50.8531L55.7603 201.402H58.8643L52.3607 209.827L52.3903 208.319L59.1895 217.069H55.9673L50.794 210.211L51.9469 210.388L46.8623 217.069H43.6991ZM70.5932 217.247C69.2925 217.247 68.1001 216.951 67.0162 216.36C65.952 215.749 65.0947 214.852 64.4443 213.67C63.8137 212.487 63.4984 211.009 63.4984 209.236C63.4984 207.462 63.8038 205.984 64.4148 204.801C65.0454 203.619 65.8929 202.732 66.9571 202.141C68.041 201.55 69.2531 201.254 70.5932 201.254C72.1304 201.254 73.4902 201.589 74.6727 202.259C75.8552 202.929 76.7913 203.865 77.4811 205.067C78.1709 206.25 78.5157 207.639 78.5157 209.236C78.5157 210.832 78.1709 212.231 77.4811 213.433C76.7913 214.636 75.8552 215.572 74.6727 216.242C73.4902 216.912 72.1304 217.247 70.5932 217.247ZM62.2863 222.804V201.402H65.006V205.629L64.8286 209.265L65.1243 212.901V222.804H62.2863ZM70.3567 214.764C71.3618 214.764 72.2585 214.537 73.0468 214.084C73.8548 213.63 74.4855 212.99 74.9388 212.162C75.4118 211.315 75.6483 210.339 75.6483 209.236C75.6483 208.112 75.4118 207.147 74.9388 206.339C74.4855 205.511 73.8548 204.87 73.0468 204.417C72.2585 203.964 71.3618 203.737 70.3567 203.737C69.3713 203.737 68.4746 203.964 67.6666 204.417C66.8783 204.87 66.2476 205.511 65.7746 206.339C65.3213 207.147 65.0947 208.112 65.0947 209.236C65.0947 210.339 65.3213 211.315 65.7746 212.162C66.2476 212.99 66.8783 213.63 67.6666 214.084C68.4746 214.537 69.3713 214.764 70.3567 214.764ZM89.4134 217.247C87.7382 217.247 86.2602 216.902 84.9791 216.212C83.7178 215.522 82.7324 214.576 82.023 213.374C81.3332 212.172 80.9883 210.793 80.9883 209.236C80.9883 207.679 81.3233 206.299 81.9934 205.097C82.6832 203.895 83.6193 202.959 84.8018 202.289C86.004 201.599 87.3539 201.254 88.8517 201.254C90.3692 201.254 91.7094 201.589 92.8721 202.259C94.0349 202.929 94.9415 203.875 95.5918 205.097C96.2619 206.299 96.5969 207.708 96.5969 209.324C96.5969 209.443 96.5871 209.58 96.5674 209.738C96.5674 209.896 96.5575 210.044 96.5378 210.182H83.2054V208.142H95.0597L93.9068 208.851C93.9265 207.846 93.7196 206.949 93.286 206.161C92.8524 205.373 92.2513 204.762 91.4827 204.328C90.7338 203.875 89.8568 203.648 88.8517 203.648C87.8663 203.648 86.9893 203.875 86.2207 204.328C85.4521 204.762 84.851 205.383 84.4175 206.191C83.9839 206.979 83.7671 207.886 83.7671 208.91V209.383C83.7671 210.428 84.0036 211.364 84.4766 212.192C84.9693 213 85.6492 213.63 86.5164 214.084C87.3835 214.537 88.3787 214.764 89.5021 214.764C90.4284 214.764 91.2659 214.606 92.0148 214.291C92.7834 213.975 93.4535 213.502 94.025 212.872L95.5918 214.705C94.8823 215.532 93.9955 216.163 92.9313 216.596C91.8867 217.03 90.7141 217.247 89.4134 217.247ZM108.904 201.254C110.185 201.254 111.308 201.5 112.274 201.993C113.259 202.486 114.028 203.235 114.579 204.24C115.131 205.245 115.407 206.516 115.407 208.053V217.069H112.569V208.378C112.569 206.861 112.195 205.718 111.446 204.949C110.717 204.181 109.682 203.796 108.342 203.796C107.337 203.796 106.46 203.993 105.711 204.387C104.962 204.782 104.381 205.363 103.967 206.132C103.573 206.9 103.376 207.856 103.376 208.999V217.069H100.538V201.402H103.257V205.629L102.814 204.506C103.326 203.481 104.115 202.683 105.179 202.111C106.243 201.54 107.485 201.254 108.904 201.254ZM125.153 217.247C123.852 217.247 122.61 217.069 121.428 216.715C120.265 216.36 119.349 215.926 118.679 215.414L119.861 213.167C120.531 213.621 121.359 214.005 122.344 214.32C123.33 214.636 124.335 214.793 125.36 214.793C126.68 214.793 127.626 214.606 128.198 214.232C128.789 213.857 129.084 213.335 129.084 212.665C129.084 212.172 128.907 211.788 128.552 211.512C128.198 211.236 127.725 211.029 127.133 210.891C126.562 210.753 125.921 210.635 125.212 210.536C124.502 210.418 123.793 210.28 123.083 210.122C122.374 209.945 121.723 209.709 121.132 209.413C120.541 209.098 120.068 208.674 119.713 208.142C119.359 207.59 119.181 206.861 119.181 205.954C119.181 205.008 119.447 204.181 119.979 203.471C120.511 202.762 121.26 202.22 122.226 201.845C123.211 201.451 124.374 201.254 125.714 201.254C126.739 201.254 127.774 201.382 128.818 201.638C129.883 201.875 130.75 202.22 131.42 202.673L130.208 204.92C129.498 204.447 128.759 204.121 127.991 203.944C127.222 203.767 126.453 203.678 125.685 203.678C124.443 203.678 123.517 203.885 122.906 204.299C122.295 204.693 121.99 205.205 121.99 205.836C121.99 206.368 122.167 206.782 122.522 207.078C122.896 207.353 123.369 207.57 123.941 207.728C124.532 207.886 125.182 208.024 125.892 208.142C126.601 208.24 127.311 208.378 128.02 208.556C128.73 208.713 129.37 208.94 129.942 209.236C130.533 209.531 131.006 209.945 131.361 210.477C131.735 211.009 131.922 211.719 131.922 212.606C131.922 213.552 131.646 214.369 131.095 215.059C130.543 215.749 129.764 216.291 128.759 216.685C127.754 217.06 126.552 217.247 125.153 217.247ZM142.446 217.247C140.77 217.247 139.292 216.902 138.011 216.212C136.75 215.522 135.765 214.576 135.055 213.374C134.365 212.172 134.02 210.793 134.02 209.236C134.02 207.679 134.356 206.299 135.026 205.097C135.715 203.895 136.651 202.959 137.834 202.289C139.036 201.599 140.386 201.254 141.884 201.254C143.401 201.254 144.742 201.589 145.904 202.259C147.067 202.929 147.974 203.875 148.624 205.097C149.294 206.299 149.629 207.708 149.629 209.324C149.629 209.443 149.619 209.58 149.6 209.738C149.6 209.896 149.59 210.044 149.57 210.182H136.238V208.142H148.092L146.939 208.851C146.959 207.846 146.752 206.949 146.318 206.161C145.885 205.373 145.284 204.762 144.515 204.328C143.766 203.875 142.889 203.648 141.884 203.648C140.899 203.648 140.022 203.875 139.253 204.328C138.484 204.762 137.883 205.383 137.45 206.191C137.016 206.979 136.799 207.886 136.799 208.91V209.383C136.799 210.428 137.036 211.364 137.509 212.192C138.001 213 138.681 213.63 139.549 214.084C140.416 214.537 141.411 214.764 142.534 214.764C143.461 214.764 144.298 214.606 145.047 214.291C145.816 213.975 146.486 213.502 147.057 212.872L148.624 214.705C147.915 215.532 147.028 216.163 145.963 216.596C144.919 217.03 143.746 217.247 142.446 217.247ZM158.063 217.247C156.762 217.247 155.521 217.069 154.338 216.715C153.176 216.36 152.259 215.926 151.589 215.414L152.772 213.167C153.442 213.621 154.269 214.005 155.255 214.32C156.24 214.636 157.245 214.793 158.27 214.793C159.591 214.793 160.537 214.606 161.108 214.232C161.699 213.857 161.995 213.335 161.995 212.665C161.995 212.172 161.818 211.788 161.463 211.512C161.108 211.236 160.635 211.029 160.044 210.891C159.472 210.753 158.832 210.635 158.122 210.536C157.413 210.418 156.703 210.28 155.994 210.122C155.284 209.945 154.634 209.709 154.043 209.413C153.452 209.098 152.979 208.674 152.624 208.142C152.269 207.59 152.092 206.861 152.092 205.954C152.092 205.008 152.358 204.181 152.89 203.471C153.422 202.762 154.171 202.22 155.137 201.845C156.122 201.451 157.285 201.254 158.625 201.254C159.65 201.254 160.684 201.382 161.729 201.638C162.793 201.875 163.66 202.22 164.33 202.673L163.118 204.92C162.409 204.447 161.67 204.121 160.901 203.944C160.133 203.767 159.364 203.678 158.595 203.678C157.354 203.678 156.427 203.885 155.817 204.299C155.206 204.693 154.9 205.205 154.9 205.836C154.9 206.368 155.077 206.782 155.432 207.078C155.807 207.353 156.28 207.57 156.851 207.728C157.442 207.886 158.093 208.024 158.802 208.142C159.512 208.24 160.221 208.378 160.931 208.556C161.64 208.713 162.281 208.94 162.852 209.236C163.443 209.531 163.916 209.945 164.271 210.477C164.646 211.009 164.833 211.719 164.833 212.606C164.833 213.552 164.557 214.369 164.005 215.059C163.453 215.749 162.675 216.291 161.67 216.685C160.665 217.06 159.462 217.247 158.063 217.247Z" fill="#1F409E"/>
<path d="M27.2532 314.201V293.508H35.3236C37.1367 293.508 38.6838 293.793 39.9648 294.365C41.2458 294.937 42.2312 295.764 42.9209 296.848C43.6107 297.932 43.9556 299.223 43.9556 300.721C43.9556 302.219 43.6107 303.509 42.9209 304.593C42.2312 305.658 41.2458 306.485 39.9648 307.077C38.6838 307.648 37.1367 307.934 35.3236 307.934H28.8791L30.2094 306.544V314.201H27.2532ZM30.2094 306.84L28.8791 305.362H35.2349C37.1268 305.362 38.5557 304.958 39.5213 304.15C40.5067 303.342 40.9994 302.199 40.9994 300.721C40.9994 299.243 40.5067 298.1 39.5213 297.292C38.5557 296.484 37.1268 296.08 35.2349 296.08H28.8791L30.2094 294.601V306.84ZM47.5961 314.201V298.533H50.3158V302.79L50.0497 301.726C50.4833 300.642 51.2125 299.814 52.2373 299.243C53.2621 298.671 54.5234 298.385 56.0212 298.385V301.135C55.9029 301.115 55.7847 301.105 55.6664 301.105C55.5679 301.105 55.4694 301.105 55.3708 301.105C53.8533 301.105 52.6511 301.558 51.7643 302.465C50.8774 303.371 50.434 304.682 50.434 306.397V314.201H47.5961ZM66.0851 314.378C64.5085 314.378 63.1092 314.033 61.8873 313.344C60.6655 312.654 59.6998 311.708 58.9903 310.506C58.2808 309.284 57.9261 307.904 57.9261 306.367C57.9261 304.81 58.2808 303.431 58.9903 302.228C59.6998 301.026 60.6655 300.09 61.8873 299.42C63.1092 298.73 64.5085 298.385 66.0851 298.385C67.642 298.385 69.0314 298.73 70.2533 299.42C71.4949 300.09 72.4606 301.026 73.1504 302.228C73.8599 303.411 74.2146 304.79 74.2146 306.367C74.2146 307.924 73.8599 309.304 73.1504 310.506C72.4606 311.708 71.4949 312.654 70.2533 313.344C69.0314 314.033 67.642 314.378 66.0851 314.378ZM66.0851 311.895C67.0902 311.895 67.9869 311.668 68.7752 311.215C69.5833 310.762 70.2139 310.121 70.6672 309.294C71.1205 308.446 71.3471 307.471 71.3471 306.367C71.3471 305.244 71.1205 304.278 70.6672 303.47C70.2139 302.642 69.5833 302.002 68.7752 301.548C67.9869 301.095 67.0902 300.869 66.0851 300.869C65.08 300.869 64.1833 301.095 63.395 301.548C62.6067 302.002 61.976 302.642 61.503 303.47C61.0301 304.278 60.7936 305.244 60.7936 306.367C60.7936 307.471 61.0301 308.446 61.503 309.294C61.976 310.121 62.6067 310.762 63.395 311.215C64.1833 311.668 65.08 311.895 66.0851 311.895ZM78.5533 314.201V297.144C78.5533 295.607 78.9967 294.385 79.8835 293.478C80.7901 292.552 82.0711 292.089 83.7266 292.089C84.3375 292.089 84.9189 292.168 85.4707 292.325C86.0422 292.463 86.5251 292.69 86.9192 293.005L86.0619 295.163C85.7663 294.927 85.4313 294.749 85.0568 294.631C84.6824 294.493 84.2882 294.424 83.8744 294.424C83.0466 294.424 82.416 294.661 81.9824 295.134C81.5488 295.587 81.3321 296.267 81.3321 297.173V299.272L81.3912 300.573V314.201H78.5533ZM75.8927 300.869V298.533H85.8846V300.869H75.8927ZM88.5747 314.201V298.533H91.4126V314.201H88.5747ZM89.9937 295.518C89.4418 295.518 88.9787 295.341 88.6043 294.986C88.2495 294.631 88.0721 294.197 88.0721 293.685C88.0721 293.153 88.2495 292.71 88.6043 292.355C88.9787 292 89.4418 291.823 89.9937 291.823C90.5455 291.823 90.9988 292 91.3535 292.355C91.7279 292.69 91.9152 293.114 91.9152 293.626C91.9152 294.158 91.7378 294.611 91.3831 294.986C91.0283 295.341 90.5652 295.518 89.9937 295.518ZM102.198 314.378C100.621 314.378 99.3993 313.955 98.5322 313.107C97.665 312.26 97.2314 311.048 97.2314 309.471V295.104H100.069V309.353C100.069 310.2 100.276 310.851 100.69 311.304C101.124 311.757 101.735 311.984 102.523 311.984C103.41 311.984 104.149 311.737 104.74 311.245L105.627 313.285C105.193 313.659 104.671 313.935 104.06 314.112C103.469 314.29 102.848 314.378 102.198 314.378ZM94.5709 300.869V298.533H104.563V300.869H94.5709Z" fill="#1F409E"/>
<path d="M27.0126 122.05V101.357H35.0829C36.896 101.357 38.4431 101.642 39.7241 102.214C41.0051 102.785 41.9905 103.613 42.6803 104.697C43.3701 105.781 43.715 107.072 43.715 108.57C43.715 110.067 43.3701 111.358 42.6803 112.442C41.9905 113.506 41.0051 114.324 39.7241 114.896C38.4431 115.467 36.896 115.753 35.0829 115.753H28.6385L29.9687 114.393V122.05H27.0126ZM40.8475 122.05L35.5855 114.541H38.7486L44.0697 122.05H40.8475ZM29.9687 114.689L28.6385 113.24H34.9942C36.8862 113.24 38.315 112.836 39.2807 112.028C40.2661 111.201 40.7588 110.048 40.7588 108.57C40.7588 107.092 40.2661 105.948 39.2807 105.14C38.315 104.332 36.8862 103.928 34.9942 103.928H28.6385L29.9687 102.45V114.689ZM55.0537 122.227C53.3786 122.227 51.9005 121.882 50.6195 121.193C49.3582 120.503 48.3728 119.557 47.6633 118.355C46.9735 117.152 46.6286 115.773 46.6286 114.216C46.6286 112.659 46.9637 111.279 47.6337 110.077C48.3235 108.875 49.2596 107.939 50.4421 107.269C51.6443 106.579 52.9943 106.234 54.4921 106.234C56.0096 106.234 57.3497 106.569 58.5125 107.239C59.6752 107.909 60.5818 108.855 61.2321 110.077C61.9022 111.279 62.2372 112.689 62.2372 114.305C62.2372 114.423 62.2274 114.561 62.2077 114.718C62.2077 114.876 62.1978 115.024 62.1781 115.162H48.8458V113.122H60.7L59.5471 113.832C59.5668 112.827 59.3599 111.93 58.9263 111.142C58.4928 110.353 57.8917 109.742 57.1231 109.309C56.3742 108.855 55.4972 108.629 54.4921 108.629C53.5067 108.629 52.6297 108.855 51.8611 109.309C51.0925 109.742 50.4914 110.363 50.0578 111.171C49.6242 111.959 49.4074 112.866 49.4074 113.891V114.364C49.4074 115.408 49.6439 116.344 50.1169 117.172C50.6096 117.98 51.2895 118.611 52.1567 119.064C53.0238 119.517 54.0191 119.744 55.1424 119.744C56.0687 119.744 56.9063 119.586 57.6552 119.271C58.4238 118.956 59.0938 118.483 59.6654 117.852L61.2321 119.685C60.5227 120.513 59.6358 121.143 58.5716 121.577C57.5271 122.01 56.3545 122.227 55.0537 122.227ZM69.9984 122.05L63.14 106.382H66.0962L72.1859 120.572H70.767L76.9749 106.382H79.7537L72.8954 122.05H69.9984ZM88.9458 122.227C87.2707 122.227 85.7926 121.882 84.5116 121.193C83.2503 120.503 82.2649 119.557 81.5554 118.355C80.8656 117.152 80.5207 115.773 80.5207 114.216C80.5207 112.659 80.8558 111.279 81.5258 110.077C82.2156 108.875 83.1517 107.939 84.3342 107.269C85.5364 106.579 86.8864 106.234 88.3842 106.234C89.9017 106.234 91.2418 106.569 92.4046 107.239C93.5673 107.909 94.4739 108.855 95.1242 110.077C95.7943 111.279 96.1293 112.689 96.1293 114.305C96.1293 114.423 96.1195 114.561 96.0998 114.718C96.0998 114.876 96.0899 115.024 96.0702 115.162H82.7379V113.122H94.5921L93.4392 113.832C93.4589 112.827 93.252 111.93 92.8184 111.142C92.3849 110.353 91.7838 109.742 91.0152 109.309C90.2663 108.855 89.3893 108.629 88.3842 108.629C87.3988 108.629 86.5218 108.855 85.7532 109.309C84.9846 109.742 84.3835 110.363 83.9499 111.171C83.5163 111.959 83.2995 112.866 83.2995 113.891V114.364C83.2995 115.408 83.536 116.344 84.009 117.172C84.5017 117.98 85.1816 118.611 86.0488 119.064C86.9159 119.517 87.9112 119.744 89.0345 119.744C89.9608 119.744 90.7984 119.586 91.5473 119.271C92.3159 118.956 92.9859 118.483 93.5575 117.852L95.1242 119.685C94.4148 120.513 93.5279 121.143 92.4637 121.577C91.4192 122.01 90.2466 122.227 88.9458 122.227ZM108.436 106.234C109.717 106.234 110.84 106.481 111.806 106.973C112.791 107.466 113.56 108.215 114.112 109.22C114.664 110.225 114.94 111.496 114.94 113.033V122.05H112.102V113.359C112.102 111.841 111.727 110.698 110.978 109.929C110.249 109.161 109.215 108.777 107.874 108.777C106.869 108.777 105.992 108.974 105.243 109.368C104.494 109.762 103.913 110.343 103.499 111.112C103.105 111.881 102.908 112.836 102.908 113.979V122.05H100.07V106.382H102.79V110.609L102.346 109.486C102.859 108.461 103.647 107.663 104.711 107.092C105.775 106.52 107.017 106.234 108.436 106.234ZM126.784 122.227C125.444 122.227 124.261 121.981 123.237 121.488C122.231 120.995 121.443 120.247 120.872 119.241C120.32 118.217 120.044 116.936 120.044 115.398V106.382H122.882V115.073C122.882 116.61 123.246 117.763 123.976 118.532C124.724 119.301 125.769 119.685 127.109 119.685C128.095 119.685 128.952 119.488 129.681 119.094C130.41 118.68 130.972 118.089 131.366 117.32C131.76 116.532 131.957 115.586 131.957 114.482V106.382H134.795V122.05H132.105V117.822L132.549 118.946C132.036 119.99 131.267 120.798 130.243 121.37C129.218 121.941 128.065 122.227 126.784 122.227ZM147.174 122.227C145.499 122.227 144.021 121.882 142.74 121.193C141.479 120.503 140.493 119.557 139.784 118.355C139.094 117.152 138.749 115.773 138.749 114.216C138.749 112.659 139.084 111.279 139.754 110.077C140.444 108.875 141.38 107.939 142.563 107.269C143.765 106.579 145.115 106.234 146.613 106.234C148.13 106.234 149.47 106.569 150.633 107.239C151.796 107.909 152.702 108.855 153.353 110.077C154.023 111.279 154.358 112.689 154.358 114.305C154.358 114.423 154.348 114.561 154.328 114.718C154.328 114.876 154.319 115.024 154.299 115.162H140.966V113.122H152.821L151.668 113.832C151.688 112.827 151.481 111.93 151.047 111.142C150.613 110.353 150.012 109.742 149.244 109.309C148.495 108.855 147.618 108.629 146.613 108.629C145.627 108.629 144.75 108.855 143.982 109.309C143.213 109.742 142.612 110.363 142.178 111.171C141.745 111.959 141.528 112.866 141.528 113.891V114.364C141.528 115.408 141.765 116.344 142.238 117.172C142.73 117.98 143.41 118.611 144.277 119.064C145.145 119.517 146.14 119.744 147.263 119.744C148.189 119.744 149.027 119.586 149.776 119.271C150.544 118.956 151.215 118.483 151.786 117.852L153.353 119.685C152.643 120.513 151.756 121.143 150.692 121.577C149.648 122.01 148.475 122.227 147.174 122.227Z" fill="#1F409E"/>
<path d="M23.7585 154.285H169.456" stroke="#1F409E" stroke-width="2.11155"/>
<path d="M23.7585 257.751H169.456" stroke="#1F409E" stroke-width="2.11155"/>
<rect x="262.364" y="88.8262" width="47.2122" height="47.2122" rx="15.7374" fill="#141F3F"/>
<path d="M285.972 100.629V124.235" stroke="#D7DDEF" stroke-width="1.96717" stroke-linecap="round"/>
<path d="M274.168 111.449H297.775" stroke="#D7DDEF" stroke-width="1.96717" stroke-linecap="round"/>
<rect x="262.364" y="152.931" width="47.2122" height="47.2122" rx="15.7374" fill="#141F3F"/>
<path d="M277.625 168.191L294.317 184.883" stroke="#D7DDEF" stroke-width="1.96717" stroke-linecap="round"/>
<path d="M276.929 184.188L293.621 167.495" stroke="#D7DDEF" stroke-width="1.96717" stroke-linecap="round"/>
<rect x="262.364" y="217.036" width="47.2122" height="47.2122" rx="15.7374" fill="#141F3F"/>
<path d="M274.168 240.642H297.774" stroke="#D7DDEF" stroke-width="1.96717" stroke-linecap="round"/>
<g clip-path="url(#clip0_555_567)">
<rect x="262.364" y="281.14" width="47.2122" height="47.2122" rx="15.7374" fill="#141F3F"/>
<path d="M274.168 304.747H297.775" stroke="#D7DDEF" stroke-width="1.96717" stroke-linecap="round"/>
<path d="M285.502 300.487C284.935 300.487 284.448 300.294 284.043 299.909C283.638 299.504 283.435 298.998 283.435 298.39C283.435 297.782 283.638 297.285 284.043 296.9C284.448 296.515 284.935 296.323 285.502 296.323C286.049 296.323 286.515 296.515 286.9 296.9C287.305 297.285 287.508 297.782 287.508 298.39C287.508 298.998 287.305 299.504 286.9 299.909C286.515 300.294 286.049 300.487 285.502 300.487Z" fill="#D7DDEF"/>
<path d="M285.502 312.29C284.935 312.29 284.448 312.097 284.043 311.712C283.638 311.307 283.435 310.8 283.435 310.193C283.435 309.585 283.638 309.088 284.043 308.703C284.448 308.318 284.935 308.126 285.502 308.126C286.049 308.126 286.515 308.318 286.9 308.703C287.305 309.088 287.508 309.585 287.508 310.193C287.508 310.8 287.305 311.307 286.9 311.712C286.515 312.097 286.049 312.29 285.502 312.29Z" fill="#D7DDEF"/>
</g>
<rect x="1.58752" y="1.19713" width="335.737" height="380.08" rx="49.6215" stroke="#1F409E" stroke-width="2.11155"/>
<defs>
<clipPath id="clip0_555_567">
<rect x="262.364" y="281.14" width="47.2122" height="47.2122" rx="15.7374" fill="white"/>
</clipPath>
</defs>
</svg>
