<svg width="13" height="14" viewBox="0 0 13 14" fill="none" xmlns="http://www.w3.org/2000/svg">
<path d="M5.24439 8.83713L8.94843 5.13309C9.06353 5.018 9.21001 4.96045 9.38789 4.96045C9.56577 4.96045 9.71226 5.018 9.82735 5.13309C9.94245 5.24819 10 5.39468 10 5.57256C10 5.75043 9.94245 5.89692 9.82735 6.01202L5.68386 10.1555C5.5583 10.2811 5.41181 10.3439 5.24439 10.3439C5.07698 10.3439 4.93049 10.2811 4.80493 10.1555L3.17265 8.52323C3.05755 8.40813 3 8.26164 3 8.08377C3 7.90589 3.05755 7.7594 3.17265 7.64431C3.28774 7.52921 3.43423 7.47166 3.61211 7.47166C3.78998 7.47166 3.93647 7.52921 4.05157 7.64431L5.24439 8.83713Z" fill="#96ACD7"/>
<rect x="0.5" y="1.46045" width="12" height="12" rx="2.5" stroke="#96ACD7"/>
</svg>
