<svg width="448" height="386" viewBox="0 0 448 386" fill="none" xmlns="http://www.w3.org/2000/svg">
<path d="M5.7574 381.431C4.81424 381.431 3.94147 381.248 3.13908 380.882C2.35076 380.516 1.70322 379.989 1.19645 379.299L2.759 377.42C3.16723 377.983 3.61066 378.405 4.08927 378.686C4.58197 378.968 5.1169 379.109 5.69406 379.109C7.22845 379.109 7.99565 378.201 7.99565 376.385V368.741H2.73788V366.439H10.7407V376.237C10.7407 377.983 10.3113 379.285 9.45262 380.143C8.608 381.002 7.37626 381.431 5.7574 381.431ZM21.2846 381.22V378.94L21.1368 378.454V374.463C21.1368 373.689 20.9045 373.091 20.44 372.669C19.9754 372.232 19.2716 372.014 18.3284 372.014C17.6949 372.014 17.0685 372.112 16.4491 372.31C15.8438 372.507 15.33 372.781 14.9077 373.133L13.873 371.212C14.4783 370.747 15.1963 370.402 16.0268 370.177C16.8714 369.938 17.7442 369.818 18.6451 369.818C20.2781 369.818 21.538 370.212 22.4248 371C23.3258 371.775 23.7762 372.978 23.7762 374.611V381.22H21.2846ZM17.7372 381.368C16.8926 381.368 16.1535 381.227 15.52 380.946C14.8866 380.65 14.3939 380.249 14.042 379.742C13.7041 379.221 13.5352 378.637 13.5352 377.99C13.5352 377.356 13.683 376.786 13.9786 376.279C14.2883 375.773 14.788 375.371 15.4778 375.076C16.1676 374.78 17.0826 374.632 18.2228 374.632H21.4957V376.385H18.4129C17.5119 376.385 16.9066 376.533 16.5969 376.828C16.2872 377.11 16.1324 377.462 16.1324 377.884C16.1324 378.363 16.3224 378.743 16.7025 379.024C17.0826 379.306 17.6105 379.447 18.2862 379.447C18.9337 379.447 19.5109 379.299 20.0177 379.003C20.5385 378.708 20.9115 378.271 21.1368 377.694L21.5802 379.278C21.3268 379.939 20.8693 380.453 20.2077 380.819C19.5602 381.185 18.7366 381.368 17.7372 381.368ZM33.5616 369.818C34.4626 369.818 35.2649 369.994 35.9688 370.346C36.6867 370.698 37.2498 371.24 37.658 371.972C38.0663 372.69 38.2704 373.619 38.2704 374.759V381.22H35.631V375.097C35.631 374.097 35.3916 373.351 34.913 372.859C34.4485 372.366 33.7939 372.12 32.9493 372.12C32.3299 372.12 31.7809 372.246 31.3023 372.5C30.8236 372.753 30.4506 373.133 30.1831 373.64C29.9298 374.133 29.8031 374.759 29.8031 375.519V381.22H27.1636V369.945H29.6764V372.985L29.2329 372.056C29.6271 371.338 30.1972 370.789 30.9433 370.409C31.7035 370.015 32.5762 369.818 33.5616 369.818Z" fill="#141F3F"/>
<path d="M84.6761 373.239H92.0454V375.561H84.6761V373.239ZM84.9083 381.22H82.1633V366.439H92.9534V368.741H84.9083V381.22ZM100.345 381.368C99.0924 381.368 97.9944 381.122 97.0513 380.629C96.1222 380.122 95.3972 379.433 94.8764 378.56C94.3696 377.687 94.1162 376.695 94.1162 375.582C94.1162 374.456 94.3626 373.464 94.8553 372.605C95.362 371.732 96.0518 371.05 96.9246 370.557C97.8114 370.064 98.8179 369.818 99.9441 369.818C101.042 369.818 102.02 370.057 102.879 370.536C103.738 371.014 104.414 371.69 104.906 372.563C105.399 373.436 105.645 374.463 105.645 375.646C105.645 375.758 105.638 375.885 105.624 376.026C105.624 376.167 105.617 376.3 105.603 376.427H96.2067V374.675H104.209L103.175 375.224C103.189 374.576 103.055 374.006 102.774 373.513C102.492 373.02 102.105 372.633 101.612 372.352C101.134 372.07 100.578 371.929 99.9441 371.929C99.2966 371.929 98.7264 372.07 98.2337 372.352C97.7551 372.633 97.375 373.028 97.0935 373.534C96.826 374.027 96.6923 374.611 96.6923 375.287V375.709C96.6923 376.385 96.8472 376.983 97.1569 377.504C97.4665 378.025 97.9029 378.426 98.466 378.708C99.0291 378.989 99.6766 379.13 100.409 379.13C101.042 379.13 101.612 379.031 102.119 378.834C102.626 378.637 103.076 378.328 103.47 377.905L104.885 379.531C104.378 380.122 103.738 380.58 102.964 380.904C102.203 381.213 101.331 381.368 100.345 381.368ZM114.431 381.368C113.474 381.368 112.622 381.157 111.876 380.735C111.13 380.312 110.539 379.679 110.102 378.834C109.68 377.976 109.469 376.892 109.469 375.582C109.469 374.259 109.687 373.175 110.123 372.331C110.574 371.486 111.172 370.86 111.918 370.451C112.678 370.029 113.516 369.818 114.431 369.818C115.543 369.818 116.521 370.057 117.366 370.536C118.225 371.014 118.9 371.683 119.393 372.542C119.9 373.401 120.153 374.414 120.153 375.582C120.153 376.751 119.9 377.764 119.393 378.623C118.9 379.482 118.225 380.158 117.366 380.65C116.521 381.129 115.543 381.368 114.431 381.368ZM108.181 381.22V365.553H110.82V372.563L110.609 375.561L110.693 378.56V381.22H108.181ZM114.135 379.109C114.769 379.109 115.332 378.968 115.824 378.686C116.331 378.405 116.732 377.997 117.028 377.462C117.324 376.927 117.471 376.3 117.471 375.582C117.471 374.85 117.324 374.224 117.028 373.703C116.732 373.168 116.331 372.76 115.824 372.479C115.332 372.197 114.769 372.056 114.135 372.056C113.502 372.056 112.932 372.197 112.425 372.479C111.918 372.76 111.517 373.168 111.221 373.703C110.926 374.224 110.778 374.85 110.778 375.582C110.778 376.3 110.926 376.927 111.221 377.462C111.517 377.997 111.918 378.405 112.425 378.686C112.932 378.968 113.502 379.109 114.135 379.109Z" fill="#141F3F"/>
<path d="M162.871 381.22V366.439H165.13L171.592 377.229H170.409L176.765 366.439H179.024L179.046 381.22H176.448L176.427 370.515H176.976L171.571 379.531H170.346L164.856 370.515H165.489V381.22H162.871ZM189.732 381.22V378.94L189.584 378.454V374.463C189.584 373.689 189.352 373.091 188.887 372.669C188.423 372.232 187.719 372.014 186.776 372.014C186.142 372.014 185.516 372.112 184.896 372.31C184.291 372.507 183.777 372.781 183.355 373.133L182.32 371.212C182.925 370.747 183.643 370.402 184.474 370.177C185.319 369.938 186.191 369.818 187.092 369.818C188.725 369.818 189.985 370.212 190.872 371C191.773 371.775 192.223 372.978 192.223 374.611V381.22H189.732ZM186.184 381.368C185.34 381.368 184.601 381.227 183.967 380.946C183.334 380.65 182.841 380.249 182.489 379.742C182.151 379.221 181.982 378.637 181.982 377.99C181.982 377.356 182.13 376.786 182.426 376.279C182.735 375.773 183.235 375.371 183.925 375.076C184.615 374.78 185.53 374.632 186.67 374.632H189.943V376.385H186.86C185.959 376.385 185.354 376.533 185.044 376.828C184.734 377.11 184.58 377.462 184.58 377.884C184.58 378.363 184.77 378.743 185.15 379.024C185.53 379.306 186.058 379.447 186.733 379.447C187.381 379.447 187.958 379.299 188.465 379.003C188.986 378.708 189.359 378.271 189.584 377.694L190.027 379.278C189.774 379.939 189.316 380.453 188.655 380.819C188.007 381.185 187.184 381.368 186.184 381.368ZM195.611 381.22V369.945H198.123V373.049L197.828 372.141C198.166 371.38 198.694 370.803 199.412 370.409C200.144 370.015 201.052 369.818 202.135 369.818V372.331C202.023 372.303 201.917 372.288 201.819 372.288C201.72 372.274 201.622 372.267 201.523 372.267C200.524 372.267 199.728 372.563 199.137 373.154C198.546 373.731 198.25 374.597 198.25 375.751V381.22H195.611Z" fill="#141F3F"/>
<path d="M242.488 381.22L249.14 366.439H251.842L258.515 381.22H255.643L249.921 367.896H251.019L245.318 381.22H242.488ZM245.55 377.8L246.289 375.646H254.271L255.01 377.8H245.55ZM266.391 381.368C265.476 381.368 264.639 381.157 263.879 380.735C263.133 380.312 262.534 379.679 262.084 378.834C261.648 377.976 261.429 376.892 261.429 375.582C261.429 374.259 261.64 373.175 262.063 372.331C262.499 371.486 263.09 370.86 263.836 370.451C264.583 370.029 265.434 369.818 266.391 369.818C267.504 369.818 268.482 370.057 269.327 370.536C270.185 371.014 270.861 371.683 271.354 372.542C271.86 373.401 272.114 374.414 272.114 375.582C272.114 376.751 271.86 377.771 271.354 378.644C270.861 379.503 270.185 380.172 269.327 380.65C268.482 381.129 267.504 381.368 266.391 381.368ZM260.141 385.317V369.945H262.654V372.605L262.57 375.604L262.781 378.602V385.317H260.141ZM266.096 379.109C266.729 379.109 267.292 378.968 267.785 378.686C268.292 378.405 268.693 377.997 268.989 377.462C269.284 376.927 269.432 376.3 269.432 375.582C269.432 374.85 269.284 374.224 268.989 373.703C268.693 373.168 268.292 372.76 267.785 372.479C267.292 372.197 266.729 372.056 266.096 372.056C265.462 372.056 264.892 372.197 264.385 372.479C263.879 372.76 263.478 373.168 263.182 373.703C262.886 374.224 262.738 374.85 262.738 375.582C262.738 376.3 262.886 376.927 263.182 377.462C263.478 377.997 263.879 378.405 264.385 378.686C264.892 378.968 265.462 379.109 266.096 379.109ZM274.617 381.22V369.945H277.13V373.049L276.834 372.141C277.172 371.38 277.7 370.803 278.418 370.409C279.15 370.015 280.058 369.818 281.142 369.818V372.331C281.029 372.303 280.923 372.288 280.825 372.288C280.726 372.274 280.628 372.267 280.529 372.267C279.53 372.267 278.734 372.563 278.143 373.154C277.552 373.731 277.256 374.597 277.256 375.751V381.22H274.617Z" fill="#141F3F"/>
<path d="M324.286 381.22V366.439H326.545L333.007 377.229H331.824L338.18 366.439H340.44L340.461 381.22H337.863L337.842 370.515H338.391L332.986 379.531H331.761L326.271 370.515H326.904V381.22H324.286ZM351.147 381.22V378.94L350.999 378.454V374.463C350.999 373.689 350.767 373.091 350.302 372.669C349.838 372.232 349.134 372.014 348.191 372.014C347.557 372.014 346.931 372.112 346.311 372.31C345.706 372.507 345.192 372.781 344.77 373.133L343.735 371.212C344.341 370.747 345.058 370.402 345.889 370.177C346.734 369.938 347.606 369.818 348.507 369.818C350.14 369.818 351.4 370.212 352.287 371C353.188 371.775 353.638 372.978 353.638 374.611V381.22H351.147ZM347.599 381.368C346.755 381.368 346.016 381.227 345.382 380.946C344.749 380.65 344.256 380.249 343.904 379.742C343.566 379.221 343.397 378.637 343.397 377.99C343.397 377.356 343.545 376.786 343.841 376.279C344.15 375.773 344.65 375.371 345.34 375.076C346.03 374.78 346.945 374.632 348.085 374.632H351.358V376.385H348.275C347.374 376.385 346.769 376.533 346.459 376.828C346.149 377.11 345.995 377.462 345.995 377.884C345.995 378.363 346.185 378.743 346.565 379.024C346.945 379.306 347.473 379.447 348.148 379.447C348.796 379.447 349.373 379.299 349.88 379.003C350.401 378.708 350.774 378.271 350.999 377.694L351.442 379.278C351.189 379.939 350.731 380.453 350.07 380.819C349.422 381.185 348.599 381.368 347.599 381.368ZM357.749 385.465C357.2 385.465 356.651 385.373 356.102 385.19C355.553 385.007 355.095 384.754 354.729 384.43L355.785 382.487C356.052 382.727 356.355 382.917 356.693 383.057C357.031 383.198 357.376 383.269 357.728 383.269C358.206 383.269 358.593 383.149 358.889 382.91C359.185 382.67 359.459 382.269 359.712 381.706L360.367 380.228L360.578 379.911L364.843 369.945H367.377L362.098 382.128C361.747 382.973 361.352 383.642 360.916 384.134C360.494 384.627 360.015 384.972 359.48 385.169C358.959 385.366 358.382 385.465 357.749 385.465ZM360.071 381.622L354.983 369.945H357.728L361.866 379.679L360.071 381.622Z" fill="#141F3F"/>
<path d="M411.295 381.431C410.352 381.431 409.48 381.248 408.677 380.882C407.889 380.516 407.241 379.989 406.735 379.299L408.297 377.42C408.705 377.983 409.149 378.405 409.627 378.686C410.12 378.968 410.655 379.109 411.232 379.109C412.767 379.109 413.534 378.201 413.534 376.385V368.741H408.276V366.439H416.279V376.237C416.279 377.983 415.849 379.285 414.991 380.143C414.146 381.002 412.914 381.431 411.295 381.431ZM424.648 381.368C423.691 381.368 422.846 381.192 422.114 380.84C421.382 380.474 420.812 379.925 420.404 379.193C419.995 378.447 419.791 377.511 419.791 376.385V369.945H422.431V376.026C422.431 377.039 422.656 377.8 423.106 378.306C423.571 378.799 424.225 379.045 425.07 379.045C425.689 379.045 426.224 378.919 426.675 378.665C427.139 378.412 427.498 378.032 427.752 377.525C428.019 377.018 428.153 376.392 428.153 375.646V369.945H430.792V381.22H428.28V378.18L428.723 379.109C428.343 379.841 427.787 380.404 427.055 380.798C426.323 381.178 425.521 381.368 424.648 381.368ZM440.646 369.818C441.547 369.818 442.35 369.994 443.053 370.346C443.771 370.698 444.334 371.24 444.743 371.972C445.151 372.69 445.355 373.619 445.355 374.759V381.22H442.716V375.097C442.716 374.097 442.476 373.351 441.998 372.859C441.533 372.366 440.879 372.12 440.034 372.12C439.415 372.12 438.866 372.246 438.387 372.5C437.908 372.753 437.535 373.133 437.268 373.64C437.014 374.133 436.888 374.759 436.888 375.519V381.22H434.248V369.945H436.761V372.985L436.318 372.056C436.712 371.338 437.282 370.789 438.028 370.409C438.788 370.015 439.661 369.818 440.646 369.818Z" fill="#141F3F"/>
<path d="M1.47095 321.342L447.009 321.342" stroke="#4CA9D6" stroke-width="5.04638"/>
<path d="M1.47095 72.7451H447.009" stroke="#4CA9D6" stroke-opacity="0.3" stroke-width="1.44187" stroke-linecap="round"/>
<path d="M1.47095 156.261H447.009" stroke="#4CA9D6" stroke-opacity="0.3" stroke-width="1.44187" stroke-linecap="round"/>
<path d="M1.47095 240.812H447.009" stroke="#4CA9D6" stroke-opacity="0.3" stroke-width="1.44187" stroke-linecap="round"/>
<path d="M1.47095 321.73L447.009 320.287" stroke="#4CA9D6" stroke-opacity="0.3" stroke-width="1.44187" stroke-linecap="round"/>
<path d="M1.47095 227.889C1.47095 217.935 9.54029 209.866 19.4943 209.866C29.4484 209.866 37.5177 217.935 37.5177 227.889V323.894H1.47095V227.889Z" fill="url(#paint0_linear_555_545)"/>
<path d="M412.318 211.523C412.318 202.07 419.982 194.406 429.435 194.406C438.889 194.406 446.553 202.07 446.553 211.523V323.875H412.318V211.523Z" fill="url(#paint1_linear_555_545)"/>
<path d="M327.334 118.217C327.334 108.676 335.069 100.941 344.611 100.941C354.152 100.941 361.887 108.676 361.887 118.217V322.888H327.334V118.217Z" fill="url(#paint2_linear_555_545)"/>
<path d="M85.1848 165.828C85.1848 156.375 92.8486 148.711 102.302 148.711C111.756 148.711 119.42 156.375 119.42 165.828V323.875H85.1848V165.828Z" fill="url(#paint3_linear_555_545)"/>
<path d="M161.262 180.641C161.262 171.187 168.925 163.523 178.379 163.523C187.833 163.523 195.497 171.187 195.497 180.641V323.455H161.262V180.641Z" fill="url(#paint4_linear_555_545)"/>
<path d="M244.948 101.094C244.948 91.6406 252.612 83.9768 262.065 83.9768C271.519 83.9768 279.183 91.6406 279.183 101.094V323.875H244.948V101.094Z" fill="url(#paint5_linear_555_545)"/>
<path d="M16.6865 205.177L69.1664 159.196C87.7645 142.901 113.73 137.959 137.014 146.283V146.283C162.607 155.433 191.19 148.5 209.746 128.64L231.314 105.557C249.442 86.1554 277.071 78.8355 302.427 86.7169L329.45 95.1163C340.664 98.602 350.806 104.884 358.923 113.37L432.135 189.917" stroke="#1F409E" stroke-width="1.44187" stroke-linecap="round" stroke-dasharray="2.88 2.88"/>
<path d="M5.98967 13.2405H13.3379V15.4998H5.98967V13.2405ZM6.20083 19.5751H14.5415V21.8767H3.45581V7.09583H14.2459V9.39742H6.20083V19.5751ZM15.6212 21.8767L20.5833 15.4154L20.5411 16.8301L15.8112 10.601H18.7463L22.0614 15.0353H20.9423L24.2785 10.601H27.1291L22.357 16.8301L22.3781 15.4154L27.3192 21.8767H24.3419L20.8578 17.1679L21.9558 17.3158L18.5351 21.8767H15.6212ZM35.5171 22.0245C34.6021 22.0245 33.7645 21.8134 33.0044 21.3911C32.2583 20.9687 31.66 20.3353 31.2096 19.4907C30.7732 18.632 30.555 17.548 30.555 16.2389C30.555 14.9156 30.7661 13.8317 31.1884 12.9871C31.6248 12.1424 32.2161 11.516 32.9621 11.1078C33.7082 10.6855 34.5599 10.4743 35.5171 10.4743C36.6292 10.4743 37.6076 10.7136 38.4522 11.1922C39.3109 11.6709 39.9866 12.3395 40.4793 13.1982C40.9861 14.0569 41.2394 15.0705 41.2394 16.2389C41.2394 17.4073 40.9861 18.4278 40.4793 19.3006C39.9866 20.1593 39.3109 20.828 38.4522 21.3066C37.6076 21.7852 36.6292 22.0245 35.5171 22.0245ZM29.2669 25.9731V10.601H31.7797V13.2616L31.6952 16.26L31.9064 19.2584V25.9731H29.2669ZM35.2215 19.7652C35.855 19.7652 36.4181 19.6244 36.9108 19.3428C37.4175 19.0613 37.8187 18.6531 38.1143 18.1181C38.41 17.5832 38.5578 16.9568 38.5578 16.2389C38.5578 15.5069 38.41 14.8804 38.1143 14.3596C37.8187 13.8246 37.4175 13.4164 36.9108 13.1349C36.4181 12.8533 35.855 12.7126 35.2215 12.7126C34.588 12.7126 34.0179 12.8533 33.5111 13.1349C33.0044 13.4164 32.6032 13.8246 32.3076 14.3596C32.0119 14.8804 31.8641 15.5069 31.8641 16.2389C31.8641 16.9568 32.0119 17.5832 32.3076 18.1181C32.6032 18.6531 33.0044 19.0613 33.5111 19.3428C34.0179 19.6244 34.588 19.7652 35.2215 19.7652ZM49.0426 22.0245C47.7898 22.0245 46.6918 21.7782 45.7486 21.2855C44.8195 20.7787 44.0945 20.0889 43.5737 19.2162C43.0669 18.3434 42.8135 17.3509 42.8135 16.2389C42.8135 15.1127 43.0599 14.1203 43.5526 13.2616C44.0594 12.3888 44.7491 11.7061 45.6219 11.2134C46.5088 10.7207 47.5153 10.4743 48.6414 10.4743C49.7394 10.4743 50.7178 10.7136 51.5765 11.1922C52.4352 11.6709 53.1109 12.3466 53.6036 13.2193C54.0963 14.0921 54.3426 15.1197 54.3426 16.3022C54.3426 16.4148 54.3356 16.5415 54.3215 16.6823C54.3215 16.8231 54.3145 16.9568 54.3004 17.0835H44.904V15.3309H52.9068L51.8721 15.8799C51.8862 15.2324 51.7525 14.6622 51.4709 14.1695C51.1894 13.6768 50.8023 13.2897 50.3096 13.0082C49.8309 12.7266 49.2749 12.5859 48.6414 12.5859C47.9939 12.5859 47.4238 12.7266 46.9311 13.0082C46.4524 13.2897 46.0724 13.6839 45.7908 14.1907C45.5234 14.6833 45.3896 15.2675 45.3896 15.9432V16.3656C45.3896 17.0412 45.5445 17.6395 45.8542 18.1604C46.1639 18.6812 46.6003 19.0824 47.1633 19.364C47.7264 19.6455 48.374 19.7863 49.106 19.7863C49.7394 19.7863 50.3096 19.6877 50.8163 19.4907C51.3231 19.2936 51.7736 18.9839 52.1677 18.5616L53.5825 20.1875C53.0757 20.7787 52.4352 21.2362 51.661 21.56C50.9008 21.8697 50.028 22.0245 49.0426 22.0245ZM63.276 10.4743C64.1769 10.4743 64.9793 10.6503 65.6832 11.0022C66.4011 11.3541 66.9642 11.8961 67.3724 12.6281C67.7806 13.346 67.9848 14.2751 67.9848 15.4154V21.8767H65.3453V15.7532C65.3453 14.7537 65.106 14.0076 64.6274 13.515C64.1628 13.0223 63.5083 12.7759 62.6636 12.7759C62.0442 12.7759 61.4952 12.9026 61.0166 13.156C60.538 13.4094 60.165 13.7895 59.8975 14.2962C59.6441 14.7889 59.5174 15.4154 59.5174 16.1755V21.8767H56.878V10.601H59.3907V13.6416L58.9473 12.7126C59.3415 11.9946 59.9116 11.4456 60.6577 11.0655C61.4178 10.6714 62.2906 10.4743 63.276 10.4743ZM74.8171 22.0245C73.874 22.0245 72.966 21.9049 72.0932 21.6656C71.2345 21.4122 70.5518 21.1095 70.045 20.7576L71.0586 18.7516C71.5653 19.0754 72.1706 19.3428 72.8745 19.554C73.5783 19.7652 74.2822 19.8707 74.986 19.8707C75.8166 19.8707 76.4149 19.7581 76.7809 19.5329C77.1609 19.3077 77.351 19.005 77.351 18.6249C77.351 18.3152 77.2243 18.0829 76.9709 17.9281C76.7175 17.7592 76.3867 17.6325 75.9785 17.548C75.5702 17.4636 75.1127 17.3861 74.606 17.3158C74.1133 17.2454 73.6135 17.1539 73.1068 17.0412C72.6141 16.9146 72.1636 16.7386 71.7554 16.5134C71.3471 16.2741 71.0163 15.9573 70.7629 15.5632C70.5095 15.169 70.3829 14.6482 70.3829 14.0006C70.3829 13.2827 70.587 12.6633 70.9952 12.1424C71.4034 11.6075 71.9736 11.1993 72.7056 10.9177C73.4516 10.6221 74.3315 10.4743 75.345 10.4743C76.1052 10.4743 76.8724 10.5588 77.6466 10.7277C78.4208 10.8966 79.0613 11.1359 79.5681 11.4456L78.5546 13.4516C78.0196 13.1278 77.4777 12.9096 76.9287 12.797C76.3937 12.6703 75.8588 12.607 75.3239 12.607C74.5215 12.607 73.9232 12.7266 73.5291 12.9659C73.149 13.2053 72.9589 13.5079 72.9589 13.8739C72.9589 14.2118 73.0856 14.4652 73.339 14.6341C73.5924 14.803 73.9232 14.9367 74.3315 15.0353C74.7397 15.1338 75.1902 15.2183 75.6829 15.2887C76.1896 15.345 76.6894 15.4365 77.1821 15.5632C77.6748 15.6899 78.1252 15.8658 78.5335 16.091C78.9558 16.3022 79.2936 16.6049 79.547 16.999C79.8004 17.3932 79.9271 17.907 79.9271 18.5405C79.9271 19.2443 79.7159 19.8567 79.2936 20.3775C78.8854 20.8984 78.3012 21.3066 77.541 21.6022C76.7809 21.8837 75.8729 22.0245 74.8171 22.0245ZM87.5001 22.0245C86.2473 22.0245 85.1493 21.7782 84.2061 21.2855C83.277 20.7787 82.5521 20.0889 82.0312 19.2162C81.5244 18.3434 81.271 17.3509 81.271 16.2389C81.271 15.1127 81.5174 14.1203 82.0101 13.2616C82.5169 12.3888 83.2066 11.7061 84.0794 11.2134C84.9663 10.7207 85.9728 10.4743 87.0989 10.4743C88.1969 10.4743 89.1753 10.7136 90.034 11.1922C90.8927 11.6709 91.5684 12.3466 92.0611 13.2193C92.5538 14.0921 92.8001 15.1197 92.8001 16.3022C92.8001 16.4148 92.7931 16.5415 92.779 16.6823C92.779 16.8231 92.772 16.9568 92.7579 17.0835H83.3615V15.3309H91.3643L90.3296 15.8799C90.3437 15.2324 90.21 14.6622 89.9284 14.1695C89.6469 13.6768 89.2598 13.2897 88.7671 13.0082C88.2884 12.7266 87.7324 12.5859 87.0989 12.5859C86.4514 12.5859 85.8813 12.7266 85.3886 13.0082C84.91 13.2897 84.5299 13.6839 84.2483 14.1907C83.9809 14.6833 83.8471 15.2675 83.8471 15.9432V16.3656C83.8471 17.0412 84.002 17.6395 84.3117 18.1604C84.6214 18.6812 85.0578 19.0824 85.6209 19.364C86.1839 19.6455 86.8315 19.7863 87.5635 19.7863C88.1969 19.7863 88.7671 19.6877 89.2738 19.4907C89.7806 19.2936 90.2311 18.9839 90.6252 18.5616L92.04 20.1875C91.5332 20.7787 90.8927 21.2362 90.1185 21.56C89.3583 21.8697 88.4855 22.0245 87.5001 22.0245ZM98.8196 22.0245C97.8764 22.0245 96.9684 21.9049 96.0956 21.6656C95.2369 21.4122 94.5542 21.1095 94.0474 20.7576L95.061 18.7516C95.5678 19.0754 96.1731 19.3428 96.8769 19.554C97.5808 19.7652 98.2846 19.8707 98.9885 19.8707C99.819 19.8707 100.417 19.7581 100.783 19.5329C101.163 19.3077 101.353 19.005 101.353 18.6249C101.353 18.3152 101.227 18.0829 100.973 17.9281C100.72 17.7592 100.389 17.6325 99.9809 17.548C99.5727 17.4636 99.1152 17.3861 98.6084 17.3158C98.1157 17.2454 97.616 17.1539 97.1092 17.0412C96.6165 16.9146 96.166 16.7386 95.7578 16.5134C95.3496 16.2741 95.0188 15.9573 94.7654 15.5632C94.512 15.169 94.3853 14.6482 94.3853 14.0006C94.3853 13.2827 94.5894 12.6633 94.9976 12.1424C95.4059 11.6075 95.976 11.1993 96.708 10.9177C97.4541 10.6221 98.3339 10.4743 99.3474 10.4743C100.108 10.4743 100.875 10.5588 101.649 10.7277C102.423 10.8966 103.064 11.1359 103.571 11.4456L102.557 13.4516C102.022 13.1278 101.48 12.9096 100.931 12.797C100.396 12.6703 99.8613 12.607 99.3263 12.607C98.5239 12.607 97.9257 12.7266 97.5315 12.9659C97.1514 13.2053 96.9614 13.5079 96.9614 13.8739C96.9614 14.2118 97.0881 14.4652 97.3415 14.6341C97.5948 14.803 97.9257 14.9367 98.3339 15.0353C98.7421 15.1338 99.1926 15.2183 99.6853 15.2887C100.192 15.345 100.692 15.4365 101.184 15.5632C101.677 15.6899 102.128 15.8658 102.536 16.091C102.958 16.3022 103.296 16.6049 103.549 16.999C103.803 17.3932 103.93 17.907 103.93 18.5405C103.93 19.2443 103.718 19.8567 103.296 20.3775C102.888 20.8984 102.304 21.3066 101.543 21.6022C100.783 21.8837 99.8753 22.0245 98.8196 22.0245Z" fill="#141F3F"/>
<defs>
<linearGradient id="paint0_linear_555_545" x1="19.4943" y1="209.866" x2="19.4943" y2="323.894" gradientUnits="userSpaceOnUse">
<stop stop-color="#BBC7E9"/>
<stop offset="1" stop-color="#7B95E2"/>
</linearGradient>
<linearGradient id="paint1_linear_555_545" x1="429.435" y1="194.406" x2="429.435" y2="323.875" gradientUnits="userSpaceOnUse">
<stop stop-color="#BBC7E9"/>
<stop offset="1" stop-color="#7B95E2"/>
</linearGradient>
<linearGradient id="paint2_linear_555_545" x1="344.611" y1="100.941" x2="344.611" y2="322.888" gradientUnits="userSpaceOnUse">
<stop stop-color="#BBC7E9"/>
<stop offset="1" stop-color="#7B95E2"/>
</linearGradient>
<linearGradient id="paint3_linear_555_545" x1="102.302" y1="148.711" x2="102.302" y2="323.875" gradientUnits="userSpaceOnUse">
<stop stop-color="#BBC7E9"/>
<stop offset="1" stop-color="#7B95E2"/>
</linearGradient>
<linearGradient id="paint4_linear_555_545" x1="178.379" y1="163.523" x2="178.379" y2="323.455" gradientUnits="userSpaceOnUse">
<stop stop-color="#BBC7E9"/>
<stop offset="1" stop-color="#7B95E2"/>
</linearGradient>
<linearGradient id="paint5_linear_555_545" x1="262.065" y1="83.9768" x2="262.065" y2="323.875" gradientUnits="userSpaceOnUse">
<stop stop-color="#BBC7E9"/>
<stop offset="1" stop-color="#7B95E2"/>
</linearGradient>
</defs>
</svg>
