<svg width="528" height="385" viewBox="0 0 528 385" fill="none" xmlns="http://www.w3.org/2000/svg">
<rect x="17.3699" y="353.777" width="93.1974" height="29.3277" rx="14.6639" fill="url(#paint0_linear_555_590)"/>
<rect x="127.014" y="353.777" width="93.1974" height="29.3277" rx="14.6639" fill="url(#paint1_linear_555_590)"/>
<rect x="236.658" y="353.777" width="93.1974" height="29.3277" rx="14.6639" fill="url(#paint2_linear_555_590)"/>
<rect x="17.3699" y="309.786" width="93.1974" height="29.3277" rx="14.6639" fill="url(#paint3_linear_555_590)"/>
<rect x="127.014" y="309.786" width="93.1974" height="29.3277" rx="14.6639" fill="url(#paint4_linear_555_590)"/>
<rect x="236.658" y="309.786" width="93.1974" height="29.3277" rx="14.6639" fill="url(#paint5_linear_555_590)"/>
<rect x="17.3699" y="265.794" width="93.1974" height="29.3277" rx="14.6639" fill="url(#paint6_linear_555_590)"/>
<rect x="127.014" y="265.794" width="93.1974" height="29.3277" rx="14.6639" fill="url(#paint7_linear_555_590)"/>
<rect x="236.658" y="265.794" width="93.1974" height="29.3277" rx="14.6639" fill="url(#paint8_linear_555_590)"/>
<rect x="127.014" y="221.803" width="93.1974" height="29.3277" rx="14.6639" fill="url(#paint9_linear_555_590)"/>
<rect x="236.658" y="221.803" width="93.1974" height="29.3277" rx="14.6639" fill="url(#paint10_linear_555_590)"/>
<rect x="236.658" y="177.811" width="93.1974" height="29.3277" rx="14.6639" fill="url(#paint11_linear_555_590)"/>
<rect x="236.658" y="133.819" width="93.1974" height="29.3277" rx="14.6639" fill="url(#paint12_linear_555_590)"/>
<rect x="236.658" y="92.7605" width="93.1974" height="29.3277" rx="14.6639" fill="url(#paint13_linear_555_590)"/>
<rect x="236.658" y="48.7688" width="93.1974" height="29.3277" rx="14.6639" fill="url(#paint14_linear_555_590)"/>
<rect x="236.658" y="7.71033" width="93.1974" height="29.3277" rx="14.6639" fill="url(#paint15_linear_555_590)"/>
<rect x="127.014" y="177.811" width="93.1974" height="29.3277" rx="14.6639" fill="url(#paint16_linear_555_590)"/>
<path d="M464.514 358.631C464.514 357.284 464.009 355.991 463.112 355.038C462.214 354.086 460.997 353.55 459.727 353.55H431.01C429.74 353.55 428.523 354.086 427.625 355.038C426.728 355.991 426.223 357.284 426.223 358.631C426.223 359.979 426.728 361.271 427.625 362.224C428.523 363.177 429.74 363.712 431.01 363.712H459.727C460.997 363.712 462.214 363.177 463.112 362.224C464.009 361.271 464.514 359.979 464.514 358.631Z" fill="url(#paint17_linear_555_590)"/>
<path d="M469.012 333.226H440.295C439.025 333.226 437.808 333.762 436.91 334.715C436.013 335.667 435.508 336.96 435.508 338.307C435.508 339.655 436.013 340.947 436.91 341.9C437.808 342.853 439.025 343.388 440.295 343.388H469.012C470.282 343.388 471.499 342.853 472.397 341.9C473.294 340.947 473.799 339.655 473.799 338.307C473.799 336.96 473.294 335.667 472.397 334.715C471.499 333.762 470.282 333.226 469.012 333.226Z" fill="url(#paint18_linear_555_590)"/>
<path d="M466.428 373.874H437.71C436.44 373.874 435.223 374.409 434.325 375.362C433.428 376.315 432.924 377.608 432.924 378.955C432.924 380.303 433.428 381.595 434.325 382.548C435.223 383.501 436.44 384.036 437.71 384.036H466.428C467.697 384.036 468.914 383.501 469.812 382.548C470.71 381.595 471.214 380.303 471.214 378.955C471.214 377.608 470.71 376.315 469.812 375.362C468.914 374.409 467.697 373.874 466.428 373.874Z" fill="url(#paint19_linear_555_590)"/>
<path d="M517.642 373.874H484.138C482.868 373.874 481.651 374.409 480.753 375.362C479.856 376.315 479.352 377.608 479.352 378.955C479.352 380.303 479.856 381.595 480.753 382.548C481.651 383.501 482.868 384.036 484.138 384.036H517.642C518.911 384.036 520.129 383.501 521.026 382.548C521.924 381.595 522.428 380.303 522.428 378.955C522.428 377.608 521.924 376.315 521.026 375.362C520.129 374.409 518.911 373.874 517.642 373.874Z" fill="url(#paint20_linear_555_590)"/>
<path d="M522.428 353.55H488.924C487.655 353.55 486.437 354.086 485.54 355.038C484.642 355.991 484.138 357.284 484.138 358.631C484.138 359.979 484.642 361.271 485.54 362.224C486.437 363.177 487.655 363.712 488.924 363.712H522.428C523.698 363.712 524.915 363.177 525.813 362.224C526.71 361.271 527.215 359.979 527.215 358.631C527.215 357.284 526.71 355.991 525.813 355.038C524.915 354.086 523.698 353.55 522.428 353.55Z" fill="url(#paint21_linear_555_590)"/>
<path d="M522.62 343.39C521.217 325.499 516.637 308.053 509.122 291.97C501.923 277.437 491.551 264.946 478.873 255.54L490.36 228.661C490.73 227.858 490.894 226.965 490.835 226.073C490.777 225.181 490.497 224.321 490.025 223.58C489.589 222.931 489.016 222.399 488.35 222.028C487.685 221.657 486.947 221.458 486.196 221.446H408.036C407.231 221.444 406.439 221.658 405.733 222.066C405.026 222.475 404.428 223.067 403.994 223.786C403.56 224.505 403.304 225.329 403.249 226.181C403.194 227.033 403.342 227.886 403.68 228.661L415.407 255.641C402.821 265.056 392.519 277.507 385.349 291.97C375.058 312.294 371.851 337.14 370.99 354.365C370.849 356.886 371.201 359.412 372.025 361.781C372.849 364.151 374.126 366.314 375.776 368.134C377.51 369.922 379.564 371.325 381.816 372.258C384.068 373.192 386.474 373.638 388.891 373.571H418.566V363.714H388.508C387.424 363.71 386.353 363.474 385.358 363.02C384.363 362.566 383.464 361.903 382.716 361.072C381.967 360.246 381.389 359.264 381.018 358.188C380.647 357.112 380.492 355.965 380.562 354.822C381.232 341.561 383.865 316.308 393.773 296.645C400.757 282.556 411.085 270.646 423.735 262.094H428.521C425.278 266.857 422.289 271.811 419.571 276.931C416.802 282.379 414.449 288.054 412.535 293.901L419.092 298.576C421.029 292.509 423.414 286.614 426.224 280.945C429.674 274.353 433.594 268.051 437.95 262.094H442.736C445.947 270.241 448.213 278.772 449.485 287.499C450.525 293.978 451.037 300.54 451.017 307.112L458.579 301.472C458.368 296.362 457.857 291.271 457.047 286.229C455.763 277.988 453.711 269.904 450.921 262.094H454.654L459.01 251.932H424.357L415.502 231.608H478.729L466.764 259.401C468.815 260.568 470.782 261.892 472.651 263.364C484.378 271.953 493.996 283.4 500.698 296.746C507.412 311.381 511.579 327.182 512.999 343.39H522.62Z" fill="url(#paint22_linear_555_590)"/>
<path d="M9.88354 232.004L62.8939 152.353C69.4202 142.547 81.8266 138.506 92.876 142.589L141.219 160.448C152.093 164.465 164.308 160.62 170.92 151.097L242.277 48.3175C249.796 37.4865 264.347 34.1997 275.792 40.747L313.805 62.4926C321.381 66.8261 330.649 66.9722 338.357 62.8795L453.31 1.84485" stroke="url(#paint23_linear_555_590)" stroke-width="2.54295" stroke-dasharray="5.09 5.09"/>
<path d="M1.4375 236.466L53.3065 155.635C59.8158 145.491 72.5521 141.31 83.8071 145.623L129.734 163.22C140.817 167.467 153.363 163.482 159.965 153.62L229.517 49.7181C237.031 38.4939 252.008 35.102 263.625 41.994L299.612 63.3454C307.36 67.9424 316.962 68.0966 324.854 63.7508L437.272 1.8446" stroke="url(#paint24_linear_555_590)" stroke-width="2.54295" stroke-dasharray="5.09 5.09"/>
<defs>
<linearGradient id="paint0_linear_555_590" x1="63.9686" y1="353.777" x2="63.9686" y2="383.105" gradientUnits="userSpaceOnUse">
<stop stop-color="#9FB0E2"/>
<stop offset="1" stop-color="#7E98E3"/>
</linearGradient>
<linearGradient id="paint1_linear_555_590" x1="173.613" y1="353.777" x2="173.613" y2="383.105" gradientUnits="userSpaceOnUse">
<stop stop-color="#9FB0E2"/>
<stop offset="1" stop-color="#7E98E3"/>
</linearGradient>
<linearGradient id="paint2_linear_555_590" x1="283.257" y1="353.777" x2="283.257" y2="383.105" gradientUnits="userSpaceOnUse">
<stop stop-color="#9FB0E2"/>
<stop offset="1" stop-color="#7E98E3"/>
</linearGradient>
<linearGradient id="paint3_linear_555_590" x1="63.9686" y1="309.786" x2="63.9686" y2="339.114" gradientUnits="userSpaceOnUse">
<stop stop-color="#9FB0E2"/>
<stop offset="1" stop-color="#7E98E3"/>
</linearGradient>
<linearGradient id="paint4_linear_555_590" x1="173.613" y1="309.786" x2="173.613" y2="339.114" gradientUnits="userSpaceOnUse">
<stop stop-color="#9FB0E2"/>
<stop offset="1" stop-color="#7E98E3"/>
</linearGradient>
<linearGradient id="paint5_linear_555_590" x1="283.257" y1="309.786" x2="283.257" y2="339.114" gradientUnits="userSpaceOnUse">
<stop stop-color="#9FB0E2"/>
<stop offset="1" stop-color="#7E98E3"/>
</linearGradient>
<linearGradient id="paint6_linear_555_590" x1="63.9686" y1="265.794" x2="63.9686" y2="295.122" gradientUnits="userSpaceOnUse">
<stop stop-color="#9FB0E2"/>
<stop offset="1" stop-color="#7E98E3"/>
</linearGradient>
<linearGradient id="paint7_linear_555_590" x1="173.613" y1="265.794" x2="173.613" y2="295.122" gradientUnits="userSpaceOnUse">
<stop stop-color="#9FB0E2"/>
<stop offset="1" stop-color="#7E98E3"/>
</linearGradient>
<linearGradient id="paint8_linear_555_590" x1="283.257" y1="265.794" x2="283.257" y2="295.122" gradientUnits="userSpaceOnUse">
<stop stop-color="#9FB0E2"/>
<stop offset="1" stop-color="#7E98E3"/>
</linearGradient>
<linearGradient id="paint9_linear_555_590" x1="173.613" y1="221.803" x2="173.613" y2="251.13" gradientUnits="userSpaceOnUse">
<stop stop-color="#9FB0E2"/>
<stop offset="1" stop-color="#7E98E3"/>
</linearGradient>
<linearGradient id="paint10_linear_555_590" x1="283.257" y1="221.803" x2="283.257" y2="251.13" gradientUnits="userSpaceOnUse">
<stop stop-color="#9FB0E2"/>
<stop offset="1" stop-color="#7E98E3"/>
</linearGradient>
<linearGradient id="paint11_linear_555_590" x1="283.257" y1="177.811" x2="283.257" y2="207.139" gradientUnits="userSpaceOnUse">
<stop stop-color="#9FB0E2"/>
<stop offset="1" stop-color="#7E98E3"/>
</linearGradient>
<linearGradient id="paint12_linear_555_590" x1="283.257" y1="133.819" x2="283.257" y2="163.147" gradientUnits="userSpaceOnUse">
<stop stop-color="#9FB0E2"/>
<stop offset="1" stop-color="#7E98E3"/>
</linearGradient>
<linearGradient id="paint13_linear_555_590" x1="283.257" y1="92.7605" x2="283.257" y2="122.088" gradientUnits="userSpaceOnUse">
<stop stop-color="#9FB0E2"/>
<stop offset="1" stop-color="#7E98E3"/>
</linearGradient>
<linearGradient id="paint14_linear_555_590" x1="283.257" y1="48.7688" x2="283.257" y2="78.0965" gradientUnits="userSpaceOnUse">
<stop stop-color="#9FB0E2"/>
<stop offset="1" stop-color="#7E98E3"/>
</linearGradient>
<linearGradient id="paint15_linear_555_590" x1="283.257" y1="7.71033" x2="283.257" y2="37.0381" gradientUnits="userSpaceOnUse">
<stop stop-color="#9FB0E2"/>
<stop offset="1" stop-color="#7E98E3"/>
</linearGradient>
<linearGradient id="paint16_linear_555_590" x1="173.613" y1="177.811" x2="173.613" y2="207.139" gradientUnits="userSpaceOnUse">
<stop stop-color="#9FB0E2"/>
<stop offset="1" stop-color="#7E98E3"/>
</linearGradient>
<linearGradient id="paint17_linear_555_590" x1="449.087" y1="221.446" x2="449.087" y2="384.036" gradientUnits="userSpaceOnUse">
<stop stop-color="#9FB0E2"/>
<stop offset="1" stop-color="#7D97E2"/>
</linearGradient>
<linearGradient id="paint18_linear_555_590" x1="449.087" y1="221.446" x2="449.087" y2="384.036" gradientUnits="userSpaceOnUse">
<stop stop-color="#9FB0E2"/>
<stop offset="1" stop-color="#7D97E2"/>
</linearGradient>
<linearGradient id="paint19_linear_555_590" x1="449.087" y1="221.446" x2="449.087" y2="384.036" gradientUnits="userSpaceOnUse">
<stop stop-color="#9FB0E2"/>
<stop offset="1" stop-color="#7D97E2"/>
</linearGradient>
<linearGradient id="paint20_linear_555_590" x1="449.087" y1="221.446" x2="449.087" y2="384.036" gradientUnits="userSpaceOnUse">
<stop stop-color="#9FB0E2"/>
<stop offset="1" stop-color="#7D97E2"/>
</linearGradient>
<linearGradient id="paint21_linear_555_590" x1="449.087" y1="221.446" x2="449.087" y2="384.036" gradientUnits="userSpaceOnUse">
<stop stop-color="#9FB0E2"/>
<stop offset="1" stop-color="#7D97E2"/>
</linearGradient>
<linearGradient id="paint22_linear_555_590" x1="449.087" y1="221.446" x2="449.087" y2="384.036" gradientUnits="userSpaceOnUse">
<stop stop-color="#9FB0E2"/>
<stop offset="1" stop-color="#7D97E2"/>
</linearGradient>
<linearGradient id="paint23_linear_555_590" x1="279.007" y1="24.8608" x2="117.424" y2="199.674" gradientUnits="userSpaceOnUse">
<stop stop-color="#2355E6"/>
<stop offset="0.648958" stop-color="#839CE3"/>
</linearGradient>
<linearGradient id="paint24_linear_555_590" x1="265.954" y1="25.3068" x2="100.874" y2="197.506" gradientUnits="userSpaceOnUse">
<stop stop-color="#23CEE6"/>
<stop offset="0.648958" stop-color="#83C0E3"/>
</linearGradient>
</defs>
</svg>
