<svg width="469" height="383" viewBox="0 0 469 383" fill="none" xmlns="http://www.w3.org/2000/svg">
<path d="M49.4841 35.3352H410.56" stroke="#4CA9D6" stroke-opacity="0.3" stroke-width="1.16853" stroke-linecap="round"/>
<path d="M49.4839 114.795H410.56" stroke="#4CA9D6" stroke-opacity="0.3" stroke-width="1.16853" stroke-linecap="round"/>
<path d="M47.3723 41.6697H408.448" stroke="#4CA9D6" stroke-opacity="0.3" stroke-width="1.16853" stroke-linecap="round"/>
<path d="M49.4839 194.255H410.56" stroke="#4CA9D6" stroke-opacity="0.3" stroke-width="1.16853" stroke-linecap="round"/>
<path d="M49.4839 273.715H410.56" stroke="#4CA9D6" stroke-opacity="0.3" stroke-width="1.16853" stroke-linecap="round"/>
<path d="M51.9377 333.248L461.64 333.248" stroke="#4CA9D6" stroke-width="4.08972" stroke-linecap="round"/>
<path d="M141.109 222.614L113.204 250.177C104.992 258.288 91.8651 258.546 83.3409 250.763C69.4208 238.053 47.0312 247.929 47.0312 266.778V329.328H466.547V38.275L449.352 82.233C445.016 93.3186 433.816 100.149 421.975 98.9279C411.128 97.8097 400.703 103.456 395.714 113.153L372.229 158.789C363.708 175.349 347.522 186.599 329.03 188.815L298.701 192.45C289.703 193.528 281.099 196.771 273.628 201.901L230.656 231.403C217.015 240.769 198.466 238.075 188.051 225.217C176.249 210.645 154.45 209.436 141.109 222.614Z" fill="url(#paint0_linear_555_611)" stroke="#1F409E" stroke-width="1.16853" stroke-linecap="round"/>
<g clip-path="url(#clip0_555_611)">
<path d="M50.9121 261.889L57.3257 256.376C67.6311 247.518 82.055 245.239 94.5896 250.488L101.126 253.225C113.785 258.526 128.359 256.145 138.673 247.091L160.291 228.114C171.677 218.119 188.113 216.349 201.366 223.69L214.434 230.929C226.558 237.644 241.464 236.781 252.731 228.71L317.044 182.644C320.522 180.153 324.416 178.304 328.544 177.183L356.11 169.701C364.277 167.484 371.399 162.452 376.217 155.495L427.866 80.9121C429.206 78.9776 430.733 77.1794 432.424 75.5437L469 40.1754" stroke="#1F409E" stroke-width="2.11155" stroke-linecap="round" stroke-dasharray="4.22 4.22"/>
<path d="M44.5774 126.284L56.5877 140.663C64.5543 150.2 76.8872 154.939 89.1905 153.19L103.941 151.093C115.1 149.506 126.356 153.254 134.338 161.212L166.239 193.018C174.353 201.108 185.841 204.838 197.16 203.058L245.326 195.485C254.813 193.993 264.503 196.365 272.228 202.07L336.878 249.817C343.053 254.378 350.527 256.839 358.203 256.839H382.058C391.821 256.839 401.164 260.816 407.931 267.853L462.665 324.77" stroke="#6ABCE7" stroke-width="2.11155" stroke-dasharray="4.22 4.22"/>
<path d="M50.9121 115.726L62.9225 130.105C70.889 139.642 83.2219 144.381 95.5253 142.632L110.275 140.535C121.435 138.949 132.691 142.696 140.673 150.654L172.573 182.46C180.687 190.55 192.176 194.28 203.494 192.501L251.661 184.927C261.148 183.435 270.837 185.807 278.562 191.512L343.212 239.259C349.387 243.82 356.861 246.281 364.538 246.281H388.392C398.156 246.281 407.498 250.258 414.266 257.295L469 314.212" stroke="#6ABCE7" stroke-width="2.11155" stroke-dasharray="4.22 4.22"/>
</g>
<rect x="47.7447" y="36.5425" width="418.088" height="291.579" stroke="#D7DDEF" stroke-width="6.33466"/>
<rect x="0.234863" y="33.3751" width="44.3426" height="174.436" rx="22.1713" fill="#1F409E"/>
<path d="M33.5541 187.722C33.5541 189.259 33.219 190.639 32.549 191.861C31.8592 193.063 30.9231 194.009 29.7406 194.699C28.5384 195.388 27.1687 195.733 25.6315 195.733C24.0746 195.733 22.7049 195.388 21.5224 194.699C20.34 194.009 19.4137 193.063 18.7436 191.861C18.0735 190.639 17.7385 189.259 17.7385 187.722C17.7385 186.402 17.9947 185.209 18.5071 184.145C19.0195 183.081 19.7881 182.243 20.8129 181.632L21.8772 183.199C21.0888 183.731 20.5075 184.391 20.133 185.18C19.7586 185.968 19.5713 186.825 19.5713 187.752C19.5713 188.855 19.8275 189.851 20.34 190.737C20.8326 191.624 21.5323 192.324 22.4388 192.836C23.3454 193.349 24.4096 193.605 25.6315 193.605C26.8534 193.605 27.9176 193.349 28.8242 192.836C29.7307 192.324 30.4402 191.624 30.9526 190.737C31.4453 189.851 31.6917 188.855 31.6917 187.752C31.6917 186.825 31.5044 185.968 31.13 185.18C30.7555 184.391 30.184 183.731 29.4154 183.199L30.4796 181.632C31.4847 182.243 32.2533 183.081 32.7855 184.145C33.2979 185.209 33.5541 186.402 33.5541 187.722ZM17.7385 169.818C17.7385 168.556 17.9849 167.453 18.4776 166.507C18.9505 165.541 19.6797 164.792 20.6651 164.26C21.6505 163.708 22.8921 163.432 24.3899 163.432H33.4062V165.531H24.5968C22.9611 165.531 21.7294 165.945 20.9016 166.773C20.0542 167.581 19.6305 168.724 19.6305 170.202C19.6305 171.306 19.8571 172.271 20.3104 173.099C20.744 173.907 21.3845 174.538 22.2319 174.991C23.0596 175.424 24.0647 175.641 25.2472 175.641H33.4062V177.74H11.4714V175.641H22.1432L21.3451 176.055C20.2217 175.562 19.3447 174.774 18.7141 173.69C18.0637 172.606 17.7385 171.315 17.7385 169.818ZM33.5541 151.348C33.5541 152.668 33.3077 153.821 32.815 154.807C32.3223 155.792 31.5833 156.561 30.5979 157.112C29.6125 157.645 28.3808 157.911 26.9027 157.911H17.8863V155.812H26.6662C28.3216 155.812 29.5731 155.408 30.4205 154.6C31.2482 153.772 31.6621 152.619 31.6621 151.141C31.6621 150.057 31.4453 149.121 31.0117 148.333C30.5585 147.525 29.9081 146.914 29.0607 146.5C28.2132 146.066 27.1983 145.849 26.0158 145.849H17.8863V143.751H33.4062V145.761H29.1494L29.918 145.436C31.061 145.928 31.9577 146.697 32.6081 147.741C33.2387 148.766 33.5541 149.968 33.5541 151.348ZM33.4062 137.901H17.8863V135.891H22.1137L21.3746 136.098C20.1921 135.664 19.2954 134.935 18.6845 133.91C18.0538 132.885 17.7385 131.614 17.7385 130.097H19.7783C19.7783 130.176 19.7783 130.254 19.7783 130.333C19.7586 130.412 19.7487 130.491 19.7487 130.57C19.7487 132.205 20.2513 133.486 21.2564 134.413C22.2418 135.339 23.6509 135.802 25.4837 135.802H33.4062V137.901ZM17.7385 118.344C17.7385 117.083 17.9849 115.979 18.4776 115.033C18.9505 114.068 19.6797 113.319 20.6651 112.787C21.6505 112.235 22.8921 111.959 24.3899 111.959H33.4062V114.058H24.5968C22.9611 114.058 21.7294 114.472 20.9016 115.299C20.0542 116.107 19.6305 117.251 19.6305 118.729C19.6305 119.832 19.8571 120.798 20.3104 121.626C20.744 122.434 21.3845 123.064 22.2319 123.518C23.0596 123.951 24.0647 124.168 25.2472 124.168H33.4062V126.267H17.8863L17.8863 124.257H22.1432L21.3451 124.582C20.2217 124.089 19.3447 123.301 18.7141 122.217C18.0637 121.133 17.7385 119.842 17.7385 118.344ZM33.4063 98.5527H17.8863V96.5425H22.1137L21.3746 96.7494C20.1921 96.3159 19.2954 95.5867 18.6845 94.5619C18.0538 93.5371 17.7385 92.2659 17.7385 90.7484H19.7783C19.7783 90.8272 19.7783 90.9061 19.7783 90.9849C19.7586 91.0637 19.7487 91.1426 19.7487 91.2214C19.7487 92.8571 20.2513 94.1381 21.2564 95.0644C22.2418 95.9907 23.6509 96.4538 25.4837 96.4538H33.4063V98.5527ZM33.4063 78.3475H29.9771L29.4154 78.4362H23.6804C22.36 78.4362 21.3451 78.8106 20.6356 79.5595C19.9261 80.2887 19.5713 81.3825 19.5713 82.8409C19.5713 83.846 19.7389 84.8018 20.0739 85.7083C20.4089 86.6149 20.8524 87.3835 21.4042 88.0142L19.8374 88.9601C19.1673 88.1718 18.6549 87.2258 18.3002 86.1222C17.9257 85.0186 17.7385 83.8558 17.7385 82.6339C17.7385 80.6237 18.2411 79.0767 19.2462 77.9927C20.2316 76.8891 21.7392 76.3373 23.7691 76.3373H33.4063V78.3475ZM33.5541 83.6981C33.5541 84.8609 33.3668 85.8759 32.9924 86.743C32.5982 87.5904 32.0661 88.2408 31.3961 88.6941C30.7063 89.1474 29.918 89.374 29.0311 89.374C28.2231 89.374 27.4939 89.1868 26.8435 88.8123C26.1735 88.4182 25.6414 87.7875 25.2472 86.9204C24.8333 86.0335 24.6264 84.8511 24.6264 83.373V78.0223H26.1932V83.3138C26.1932 84.8116 26.4592 85.8562 26.9913 86.4474C27.5235 87.0189 28.1837 87.3047 28.972 87.3047C29.8588 87.3047 30.5683 86.9598 31.1004 86.27C31.6325 85.5802 31.8986 84.6146 31.8986 83.373C31.8986 82.1905 31.6325 81.1755 31.1004 80.3281C30.5486 79.461 29.7603 78.8303 28.7355 78.4362L30.184 77.9632C31.2088 78.3573 32.0267 79.0471 32.6376 80.0325C33.2486 80.9982 33.5541 82.2201 33.5541 83.6981ZM33.5541 65.7292C33.5541 67.1876 33.1599 68.3109 32.3716 69.0993C31.5833 69.8876 30.4698 70.2817 29.0311 70.2817H14.4572V68.1828H28.9129C29.8194 68.1828 30.5191 67.9562 31.0117 67.5029C31.5044 67.0299 31.7508 66.3599 31.7508 65.4927C31.7508 64.5664 31.4847 63.7978 30.9526 63.1869L32.4603 62.4479C32.8347 62.8617 33.1106 63.3643 33.288 63.9555C33.4654 64.527 33.5541 65.1183 33.5541 65.7292ZM19.6305 73.0605H17.8863V63.453H19.6305V73.0605ZM33.5541 52.5832C33.5541 54.1993 33.219 55.6182 32.549 56.8401C31.8592 58.062 30.9231 59.0178 29.7406 59.7076C28.5384 60.3974 27.1687 60.7423 25.6315 60.7423C24.0943 60.7423 22.7345 60.4171 21.552 59.7667C20.3695 59.0967 19.4432 58.1901 18.7732 57.0471C18.0834 55.8843 17.7385 54.5836 17.7385 53.1449C17.7385 51.6865 18.0735 50.3957 18.7436 49.2723C19.394 48.1293 20.3202 47.2326 21.5224 46.5822C22.7049 45.9318 24.0746 45.6067 25.6315 45.6067C25.73 45.6067 25.8384 45.6165 25.9567 45.6362C26.0552 45.6362 26.1636 45.6362 26.2819 45.6362L26.2819 59.146H24.7151L24.7151 46.7596L25.3359 47.5873C24.2125 47.5873 23.2173 47.8336 22.3502 48.3263C21.4633 48.7993 20.7735 49.4497 20.2808 50.2774C19.7881 51.1052 19.5418 52.061 19.5418 53.1449C19.5418 54.2091 19.7881 55.165 20.2808 56.0124C20.7735 56.8598 21.4633 57.5201 22.3502 57.993C23.237 58.466 24.252 58.7025 25.395 58.7025H25.7202C26.9027 58.7025 27.9472 58.4463 28.8537 57.9339C29.7406 57.4018 30.4402 56.6726 30.9526 55.7463C31.4453 54.8004 31.6917 53.7263 31.6917 52.5241C31.6917 51.5781 31.5242 50.7011 31.1891 49.8931C30.8541 49.0654 30.3417 48.3559 29.6519 47.7647L31.0117 46.5822C31.8395 47.272 32.4701 48.1391 32.9037 49.1836C33.3373 50.2084 33.5541 51.3416 33.5541 52.5832Z" fill="#D7DDEF"/>
<path d="M47.9474 29.0559V8.36267H55.6926C57.4466 8.36267 58.9543 8.64844 60.2156 9.21997C61.4769 9.77179 62.4426 10.5798 63.1126 11.644C63.8024 12.6885 64.1473 13.9597 64.1473 15.4575C64.1473 16.9159 63.8024 18.1772 63.1126 19.2414C62.4426 20.2859 61.4769 21.0939 60.2156 21.6655C58.9543 22.237 57.4466 22.5228 55.6926 22.5228H49.1595L50.135 21.4881V29.0559H47.9474ZM50.135 21.6655L49.1595 20.6012H55.6335C57.7028 20.6012 59.2696 20.1578 60.3338 19.271C61.4177 18.3644 61.9597 17.0932 61.9597 15.4575C61.9597 13.802 61.4177 12.521 60.3338 11.6145C59.2696 10.7079 57.7028 10.2546 55.6335 10.2546H49.1595L50.135 9.21997V21.6655ZM74.9396 29.2037C73.3236 29.2037 71.9046 28.8687 70.6827 28.1986C69.4609 27.5088 68.505 26.5727 67.8152 25.3902C67.1255 24.1881 66.7806 22.8184 66.7806 21.2812C66.7806 19.744 67.1058 18.3841 67.7561 17.2016C68.4262 16.0192 69.3328 15.0929 70.4758 14.4228C71.6386 13.7331 72.9393 13.3882 74.378 13.3882C75.8363 13.3882 77.1272 13.7232 78.2505 14.3933C79.3936 15.0436 80.2903 15.9699 80.9407 17.1721C81.591 18.3546 81.9162 19.7242 81.9162 21.2812C81.9162 21.3797 81.9064 21.4881 81.8866 21.6063C81.8866 21.7049 81.8866 21.8133 81.8866 21.9315H68.3769V20.3648H80.7633L79.9356 20.9855C79.9356 19.8622 79.6892 18.867 79.1965 17.9998C78.7235 17.113 78.0732 16.4232 77.2454 15.9305C76.4177 15.4378 75.4619 15.1914 74.378 15.1914C73.3137 15.1914 72.3579 15.4378 71.5105 15.9305C70.663 16.4232 70.0028 17.113 69.5298 17.9998C69.0568 18.8867 68.8203 19.9016 68.8203 21.0447V21.3698C68.8203 22.5523 69.0765 23.5968 69.589 24.5034C70.1211 25.3902 70.8503 26.0899 71.7765 26.6023C72.7225 27.095 73.7966 27.3413 74.9988 27.3413C75.9447 27.3413 76.8217 27.1738 77.6298 26.8388C78.4575 26.5037 79.167 25.9913 79.7582 25.3016L80.9407 26.6614C80.2509 27.4891 79.3837 28.1198 78.3392 28.5534C77.3144 28.9869 76.1812 29.2037 74.9396 29.2037ZM86.1883 29.0559V13.536H88.1985V17.7633L87.9916 17.0243C88.4252 15.8418 89.1544 14.9451 90.1792 14.3342C91.204 13.7035 92.4751 13.3882 93.9926 13.3882V15.4279C93.9138 15.4279 93.835 15.4279 93.7562 15.4279C93.6773 15.4082 93.5985 15.3984 93.5197 15.3984C91.8839 15.3984 90.6029 15.9009 89.6766 16.906C88.7504 17.8914 88.2872 19.3005 88.2872 21.1334V29.0559H86.1883ZM98.4082 29.0559V11.5849C98.4082 10.2054 98.8122 9.09186 99.6202 8.24443C100.428 7.39699 101.591 6.97327 103.109 6.97327C103.7 6.97327 104.271 7.0521 104.823 7.20977C105.375 7.36743 105.838 7.61378 106.213 7.94881L105.503 9.51558C105.207 9.25938 104.863 9.07216 104.468 8.95391C104.074 8.81595 103.65 8.74698 103.197 8.74698C102.31 8.74698 101.63 8.99332 101.157 9.48602C100.684 9.97872 100.448 10.7079 100.448 11.6736V14.0385L100.507 15.0141V29.0559H98.4082ZM95.6294 15.2801V13.536H105.237V15.2801H95.6294ZM114.137 29.2037C112.64 29.2037 111.29 28.8687 110.087 28.1986C108.905 27.5088 107.969 26.5727 107.279 25.3902C106.589 24.1881 106.244 22.8184 106.244 21.2812C106.244 19.7242 106.589 18.3546 107.279 17.1721C107.969 15.9896 108.905 15.0633 110.087 14.3933C111.27 13.7232 112.62 13.3882 114.137 13.3882C115.675 13.3882 117.034 13.7232 118.217 14.3933C119.419 15.0633 120.355 15.9896 121.025 17.1721C121.715 18.3546 122.06 19.7242 122.06 21.2812C122.06 22.8184 121.715 24.1881 121.025 25.3902C120.355 26.5727 119.419 27.5088 118.217 28.1986C117.015 28.8687 115.655 29.2037 114.137 29.2037ZM114.137 27.3413C115.261 27.3413 116.256 27.095 117.123 26.6023C117.99 26.0899 118.67 25.3804 119.163 24.4738C119.675 23.5476 119.931 22.4833 119.931 21.2812C119.931 20.0593 119.675 18.9951 119.163 18.0885C118.67 17.1819 117.99 16.4823 117.123 15.9896C116.256 15.4772 115.271 15.221 114.167 15.221C113.063 15.221 112.078 15.4772 111.211 15.9896C110.344 16.4823 109.654 17.1819 109.141 18.0885C108.629 18.9951 108.373 20.0593 108.373 21.2812C108.373 22.4833 108.629 23.5476 109.141 24.4738C109.654 25.3804 110.344 26.0899 111.211 26.6023C112.078 27.095 113.053 27.3413 114.137 27.3413ZM126.345 29.0559V13.536H128.355V17.7633L128.148 17.0243C128.582 15.8418 129.311 14.9451 130.336 14.3342C131.361 13.7035 132.632 13.3882 134.149 13.3882V15.4279C134.07 15.4279 133.992 15.4279 133.913 15.4279C133.834 15.4082 133.755 15.3984 133.676 15.3984C132.041 15.3984 130.76 15.9009 129.833 16.906C128.907 17.8914 128.444 19.3005 128.444 21.1334V29.0559H126.345ZM157.372 13.3882C158.633 13.3882 159.727 13.6345 160.653 14.1272C161.599 14.6002 162.328 15.3294 162.841 16.3148C163.373 17.3002 163.639 18.5418 163.639 20.0396V29.0559H161.54V20.2465C161.54 18.6108 161.146 17.379 160.357 16.5513C159.589 15.7038 158.495 15.2801 157.076 15.2801C156.012 15.2801 155.086 15.5068 154.297 15.96C153.529 16.3936 152.928 17.0341 152.494 17.8816C152.08 18.7093 151.873 19.7144 151.873 20.8969V29.0559H149.774V20.2465C149.774 18.6108 149.38 17.379 148.592 16.5513C147.804 15.7038 146.7 15.2801 145.281 15.2801C144.236 15.2801 143.32 15.5068 142.532 15.96C141.743 16.3936 141.132 17.0341 140.699 17.8816C140.285 18.7093 140.078 19.7144 140.078 20.8969V29.0559H137.979V13.536H139.989V17.7338L139.664 16.9947C140.137 15.8714 140.896 14.9944 141.94 14.3637C143.005 13.7134 144.256 13.3882 145.695 13.3882C147.212 13.3882 148.503 13.7725 149.567 14.5411C150.632 15.29 151.321 16.4232 151.637 17.9407L150.809 17.6155C151.262 16.3542 152.06 15.3392 153.203 14.5706C154.366 13.7823 155.756 13.3882 157.372 13.3882ZM179.057 29.0559V25.6267L178.968 25.0651V19.3301C178.968 18.0097 178.593 16.9947 177.845 16.2852C177.115 15.5757 176.022 15.221 174.563 15.221C173.558 15.221 172.602 15.3885 171.696 15.7236C170.789 16.0586 170.021 16.502 169.39 17.0538L168.444 15.4871C169.232 14.817 170.178 14.3046 171.282 13.9498C172.386 13.5754 173.548 13.3882 174.77 13.3882C176.78 13.3882 178.327 13.8907 179.411 14.8958C180.515 15.8812 181.067 17.3889 181.067 19.4188V29.0559H179.057ZM173.706 29.2037C172.543 29.2037 171.528 29.0165 170.661 28.642C169.814 28.2479 169.163 27.7158 168.71 27.0457C168.257 26.3559 168.03 25.5676 168.03 24.6808C168.03 23.8727 168.217 23.1436 168.592 22.4932C168.986 21.8231 169.617 21.291 170.484 20.8969C171.371 20.483 172.553 20.2761 174.031 20.2761H179.382V21.8428H174.09C172.592 21.8428 171.548 22.1089 170.957 22.641C170.385 23.1731 170.099 23.8333 170.099 24.6216C170.099 25.5085 170.444 26.218 171.134 26.7501C171.824 27.2822 172.79 27.5483 174.031 27.5483C175.214 27.5483 176.229 27.2822 177.076 26.7501C177.943 26.1983 178.574 25.41 178.968 24.3851L179.441 25.8337C179.047 26.8585 178.357 27.6764 177.372 28.2873C176.406 28.8982 175.184 29.2037 173.706 29.2037ZM194.69 13.3882C195.951 13.3882 197.055 13.6345 198.001 14.1272C198.967 14.6002 199.716 15.3294 200.248 16.3148C200.8 17.3002 201.076 18.5418 201.076 20.0396V29.0559H198.977V20.2465C198.977 18.6108 198.563 17.379 197.735 16.5513C196.927 15.7038 195.784 15.2801 194.306 15.2801C193.202 15.2801 192.237 15.5068 191.409 15.96C190.601 16.3936 189.97 17.0341 189.517 17.8816C189.083 18.7093 188.867 19.7144 188.867 20.8969V29.0559H186.768V13.536H188.778V17.7929L188.453 16.9947C188.945 15.8714 189.734 14.9944 190.818 14.3637C191.902 13.7134 193.192 13.3882 194.69 13.3882ZM213.189 29.2037C211.652 29.2037 210.273 28.8687 209.051 28.1986C207.849 27.5088 206.903 26.5727 206.213 25.3902C205.523 24.1881 205.178 22.8184 205.178 21.2812C205.178 19.7242 205.523 18.3546 206.213 17.1721C206.903 15.9896 207.849 15.0633 209.051 14.3933C210.273 13.7232 211.652 13.3882 213.189 13.3882C214.51 13.3882 215.702 13.6444 216.766 14.1568C217.831 14.6692 218.668 15.4378 219.279 16.4626L217.712 17.5268C217.18 16.7385 216.52 16.1571 215.732 15.7827C214.943 15.4082 214.086 15.221 213.16 15.221C212.056 15.221 211.061 15.4772 210.174 15.9896C209.287 16.4823 208.588 17.1819 208.075 18.0885C207.563 18.9951 207.307 20.0593 207.307 21.2812C207.307 22.5031 207.563 23.5673 208.075 24.4738C208.588 25.3804 209.287 26.0899 210.174 26.6023C211.061 27.095 212.056 27.3413 213.16 27.3413C214.086 27.3413 214.943 27.1541 215.732 26.7797C216.52 26.4052 217.18 25.8337 217.712 25.0651L219.279 26.1293C218.668 27.1344 217.831 27.903 216.766 28.4351C215.702 28.9475 214.51 29.2037 213.189 29.2037ZM229.735 29.2037C228.119 29.2037 226.7 28.8687 225.478 28.1986C224.256 27.5088 223.3 26.5727 222.61 25.3902C221.921 24.1881 221.576 22.8184 221.576 21.2812C221.576 19.744 221.901 18.3841 222.551 17.2016C223.221 16.0192 224.128 15.0929 225.271 14.4228C226.434 13.7331 227.734 13.3882 229.173 13.3882C230.631 13.3882 231.922 13.7232 233.046 14.3933C234.189 15.0436 235.085 15.9699 235.736 17.1721C236.386 18.3546 236.711 19.7242 236.711 21.2812C236.711 21.3797 236.701 21.4881 236.682 21.6063C236.682 21.7049 236.682 21.8133 236.682 21.9315H223.172V20.3648H235.558L234.731 20.9855C234.731 19.8622 234.484 18.867 233.992 17.9998C233.519 17.113 232.868 16.4232 232.041 15.9305C231.213 15.4378 230.257 15.1914 229.173 15.1914C228.109 15.1914 227.153 15.4378 226.306 15.9305C225.458 16.4232 224.798 17.113 224.325 17.9998C223.852 18.8867 223.615 19.9016 223.615 21.0447V21.3698C223.615 22.5523 223.872 23.5968 224.384 24.5034C224.916 25.3902 225.645 26.0899 226.572 26.6023C227.518 27.095 228.592 27.3413 229.794 27.3413C230.74 27.3413 231.617 27.1738 232.425 26.8388C233.253 26.5037 233.962 25.9913 234.553 25.3016L235.736 26.6614C235.046 27.4891 234.179 28.1198 233.134 28.5534C232.11 28.9869 230.976 29.2037 229.735 29.2037Z" fill="black"/>
<rect x="346.53" y="341.088" width="116.135" height="41.1591" rx="20.5795" fill="#1F409E"/>
<path d="M366.792 374.311V353.618H374.538C376.292 353.618 377.799 353.904 379.061 354.475C380.322 355.027 381.288 355.835 381.958 356.899C382.647 357.944 382.992 359.215 382.992 360.713C382.992 362.171 382.647 363.432 381.958 364.497C381.288 365.541 380.322 366.349 379.061 366.921C377.799 367.492 376.292 367.778 374.538 367.778H368.004L368.98 366.743V374.311H366.792ZM368.98 366.921L368.004 365.856H374.478C376.548 365.856 378.115 365.413 379.179 364.526C380.263 363.62 380.805 362.348 380.805 360.713C380.805 359.057 380.263 357.776 379.179 356.87C378.115 355.963 376.548 355.51 374.478 355.51H368.004L368.98 354.475V366.921ZM386.904 374.311V358.791H388.914V363.018L388.707 362.279C389.14 361.097 389.87 360.2 390.894 359.589C391.919 358.959 393.19 358.643 394.708 358.643V360.683C394.629 360.683 394.55 360.683 394.471 360.683C394.393 360.663 394.314 360.654 394.235 360.654C392.599 360.654 391.318 361.156 390.392 362.161C389.466 363.147 389.003 364.556 389.003 366.388V374.311H386.904ZM404.72 374.459C403.222 374.459 401.872 374.124 400.67 373.454C399.487 372.764 398.551 371.828 397.861 370.645C397.172 369.443 396.827 368.074 396.827 366.536C396.827 364.979 397.172 363.61 397.861 362.427C398.551 361.245 399.487 360.318 400.67 359.648C401.852 358.978 403.202 358.643 404.72 358.643C406.257 358.643 407.617 358.978 408.799 359.648C410.001 360.318 410.938 361.245 411.608 362.427C412.297 363.61 412.642 364.979 412.642 366.536C412.642 368.074 412.297 369.443 411.608 370.645C410.938 371.828 410.001 372.764 408.799 373.454C407.597 374.124 406.237 374.459 404.72 374.459ZM404.72 372.596C405.843 372.596 406.838 372.35 407.705 371.857C408.573 371.345 409.252 370.636 409.745 369.729C410.258 368.803 410.514 367.738 410.514 366.536C410.514 365.314 410.258 364.25 409.745 363.344C409.252 362.437 408.573 361.737 407.705 361.245C406.838 360.732 405.853 360.476 404.749 360.476C403.646 360.476 402.66 360.732 401.793 361.245C400.926 361.737 400.236 362.437 399.724 363.344C399.211 364.25 398.955 365.314 398.955 366.536C398.955 367.738 399.211 368.803 399.724 369.729C400.236 370.636 400.926 371.345 401.793 371.857C402.66 372.35 403.636 372.596 404.72 372.596ZM417.282 374.311V356.84C417.282 355.46 417.686 354.347 418.494 353.5C419.302 352.652 420.465 352.228 421.982 352.228C422.574 352.228 423.145 352.307 423.697 352.465C424.249 352.623 424.712 352.869 425.086 353.204L424.377 354.771C424.081 354.515 423.736 354.327 423.342 354.209C422.948 354.071 422.524 354.002 422.071 354.002C421.184 354.002 420.504 354.248 420.031 354.741C419.558 355.234 419.322 355.963 419.322 356.929V359.294L419.381 360.269V374.311H417.282ZM414.503 360.535V358.791H424.111V360.535H414.503ZM426.949 374.311V358.791H429.048V374.311H426.949ZM428.013 355.362C427.579 355.362 427.215 355.214 426.919 354.919C426.624 354.623 426.476 354.268 426.476 353.854C426.476 353.44 426.624 353.096 426.919 352.82C427.215 352.524 427.579 352.376 428.013 352.376C428.447 352.376 428.811 352.514 429.107 352.79C429.402 353.066 429.55 353.411 429.55 353.825C429.55 354.258 429.402 354.623 429.107 354.919C428.831 355.214 428.466 355.362 428.013 355.362ZM439.849 374.459C438.39 374.459 437.267 374.065 436.479 373.276C435.69 372.488 435.296 371.375 435.296 369.936V355.362H437.395V369.818C437.395 370.724 437.622 371.424 438.075 371.917C438.548 372.409 439.218 372.656 440.085 372.656C441.012 372.656 441.78 372.39 442.391 371.857L443.13 373.365C442.716 373.74 442.214 374.015 441.622 374.193C441.051 374.37 440.46 374.459 439.849 374.459ZM432.517 360.535V358.791H442.125V360.535H432.517Z" fill="#D7DDEF"/>
<defs>
<linearGradient id="paint0_linear_555_611" x1="256.789" y1="35.3351" x2="256.789" y2="329.328" gradientUnits="userSpaceOnUse">
<stop stop-color="#6583D9"/>
<stop offset="1" stop-color="#BBC7E9"/>
</linearGradient>
<clipPath id="clip0_555_611">
<rect x="44.5774" y="33.3751" width="424.422" height="297.913" fill="white"/>
</clipPath>
</defs>
</svg>
