<svg width="356" height="383" viewBox="0 0 356 383" fill="none" xmlns="http://www.w3.org/2000/svg">
<path d="M26.941 365.13L36.9076 351.413V354.724L27.414 341.48H32.3804L39.4414 351.278L37.4143 351.312L44.4078 341.48H49.1715L39.7455 354.487V351.312L49.7796 365.13H44.7119L37.2792 354.724H39.2725L31.9412 365.13H26.941ZM54.8595 365.13L71.0086 341.48H74.3196L58.1704 365.13H54.8595ZM56.819 354.217C55.7154 354.217 54.7356 353.947 53.8797 353.406C53.0238 352.866 52.3594 352.111 51.8864 351.143C51.4134 350.174 51.1769 349.037 51.1769 347.73C51.1769 346.424 51.4134 345.287 51.8864 344.318C52.3594 343.35 53.0238 342.595 53.8797 342.055C54.7356 341.514 55.7154 341.244 56.819 341.244C57.9677 341.244 58.9587 341.514 59.7921 342.055C60.6479 342.595 61.3124 343.35 61.7854 344.318C62.2584 345.287 62.4949 346.424 62.4949 347.73C62.4949 349.037 62.2584 350.174 61.7854 351.143C61.3124 352.111 60.6479 352.866 59.7921 353.406C58.9587 353.947 57.9677 354.217 56.819 354.217ZM56.8528 351.852C57.7537 351.852 58.4519 351.503 58.9474 350.805C59.4655 350.084 59.7245 349.059 59.7245 347.73C59.7245 346.402 59.4655 345.388 58.9474 344.69C58.4519 343.969 57.7537 343.609 56.8528 343.609C55.9518 343.609 55.2311 343.969 54.6905 344.69C54.1725 345.411 53.9135 346.424 53.9135 347.73C53.9135 349.037 54.1725 350.05 54.6905 350.771C55.2311 351.492 55.9518 351.852 56.8528 351.852ZM72.3263 365.366C71.2226 365.366 70.2428 365.096 69.387 364.555C68.5311 364.015 67.8666 363.26 67.3937 362.292C66.9207 361.323 66.6842 360.186 66.6842 358.879C66.6842 357.573 66.9207 356.436 67.3937 355.467C67.8666 354.499 68.5311 353.744 69.387 353.204C70.2428 352.663 71.2226 352.393 72.3263 352.393C73.4749 352.393 74.466 352.663 75.2993 353.204C76.1552 353.744 76.8196 354.499 77.2926 355.467C77.7656 356.436 78.0021 357.573 78.0021 358.879C78.0021 360.186 77.7656 361.323 77.2926 362.292C76.8196 363.26 76.1552 364.015 75.2993 364.555C74.466 365.096 73.4749 365.366 72.3263 365.366ZM72.3263 363.001C73.2272 363.001 73.9367 362.641 74.4547 361.92C74.9727 361.199 75.2317 360.186 75.2317 358.879C75.2317 357.573 74.9727 356.56 74.4547 355.839C73.9367 355.118 73.2272 354.758 72.3263 354.758C71.4478 354.758 70.7384 355.118 70.1978 355.839C69.6798 356.537 69.4208 357.551 69.4208 358.879C69.4208 360.208 69.6798 361.233 70.1978 361.954C70.7384 362.652 71.4478 363.001 72.3263 363.001Z" fill="url(#paint0_linear_555_531)"/>
<path d="M95.3489 365.282C93.9975 365.282 92.7982 364.986 91.7508 364.395C90.7035 363.804 89.8758 362.993 89.2676 361.962C88.6595 360.915 88.3554 359.733 88.3554 358.415C88.3554 357.08 88.6595 355.898 89.2676 354.867C89.8758 353.837 90.7035 353.035 91.7508 352.46C92.7982 351.869 93.9975 351.573 95.3489 351.573C96.6834 351.573 97.8743 351.869 98.9217 352.46C99.9859 353.035 100.814 353.837 101.405 354.867C102.013 355.881 102.317 357.064 102.317 358.415C102.317 359.749 102.013 360.932 101.405 361.962C100.814 362.993 99.9859 363.804 98.9217 364.395C97.8743 364.986 96.6834 365.282 95.3489 365.282ZM95.3489 363.153C96.2104 363.153 96.979 362.959 97.6547 362.57C98.3473 362.182 98.8879 361.633 99.2764 360.923C99.6649 360.197 99.8592 359.361 99.8592 358.415C99.8592 357.452 99.6649 356.624 99.2764 355.932C98.8879 355.222 98.3473 354.673 97.6547 354.285C96.979 353.896 96.2104 353.702 95.3489 353.702C94.4874 353.702 93.7188 353.896 93.0431 354.285C92.3674 354.673 91.8268 355.222 91.4214 355.932C91.016 356.624 90.8133 357.452 90.8133 358.415C90.8133 359.361 91.016 360.197 91.4214 360.923C91.8268 361.633 92.3674 362.182 93.0431 362.57C93.7188 362.959 94.4874 363.153 95.3489 363.153ZM106.036 365.13V350.509C106.036 349.192 106.416 348.144 107.176 347.367C107.953 346.573 109.051 346.176 110.47 346.176C110.994 346.176 111.492 346.244 111.965 346.379C112.455 346.497 112.869 346.692 113.207 346.962L112.472 348.812C112.219 348.609 111.931 348.457 111.61 348.355C111.289 348.237 110.952 348.178 110.597 348.178C109.887 348.178 109.347 348.381 108.975 348.786C108.604 349.175 108.418 349.758 108.418 350.535V352.334L108.468 353.449V365.13H106.036ZM103.755 353.702V351.7H112.32V353.702H103.755ZM122.002 370.197C121.36 370.197 120.735 370.088 120.127 369.868C119.518 369.665 118.995 369.361 118.556 368.956L119.594 367.131C119.932 367.452 120.304 367.697 120.709 367.866C121.115 368.035 121.546 368.12 122.002 368.12C122.593 368.12 123.083 367.968 123.471 367.664C123.86 367.359 124.223 366.819 124.561 366.042L125.397 364.192L125.65 363.888L130.921 351.7H133.303L126.791 366.473C126.402 367.419 125.963 368.162 125.473 368.702C125 369.243 124.476 369.623 123.902 369.843C123.328 370.079 122.694 370.197 122.002 370.197ZM125.194 365.56L119.062 351.7H121.596L126.816 363.66L125.194 365.56ZM140.954 365.282C139.602 365.282 138.403 364.986 137.355 364.395C136.308 363.804 135.48 362.993 134.872 361.962C134.264 360.915 133.96 359.733 133.96 358.415C133.96 357.08 134.264 355.898 134.872 354.867C135.48 353.837 136.308 353.035 137.355 352.46C138.403 351.869 139.602 351.573 140.954 351.573C142.288 351.573 143.479 351.869 144.526 352.46C145.591 353.035 146.418 353.837 147.009 354.867C147.618 355.881 147.922 357.064 147.922 358.415C147.922 359.749 147.618 360.932 147.009 361.962C146.418 362.993 145.591 363.804 144.526 364.395C143.479 364.986 142.288 365.282 140.954 365.282ZM140.954 363.153C141.815 363.153 142.584 362.959 143.259 362.57C143.952 362.182 144.493 361.633 144.881 360.923C145.27 360.197 145.464 359.361 145.464 358.415C145.464 357.452 145.27 356.624 144.881 355.932C144.493 355.222 143.952 354.673 143.259 354.285C142.584 353.896 141.815 353.702 140.954 353.702C140.092 353.702 139.323 353.896 138.648 354.285C137.972 354.673 137.431 355.222 137.026 355.932C136.621 356.624 136.418 357.452 136.418 358.415C136.418 359.361 136.621 360.197 137.026 360.923C137.431 361.633 137.972 362.182 138.648 362.57C139.323 362.959 140.092 363.153 140.954 363.153ZM156.936 365.282C155.788 365.282 154.774 365.071 153.896 364.648C153.034 364.226 152.358 363.584 151.869 362.722C151.396 361.844 151.159 360.746 151.159 359.428V351.7H153.592V359.15C153.592 360.467 153.904 361.456 154.529 362.114C155.171 362.773 156.066 363.103 157.215 363.103C158.06 363.103 158.794 362.934 159.419 362.596C160.045 362.241 160.526 361.734 160.864 361.075C161.202 360.4 161.371 359.589 161.371 358.643V351.7H163.803V365.13H161.497V361.506L161.877 362.469C161.438 363.364 160.779 364.057 159.901 364.547C159.023 365.037 158.034 365.282 156.936 365.282ZM168.434 365.13V351.7H170.765V355.349L170.537 354.437C170.909 353.508 171.534 352.798 172.412 352.308C173.29 351.818 174.372 351.573 175.655 351.573V353.93C175.554 353.913 175.453 353.905 175.351 353.905C175.267 353.905 175.182 353.905 175.098 353.905C173.797 353.905 172.767 354.293 172.007 355.07C171.246 355.847 170.866 356.971 170.866 358.44V365.13H168.434ZM191.51 370.197C190.277 370.197 189.078 370.02 187.912 369.665C186.763 369.327 185.826 368.838 185.099 368.196L186.265 366.321C186.89 366.861 187.659 367.283 188.571 367.587C189.483 367.908 190.437 368.069 191.434 368.069C193.022 368.069 194.188 367.697 194.931 366.954C195.674 366.211 196.046 365.079 196.046 363.559V360.721L196.299 358.06L196.172 355.374V351.7H198.478V363.305C198.478 365.67 197.887 367.41 196.705 368.525C195.522 369.64 193.791 370.197 191.51 370.197ZM191.206 364.572C189.905 364.572 188.74 364.302 187.709 363.761C186.696 363.204 185.885 362.435 185.277 361.456C184.686 360.476 184.39 359.344 184.39 358.06C184.39 356.759 184.686 355.628 185.277 354.665C185.885 353.685 186.696 352.925 187.709 352.384C188.74 351.844 189.905 351.573 191.206 351.573C192.355 351.573 193.402 351.81 194.348 352.283C195.294 352.739 196.046 353.449 196.603 354.411C197.177 355.374 197.465 356.591 197.465 358.06C197.465 359.513 197.177 360.721 196.603 361.684C196.046 362.646 195.294 363.373 194.348 363.863C193.402 364.336 192.355 364.572 191.206 364.572ZM191.485 362.444C192.38 362.444 193.174 362.258 193.867 361.886C194.559 361.515 195.1 360.999 195.488 360.341C195.894 359.682 196.096 358.922 196.096 358.06C196.096 357.199 195.894 356.438 195.488 355.78C195.1 355.121 194.559 354.614 193.867 354.259C193.174 353.888 192.38 353.702 191.485 353.702C190.589 353.702 189.787 353.888 189.078 354.259C188.385 354.614 187.836 355.121 187.431 355.78C187.042 356.438 186.848 357.199 186.848 358.06C186.848 358.922 187.042 359.682 187.431 360.341C187.836 360.999 188.385 361.515 189.078 361.886C189.787 362.258 190.589 362.444 191.485 362.444ZM203.126 365.13V351.7H205.457V355.349L205.229 354.437C205.601 353.508 206.226 352.798 207.104 352.308C207.983 351.818 209.064 351.573 210.348 351.573V353.93C210.246 353.913 210.145 353.905 210.044 353.905C209.959 353.905 209.875 353.905 209.79 353.905C208.489 353.905 207.459 354.293 206.699 355.07C205.939 355.847 205.559 356.971 205.559 358.44V365.13H203.126ZM218.974 365.282C217.622 365.282 216.423 364.986 215.376 364.395C214.328 363.804 213.501 362.993 212.893 361.962C212.284 360.915 211.98 359.733 211.98 358.415C211.98 357.08 212.284 355.898 212.893 354.867C213.501 353.837 214.328 353.035 215.376 352.46C216.423 351.869 217.622 351.573 218.974 351.573C220.308 351.573 221.499 351.869 222.547 352.46C223.611 353.035 224.439 353.837 225.03 354.867C225.638 355.881 225.942 357.064 225.942 358.415C225.942 359.749 225.638 360.932 225.03 361.962C224.439 362.993 223.611 363.804 222.547 364.395C221.499 364.986 220.308 365.282 218.974 365.282ZM218.974 363.153C219.835 363.153 220.604 362.959 221.28 362.57C221.972 362.182 222.513 361.633 222.901 360.923C223.29 360.197 223.484 359.361 223.484 358.415C223.484 357.452 223.29 356.624 222.901 355.932C222.513 355.222 221.972 354.673 221.28 354.285C220.604 353.896 219.835 353.702 218.974 353.702C218.112 353.702 217.344 353.896 216.668 354.285C215.992 354.673 215.452 355.222 215.046 355.932C214.641 356.624 214.438 357.452 214.438 358.415C214.438 359.361 214.641 360.197 215.046 360.923C215.452 361.633 215.992 362.182 216.668 362.57C217.344 362.959 218.112 363.153 218.974 363.153ZM233.158 365.282C232.043 365.282 230.978 365.13 229.965 364.826C228.968 364.522 228.183 364.15 227.608 363.711L228.622 361.785C229.196 362.173 229.906 362.503 230.75 362.773C231.595 363.043 232.456 363.179 233.335 363.179C234.467 363.179 235.278 363.018 235.767 362.697C236.274 362.376 236.528 361.929 236.528 361.354C236.528 360.932 236.376 360.602 236.071 360.366C235.767 360.129 235.362 359.952 234.855 359.834C234.365 359.716 233.816 359.614 233.208 359.53C232.6 359.428 231.992 359.31 231.384 359.175C230.776 359.023 230.218 358.82 229.711 358.567C229.205 358.297 228.799 357.933 228.495 357.477C228.191 357.004 228.039 356.379 228.039 355.602C228.039 354.791 228.267 354.082 228.723 353.474C229.179 352.866 229.821 352.401 230.649 352.08C231.494 351.742 232.49 351.573 233.639 351.573C234.517 351.573 235.404 351.683 236.3 351.903C237.212 352.106 237.955 352.401 238.529 352.79L237.49 354.715C236.882 354.31 236.249 354.031 235.59 353.879C234.931 353.727 234.272 353.651 233.614 353.651C232.549 353.651 231.755 353.829 231.232 354.183C230.708 354.521 230.446 354.96 230.446 355.501C230.446 355.957 230.598 356.312 230.902 356.565C231.223 356.802 231.629 356.987 232.119 357.123C232.625 357.258 233.183 357.376 233.791 357.477C234.399 357.562 235.007 357.68 235.615 357.832C236.223 357.967 236.773 358.162 237.262 358.415C237.769 358.668 238.175 359.023 238.479 359.479C238.8 359.935 238.96 360.543 238.96 361.304C238.96 362.114 238.724 362.815 238.251 363.407C237.778 363.998 237.11 364.462 236.249 364.8C235.387 365.121 234.357 365.282 233.158 365.282ZM245.852 365.282C244.737 365.282 243.672 365.13 242.659 364.826C241.662 364.522 240.877 364.15 240.302 363.711L241.316 361.785C241.89 362.173 242.6 362.503 243.444 362.773C244.289 363.043 245.151 363.179 246.029 363.179C247.161 363.179 247.972 363.018 248.461 362.697C248.968 362.376 249.222 361.929 249.222 361.354C249.222 360.932 249.07 360.602 248.766 360.366C248.461 360.129 248.056 359.952 247.549 359.834C247.059 359.716 246.51 359.614 245.902 359.53C245.294 359.428 244.686 359.31 244.078 359.175C243.47 359.023 242.912 358.82 242.406 358.567C241.899 358.297 241.493 357.933 241.189 357.477C240.885 357.004 240.733 356.379 240.733 355.602C240.733 354.791 240.961 354.082 241.417 353.474C241.873 352.866 242.515 352.401 243.343 352.08C244.188 351.742 245.184 351.573 246.333 351.573C247.211 351.573 248.098 351.683 248.994 351.903C249.906 352.106 250.649 352.401 251.223 352.79L250.185 354.715C249.576 354.31 248.943 354.031 248.284 353.879C247.625 353.727 246.966 353.651 246.308 353.651C245.243 353.651 244.45 353.829 243.926 354.183C243.402 354.521 243.14 354.96 243.14 355.501C243.14 355.957 243.292 356.312 243.596 356.565C243.917 356.802 244.323 356.987 244.813 357.123C245.319 357.258 245.877 357.376 246.485 357.477C247.093 357.562 247.701 357.68 248.309 357.832C248.918 357.967 249.467 358.162 249.956 358.415C250.463 358.668 250.869 359.023 251.173 359.479C251.494 359.935 251.654 360.543 251.654 361.304C251.654 362.114 251.418 362.815 250.945 363.407C250.472 363.998 249.804 364.462 248.943 364.8C248.081 365.121 247.051 365.282 245.852 365.282ZM268.619 365.282C267.504 365.282 266.482 365.028 265.553 364.522C264.641 363.998 263.906 363.229 263.349 362.216C262.808 361.202 262.538 359.935 262.538 358.415C262.538 356.895 262.8 355.628 263.323 354.614C263.864 353.601 264.59 352.84 265.503 352.334C266.432 351.827 267.47 351.573 268.619 351.573C269.937 351.573 271.102 351.861 272.116 352.435C273.129 353.009 273.932 353.812 274.523 354.842C275.114 355.856 275.41 357.047 275.41 358.415C275.41 359.783 275.114 360.983 274.523 362.013C273.932 363.043 273.129 363.846 272.116 364.42C271.102 364.994 269.937 365.282 268.619 365.282ZM261.499 370.045V351.7H263.83V355.324L263.678 358.44L263.932 361.557V370.045H261.499ZM268.416 363.153C269.278 363.153 270.047 362.959 270.722 362.57C271.415 362.182 271.955 361.633 272.344 360.923C272.749 360.197 272.952 359.361 272.952 358.415C272.952 357.452 272.749 356.624 272.344 355.932C271.955 355.222 271.415 354.673 270.722 354.285C270.047 353.896 269.278 353.702 268.416 353.702C267.572 353.702 266.803 353.896 266.111 354.285C265.435 354.673 264.894 355.222 264.489 355.932C264.1 356.624 263.906 357.452 263.906 358.415C263.906 359.361 264.1 360.197 264.489 360.923C264.894 361.633 265.435 362.182 266.111 362.57C266.803 362.959 267.572 363.153 268.416 363.153ZM278.771 365.13V351.7H281.102V355.349L280.874 354.437C281.246 353.508 281.871 352.798 282.749 352.308C283.627 351.818 284.709 351.573 285.992 351.573V353.93C285.891 353.913 285.79 353.905 285.688 353.905C285.604 353.905 285.519 353.905 285.435 353.905C284.134 353.905 283.104 354.293 282.344 355.07C281.583 355.847 281.203 356.971 281.203 358.44V365.13H278.771ZM294.619 365.282C293.267 365.282 292.068 364.986 291.021 364.395C289.973 363.804 289.145 362.993 288.537 361.962C287.929 360.915 287.625 359.733 287.625 358.415C287.625 357.08 287.929 355.898 288.537 354.867C289.145 353.837 289.973 353.035 291.021 352.46C292.068 351.869 293.267 351.573 294.619 351.573C295.953 351.573 297.144 351.869 298.191 352.46C299.256 353.035 300.083 353.837 300.675 354.867C301.283 355.881 301.587 357.064 301.587 358.415C301.587 359.749 301.283 360.932 300.675 361.962C300.083 362.993 299.256 363.804 298.191 364.395C297.144 364.986 295.953 365.282 294.619 365.282ZM294.619 363.153C295.48 363.153 296.249 362.959 296.924 362.57C297.617 362.182 298.158 361.633 298.546 360.923C298.935 360.197 299.129 359.361 299.129 358.415C299.129 357.452 298.935 356.624 298.546 355.932C298.158 355.222 297.617 354.673 296.924 354.285C296.249 353.896 295.48 353.702 294.619 353.702C293.757 353.702 292.988 353.896 292.313 354.285C291.637 354.673 291.097 355.222 290.691 355.932C290.286 356.624 290.083 357.452 290.083 358.415C290.083 359.361 290.286 360.197 290.691 360.923C291.097 361.633 291.637 362.182 292.313 362.57C292.988 362.959 293.757 363.153 294.619 363.153ZM305.306 365.13V350.509C305.306 349.192 305.686 348.144 306.446 347.367C307.223 346.573 308.321 346.176 309.74 346.176C310.264 346.176 310.762 346.244 311.235 346.379C311.725 346.497 312.139 346.692 312.476 346.962L311.742 348.812C311.488 348.609 311.201 348.457 310.88 348.355C310.559 348.237 310.221 348.178 309.867 348.178C309.157 348.178 308.616 348.381 308.245 348.786C307.873 349.175 307.687 349.758 307.687 350.535V352.334L307.738 353.449V365.13H305.306ZM303.025 353.702V351.7H311.59V353.702H303.025ZM313.895 365.13V351.7H316.328V365.13H313.895ZM315.112 349.116C314.639 349.116 314.242 348.964 313.921 348.66C313.617 348.355 313.465 347.984 313.465 347.545C313.465 347.089 313.617 346.708 313.921 346.404C314.242 346.1 314.639 345.948 315.112 345.948C315.585 345.948 315.973 346.1 316.277 346.404C316.598 346.692 316.759 347.055 316.759 347.494C316.759 347.95 316.607 348.339 316.303 348.66C315.998 348.964 315.602 349.116 315.112 349.116ZM325.572 365.282C324.221 365.282 323.174 364.918 322.43 364.192C321.687 363.466 321.315 362.427 321.315 361.075V348.761H323.748V360.974C323.748 361.7 323.925 362.258 324.28 362.646C324.652 363.035 325.175 363.229 325.851 363.229C326.611 363.229 327.245 363.018 327.751 362.596L328.512 364.344C328.14 364.665 327.692 364.902 327.169 365.054C326.662 365.206 326.13 365.282 325.572 365.282ZM319.035 353.702V351.7H327.599V353.702H319.035Z" fill="black"/>
<rect x="1.82213" y="324.124" width="352.63" height="57.012" rx="28.506" stroke="#9FB0E2" stroke-width="2.11155"/>
<rect x="228.664" y="35.3501" width="18.4998" height="80.9366" rx="9.2499" fill="url(#paint1_linear_555_531)"/>
<rect x="262.851" y="53.8496" width="18.4998" height="62.4368" rx="9.2499" fill="url(#paint2_linear_555_531)"/>
<rect x="297.039" y="79.2869" width="18.4998" height="36.9996" rx="9.2499" fill="url(#paint3_linear_555_531)"/>
<rect x="200.478" y="1.22546" width="143.246" height="143.246" rx="71.6232" stroke="#1F409E" stroke-width="2.45091"/>
<g clip-path="url(#clip0_555_531)">
<rect x="7.10083" y="88.6851" width="209.044" height="209.044" rx="104.522" fill="#BBC7E9"/>
<path d="M104.711 188.02C102.928 184.356 105.838 180.151 109.895 180.53L257.193 194.264C261.173 194.635 263.28 199.155 261.005 202.442L178.454 321.723C176.179 325.01 171.207 324.63 169.458 321.036L104.711 188.02Z" fill="url(#paint4_linear_555_531)"/>
<path d="M110.528 183.983C106.515 183.691 104.323 179.165 106.582 175.836L187.895 55.9866C190.153 52.6574 195.169 53.0218 196.923 56.6425L260.059 186.986C261.813 190.607 258.99 194.768 254.977 194.477L110.528 183.983Z" fill="url(#paint5_linear_555_531)"/>
<path d="M97.468 187.153C99.7471 183.838 104.76 184.233 106.492 187.864L168.829 318.592C170.56 322.224 167.711 326.368 163.701 326.052L19.3185 314.673C15.3079 314.357 13.1434 309.818 15.4225 306.502L97.468 187.153Z" fill="url(#paint6_linear_555_531)"/>
</g>
<path d="M204.5 249.976L199.622 239.406C199.473 239.084 199.763 238.734 200.108 238.82L214.632 242.451C215.636 242.702 216.668 242.829 217.704 242.829H322.778C329.775 242.829 335.447 248.501 335.447 255.498V276.614C335.447 283.611 329.775 289.283 322.778 289.283H218.955C212.099 289.283 206.487 283.829 206.291 276.976L205.661 254.923C205.612 253.213 205.217 251.53 204.5 249.976Z" fill="#BBC7E9"/>
<path d="M233.308 274.164V256.427H240.605C242.176 256.427 243.519 256.68 244.634 257.187C245.766 257.693 246.636 258.42 247.244 259.366C247.852 260.312 248.156 261.435 248.156 262.736C248.156 264.037 247.852 265.16 247.244 266.106C246.636 267.052 245.766 267.778 244.634 268.285C243.519 268.792 242.176 269.045 240.605 269.045H235.132L236.602 267.5V274.164H233.308ZM236.602 267.854L235.132 266.258H240.453C241.906 266.258 242.995 265.954 243.722 265.346C244.465 264.721 244.837 263.851 244.837 262.736C244.837 261.604 244.465 260.734 243.722 260.126C242.995 259.518 241.906 259.214 240.453 259.214H235.132L236.602 257.592V267.854ZM251.018 274.164V260.633H254.033V264.358L253.678 263.268C254.084 262.356 254.717 261.663 255.579 261.19C256.457 260.717 257.547 260.481 258.847 260.481V263.496C258.712 263.462 258.586 263.445 258.467 263.445C258.349 263.428 258.231 263.42 258.113 263.42C256.913 263.42 255.959 263.775 255.249 264.484C254.54 265.177 254.185 266.216 254.185 267.601V274.164H251.018ZM267.492 274.341C266.107 274.341 264.874 274.045 263.792 273.454C262.711 272.846 261.858 272.018 261.233 270.971C260.608 269.924 260.296 268.733 260.296 267.398C260.296 266.047 260.608 264.856 261.233 263.825C261.858 262.778 262.711 261.959 263.792 261.368C264.874 260.776 266.107 260.481 267.492 260.481C268.894 260.481 270.135 260.776 271.217 261.368C272.315 261.959 273.168 262.77 273.776 263.8C274.401 264.831 274.713 266.03 274.713 267.398C274.713 268.733 274.401 269.924 273.776 270.971C273.168 272.018 272.315 272.846 271.217 273.454C270.135 274.045 268.894 274.341 267.492 274.341ZM267.492 271.63C268.269 271.63 268.961 271.461 269.57 271.123C270.178 270.785 270.651 270.295 270.989 269.653C271.343 269.011 271.521 268.26 271.521 267.398C271.521 266.52 271.343 265.768 270.989 265.143C270.651 264.501 270.178 264.011 269.57 263.673C268.961 263.336 268.277 263.167 267.517 263.167C266.74 263.167 266.048 263.336 265.439 263.673C264.848 264.011 264.375 264.501 264.02 265.143C263.666 265.768 263.488 266.52 263.488 267.398C263.488 268.26 263.666 269.011 264.02 269.653C264.375 270.295 264.848 270.785 265.439 271.123C266.048 271.461 266.732 271.63 267.492 271.63ZM278.173 274.164V259.873C278.173 258.454 278.587 257.322 279.414 256.477C280.259 255.616 281.458 255.185 283.013 255.185C283.57 255.185 284.094 255.244 284.584 255.362C285.09 255.481 285.513 255.666 285.85 255.92L284.989 258.302C284.752 258.116 284.482 257.981 284.178 257.896C283.874 257.795 283.562 257.744 283.241 257.744C282.582 257.744 282.083 257.93 281.746 258.302C281.408 258.656 281.239 259.197 281.239 259.923V261.444L281.34 262.863V274.164H278.173ZM275.943 263.268V260.734H284.964V263.268H275.943ZM287.193 274.164V260.633H290.361V274.164H287.193ZM288.79 258.403C288.199 258.403 287.709 258.217 287.32 257.845C286.948 257.474 286.763 257.026 286.763 256.503C286.763 255.962 286.948 255.514 287.32 255.16C287.709 254.788 288.199 254.602 288.79 254.602C289.381 254.602 289.862 254.78 290.234 255.134C290.623 255.472 290.817 255.903 290.817 256.427C290.817 256.984 290.631 257.457 290.259 257.845C289.888 258.217 289.398 258.403 288.79 258.403ZM299.612 274.341C298.126 274.341 296.977 273.961 296.166 273.201C295.355 272.424 294.95 271.283 294.95 269.78V257.643H298.117V269.704C298.117 270.346 298.278 270.844 298.599 271.199C298.936 271.554 299.401 271.731 299.992 271.731C300.702 271.731 301.293 271.545 301.766 271.174L302.653 273.429C302.281 273.733 301.825 273.961 301.284 274.113C300.744 274.265 300.186 274.341 299.612 274.341ZM292.72 263.268V260.734H301.741V263.268H292.72Z" fill="url(#paint7_linear_555_531)"/>
<defs>
<linearGradient id="paint0_linear_555_531" x1="178.137" y1="332.13" x2="178.137" y2="373.13" gradientUnits="userSpaceOnUse">
<stop stop-color="#4877DC"/>
<stop offset="1" stop-color="#21C1E8"/>
</linearGradient>
<linearGradient id="paint1_linear_555_531" x1="237.913" y1="35.3501" x2="237.913" y2="116.287" gradientUnits="userSpaceOnUse">
<stop stop-color="#448AC0"/>
<stop offset="1" stop-color="#1062D1"/>
</linearGradient>
<linearGradient id="paint2_linear_555_531" x1="272.1" y1="53.8496" x2="272.1" y2="116.286" gradientUnits="userSpaceOnUse">
<stop stop-color="#448AC0"/>
<stop offset="1" stop-color="#1062D1"/>
</linearGradient>
<linearGradient id="paint3_linear_555_531" x1="306.288" y1="79.2869" x2="306.288" y2="116.286" gradientUnits="userSpaceOnUse">
<stop stop-color="#448AC0"/>
<stop offset="1" stop-color="#1062D1"/>
</linearGradient>
<linearGradient id="paint4_linear_555_531" x1="100.645" y1="179.667" x2="201.364" y2="249.164" gradientUnits="userSpaceOnUse">
<stop stop-color="#3796DF"/>
<stop offset="1" stop-color="#8DC0E8"/>
</linearGradient>
<linearGradient id="paint5_linear_555_531" x1="101.5" y1="183.327" x2="270.821" y2="101.31" gradientUnits="userSpaceOnUse">
<stop stop-color="#055A9B"/>
<stop offset="1" stop-color="#93C6ED"/>
</linearGradient>
<linearGradient id="paint6_linear_555_531" x1="102.596" y1="179.694" x2="87.8142" y2="367.252" gradientUnits="userSpaceOnUse">
<stop offset="0.257344" stop-color="#1F409E"/>
<stop offset="0.704912" stop-color="#6F93FA"/>
</linearGradient>
<linearGradient id="paint7_linear_555_531" x1="267.426" y1="249.164" x2="267.426" y2="280.164" gradientUnits="userSpaceOnUse">
<stop stop-color="#397FB5"/>
<stop offset="1" stop-color="#1364A3"/>
</linearGradient>
<clipPath id="clip0_555_531">
<rect x="7.10083" y="88.6851" width="209.044" height="209.044" rx="104.522" fill="white"/>
</clipPath>
</defs>
</svg>
