<svg width="703" height="841" viewBox="0 0 703 841" fill="none" xmlns="http://www.w3.org/2000/svg">
<rect x="0.875812" y="0.875812" width="644.597" height="803.995" rx="41.1631" stroke="#1F409E" stroke-width="1.75162"/>
<rect x="56.9276" y="35.9083" width="644.597" height="803.995" rx="35.9071" fill="#D7DDEF"/>
<path d="M106.849 352.952C106.849 340.86 116.651 331.057 128.744 331.057C140.836 331.057 150.639 340.86 150.639 352.952V469.435H106.849V352.952Z" fill="url(#paint0_linear_555_449)"/>
<path d="M604.31 197.058C604.31 184.965 614.113 175.163 626.205 175.163C638.298 175.163 648.101 184.965 648.101 197.058V471.187H604.31V197.058Z" fill="url(#paint1_linear_555_449)"/>
<path d="M502.715 222.456C502.715 210.848 512.126 201.437 523.735 201.437C535.344 201.437 544.754 210.848 544.754 222.456V471.187H502.715V222.456Z" fill="url(#paint2_linear_555_449)"/>
<path d="M402.873 471.187H446.664V612.192C446.664 624.285 436.861 634.087 424.768 634.087C412.676 634.087 402.873 624.285 402.873 612.192V471.187Z" fill="url(#paint3_linear_555_449)"/>
<path d="M206.691 295.149C206.691 283.056 216.494 273.253 228.587 273.253C240.679 273.253 250.482 283.056 250.482 295.149V471.187H206.691V295.149Z" fill="url(#paint4_linear_555_449)"/>
<path d="M306.534 471.187H350.324V568.402C350.324 580.494 340.521 590.297 328.429 590.297C316.337 590.297 306.534 580.494 306.534 568.402V471.187Z" fill="url(#paint5_linear_555_449)"/>
<path d="M106.849 471.187L648.1 471.187" stroke="#4CA9D6" stroke-width="6.13048"/>
<path d="M106.849 176.914H648.1" stroke="#4CA9D6" stroke-opacity="0.3" stroke-width="1.75162" stroke-linecap="round"/>
<path d="M106.849 296.024H648.1" stroke="#4CA9D6" stroke-opacity="0.3" stroke-width="1.75162" stroke-linecap="round"/>
<path d="M106.849 415.135H648.1" stroke="#4CA9D6" stroke-opacity="0.3" stroke-width="1.75162" stroke-linecap="round"/>
<path d="M106.849 534.245H648.1" stroke="#4CA9D6" stroke-opacity="0.3" stroke-width="1.75162" stroke-linecap="round"/>
<path d="M106.849 653.356L648.1 651.604" stroke="#4CA9D6" stroke-opacity="0.3" stroke-width="1.75162" stroke-linecap="round"/>
<path d="M107.812 645.378V643.556H112.629V645.378H107.812ZM115.235 649.336V637.075H117.109L124.799 646.516H123.87V637.075H126.13V649.336H124.256L116.566 639.895H117.494V649.336H115.235ZM133.205 646.551V644.975L139.248 637.075H141.683L135.728 644.975L134.589 644.624H144.311V646.551H133.205ZM139.932 649.336V646.551L140.002 644.624V642.155H142.139V649.336H139.932ZM150.384 649.511C149.414 649.511 148.539 649.266 147.756 648.776C146.986 648.285 146.378 647.573 145.935 646.639C145.491 645.693 145.269 644.548 145.269 643.206C145.269 641.863 145.491 640.724 145.935 639.79C146.378 638.844 146.986 638.126 147.756 637.635C148.539 637.145 149.414 636.9 150.384 636.9C151.365 636.9 152.24 637.145 153.011 637.635C153.782 638.126 154.389 638.844 154.833 639.79C155.288 640.724 155.516 641.863 155.516 643.206C155.516 644.548 155.288 645.693 154.833 646.639C154.389 647.573 153.782 648.285 153.011 648.776C152.24 649.266 151.365 649.511 150.384 649.511ZM150.384 647.532C150.956 647.532 151.452 647.38 151.873 647.077C152.293 646.761 152.62 646.283 152.854 645.64C153.099 644.998 153.221 644.186 153.221 643.206C153.221 642.213 153.099 641.401 152.854 640.771C152.62 640.128 152.293 639.656 151.873 639.352C151.452 639.037 150.956 638.879 150.384 638.879C149.835 638.879 149.344 639.037 148.912 639.352C148.492 639.656 148.159 640.128 147.914 640.771C147.68 641.401 147.564 642.213 147.564 643.206C147.564 644.186 147.68 644.998 147.914 645.64C148.159 646.283 148.492 646.761 148.912 647.077C149.344 647.38 149.835 647.532 150.384 647.532ZM157.931 649.336V637.075H159.805L165.165 646.026H164.184L169.456 637.075H171.331L171.348 649.336H169.194L169.176 640.455H169.631L165.147 647.935H164.131L159.577 640.455H160.103V649.336H157.931Z" fill="#141F3F"/>
<rect x="406.376" y="767.211" width="241.588" height="49.0454" rx="24.5227" fill="#141F3F"/>
<path d="M431.81 791.881H440.883V793.451H431.81V791.881ZM432.006 800.734H430.192V783.568H441.962V785.137H432.006V800.734ZM450.232 800.856C449.137 800.856 448.181 800.652 447.363 800.243C446.546 799.835 445.908 799.222 445.45 798.404C445.009 797.587 444.788 796.565 444.788 795.339V787.859H446.529V795.143C446.529 796.516 446.865 797.554 447.535 798.257C448.222 798.944 449.178 799.287 450.404 799.287C451.303 799.287 452.08 799.107 452.734 798.747C453.404 798.371 453.911 797.832 454.254 797.129C454.614 796.426 454.794 795.584 454.794 794.603V787.859H456.535V800.734H454.867V797.202L455.137 797.84C454.728 798.788 454.091 799.532 453.224 800.072C452.374 800.595 451.377 800.856 450.232 800.856ZM461.387 800.734V782.538H463.128V800.734H461.387ZM467.973 800.734V782.538H469.714V800.734H467.973ZM489.045 800.734V797.889L488.971 797.423V792.666C488.971 791.57 488.66 790.728 488.039 790.14C487.434 789.551 486.527 789.257 485.317 789.257C484.483 789.257 483.69 789.396 482.938 789.674C482.186 789.952 481.549 790.32 481.026 790.778L480.241 789.478C480.895 788.922 481.68 788.497 482.595 788.203C483.511 787.892 484.475 787.737 485.489 787.737C487.156 787.737 488.44 788.154 489.339 788.987C490.254 789.805 490.712 791.055 490.712 792.739V800.734H489.045ZM484.606 800.856C483.641 800.856 482.799 800.701 482.08 800.39C481.377 800.063 480.838 799.622 480.462 799.066C480.086 798.494 479.898 797.84 479.898 797.104C479.898 796.434 480.053 795.829 480.364 795.29C480.691 794.734 481.214 794.292 481.933 793.965C482.669 793.622 483.65 793.451 484.876 793.451H489.314V794.75H484.925C483.682 794.75 482.816 794.971 482.325 795.412C481.851 795.854 481.614 796.401 481.614 797.055C481.614 797.791 481.9 798.38 482.473 798.821C483.045 799.262 483.846 799.483 484.876 799.483C485.857 799.483 486.699 799.262 487.402 798.821C488.121 798.363 488.644 797.709 488.971 796.859L489.363 798.061C489.036 798.911 488.464 799.589 487.647 800.096C486.846 800.603 485.832 800.856 484.606 800.856ZM502.013 787.737C503.06 787.737 503.975 787.941 504.76 788.35C505.561 788.742 506.182 789.347 506.624 790.164C507.081 790.982 507.31 792.012 507.31 793.254V800.734H505.569V793.426C505.569 792.069 505.226 791.047 504.539 790.361C503.869 789.658 502.921 789.306 501.694 789.306C500.779 789.306 499.978 789.494 499.291 789.87C498.621 790.23 498.098 790.761 497.722 791.464C497.362 792.151 497.182 792.985 497.182 793.965V800.734H495.441V787.859H497.109V791.391L496.839 790.728C497.248 789.797 497.902 789.069 498.801 788.546C499.7 788.006 500.771 787.737 502.013 787.737ZM520.081 800.734V797.889L520.008 797.423V792.666C520.008 791.57 519.697 790.728 519.076 790.14C518.471 789.551 517.564 789.257 516.354 789.257C515.52 789.257 514.727 789.396 513.975 789.674C513.223 789.952 512.585 790.32 512.062 790.778L511.278 789.478C511.931 788.922 512.716 788.497 513.632 788.203C514.547 787.892 515.512 787.737 516.525 787.737C518.193 787.737 519.476 788.154 520.375 788.987C521.291 789.805 521.749 791.055 521.749 792.739V800.734H520.081ZM515.643 800.856C514.678 800.856 513.836 800.701 513.117 800.39C512.414 800.063 511.874 799.622 511.498 799.066C511.122 798.494 510.934 797.84 510.934 797.104C510.934 796.434 511.09 795.829 511.4 795.29C511.727 794.734 512.25 794.292 512.97 793.965C513.705 793.622 514.686 793.451 515.912 793.451H520.351V794.75H515.961C514.719 794.75 513.852 794.971 513.362 795.412C512.888 795.854 512.651 796.401 512.651 797.055C512.651 797.791 512.937 798.38 513.509 798.821C514.081 799.262 514.882 799.483 515.912 799.483C516.893 799.483 517.735 799.262 518.438 798.821C519.157 798.363 519.681 797.709 520.008 796.859L520.4 798.061C520.073 798.911 519.501 799.589 518.683 800.096C517.882 800.603 516.869 800.856 515.643 800.856ZM526.478 800.734V782.538H528.219V800.734H526.478ZM533.162 805.614C532.557 805.614 531.976 805.516 531.42 805.32C530.881 805.123 530.415 804.829 530.023 804.437L530.832 803.137C531.159 803.448 531.51 803.685 531.886 803.848C532.279 804.028 532.712 804.118 533.186 804.118C533.758 804.118 534.249 803.954 534.657 803.627C535.082 803.317 535.483 802.761 535.859 801.96L536.693 800.072L536.889 799.802L542.186 787.859H543.902L537.453 802.279C537.093 803.112 536.693 803.775 536.251 804.265C535.826 804.755 535.36 805.099 534.854 805.295C534.347 805.508 533.783 805.614 533.162 805.614ZM536.595 801.102L530.66 787.859H532.475L537.723 799.679L536.595 801.102ZM549.669 800.856C548.606 800.856 547.601 800.709 546.652 800.415C545.704 800.104 544.96 799.72 544.421 799.262L545.205 797.889C545.729 798.281 546.399 798.625 547.216 798.919C548.034 799.197 548.892 799.336 549.791 799.336C551.017 799.336 551.9 799.148 552.44 798.772C552.979 798.38 553.249 797.865 553.249 797.227C553.249 796.753 553.094 796.385 552.783 796.123C552.489 795.846 552.096 795.641 551.606 795.51C551.115 795.363 550.568 795.241 549.963 795.143C549.358 795.044 548.753 794.93 548.148 794.799C547.56 794.668 547.02 794.48 546.53 794.235C546.039 793.974 545.639 793.622 545.328 793.181C545.034 792.739 544.887 792.151 544.887 791.415C544.887 790.712 545.083 790.083 545.475 789.527C545.868 788.971 546.44 788.538 547.192 788.227C547.96 787.9 548.892 787.737 549.987 787.737C550.821 787.737 551.655 787.851 552.489 788.08C553.322 788.293 554.009 788.579 554.549 788.938L553.788 790.336C553.216 789.944 552.603 789.666 551.949 789.502C551.295 789.323 550.641 789.233 549.987 789.233C548.827 789.233 547.968 789.437 547.413 789.846C546.873 790.238 546.603 790.745 546.603 791.366C546.603 791.857 546.75 792.241 547.045 792.519C547.355 792.797 547.756 793.017 548.246 793.181C548.753 793.328 549.301 793.451 549.889 793.549C550.494 793.647 551.091 793.769 551.679 793.916C552.284 794.047 552.832 794.235 553.322 794.48C553.829 794.709 554.23 795.044 554.524 795.486C554.835 795.911 554.99 796.475 554.99 797.178C554.99 797.93 554.777 798.584 554.352 799.14C553.944 799.679 553.339 800.104 552.538 800.415C551.753 800.709 550.797 800.856 549.669 800.856ZM558.185 800.734V787.859H559.926V800.734H558.185ZM559.068 785.015C558.708 785.015 558.406 784.892 558.16 784.647C557.915 784.402 557.793 784.107 557.793 783.764C557.793 783.421 557.915 783.135 558.16 782.906C558.406 782.661 558.708 782.538 559.068 782.538C559.427 782.538 559.73 782.652 559.975 782.881C560.22 783.11 560.343 783.396 560.343 783.74C560.343 784.099 560.22 784.402 559.975 784.647C559.746 784.892 559.444 785.015 559.068 785.015ZM568.228 800.856C567.166 800.856 566.16 800.709 565.212 800.415C564.264 800.104 563.52 799.72 562.98 799.262L563.765 797.889C564.288 798.281 564.959 798.625 565.776 798.919C566.593 799.197 567.452 799.336 568.351 799.336C569.577 799.336 570.46 799.148 570.999 798.772C571.539 798.38 571.809 797.865 571.809 797.227C571.809 796.753 571.653 796.385 571.343 796.123C571.048 795.846 570.656 795.641 570.166 795.51C569.675 795.363 569.127 795.241 568.523 795.143C567.918 795.044 567.313 794.93 566.708 794.799C566.119 794.668 565.58 794.48 565.089 794.235C564.599 793.974 564.198 793.622 563.888 793.181C563.593 792.739 563.446 792.151 563.446 791.415C563.446 790.712 563.643 790.083 564.035 789.527C564.427 788.971 564.999 788.538 565.751 788.227C566.52 787.9 567.452 787.737 568.547 787.737C569.381 787.737 570.215 787.851 571.048 788.08C571.882 788.293 572.569 788.579 573.108 788.938L572.348 790.336C571.776 789.944 571.163 789.666 570.509 789.502C569.855 789.323 569.201 789.233 568.547 789.233C567.386 789.233 566.528 789.437 565.972 789.846C565.433 790.238 565.163 790.745 565.163 791.366C565.163 791.857 565.31 792.241 565.604 792.519C565.915 792.797 566.316 793.017 566.806 793.181C567.313 793.328 567.86 793.451 568.449 793.549C569.054 793.647 569.651 793.769 570.239 793.916C570.844 794.047 571.392 794.235 571.882 794.48C572.389 794.709 572.79 795.044 573.084 795.486C573.394 795.911 573.55 796.475 573.55 797.178C573.55 797.93 573.337 798.584 572.912 799.14C572.503 799.679 571.899 800.104 571.097 800.415C570.313 800.709 569.356 800.856 568.228 800.856Z" fill="#D7DDEF"/>
<path d="M602.649 791.734H614.035" stroke="#D7DDEF" stroke-width="1.75162" stroke-linecap="round"/>
<path d="M609.656 786.479L614.416 791.238C614.689 791.512 614.689 791.955 614.416 792.229L609.656 796.988" stroke="#D7DDEF" stroke-width="1.75162" stroke-linecap="round"/>
<circle cx="609.428" cy="791.734" r="16.6404" stroke="#D7DDEF" stroke-width="1.75162"/>
<path d="M117.912 109.83V92.6637H124.975C126.495 92.6637 127.795 92.9089 128.874 93.3994C129.969 93.8898 130.811 94.5928 131.4 95.5083C131.988 96.4238 132.282 97.511 132.282 98.7698C132.282 100.029 131.988 101.116 131.4 102.031C130.811 102.947 129.969 103.65 128.874 104.14C127.795 104.631 126.495 104.876 124.975 104.876H119.678L121.1 103.38V109.83H117.912ZM121.1 103.723L119.678 102.178H124.827C126.233 102.178 127.288 101.884 127.991 101.296C128.71 100.691 129.07 99.8488 129.07 98.7698C129.07 97.6745 128.71 96.8325 127.991 96.244C127.288 95.6555 126.233 95.3612 124.827 95.3612H119.678L121.1 93.7917V103.723ZM135.052 109.83V96.7345H137.97V100.339L137.627 99.2848C138.019 98.402 138.632 97.7317 139.466 97.274C140.316 96.8162 141.371 96.5873 142.629 96.5873V99.5055C142.499 99.4728 142.376 99.4565 142.262 99.4565C142.147 99.4401 142.033 99.432 141.918 99.432C140.758 99.432 139.834 99.7753 139.147 100.462C138.461 101.132 138.117 102.138 138.117 103.478V109.83H135.052ZM150.996 110.001C149.655 110.001 148.462 109.715 147.415 109.143C146.369 108.554 145.543 107.753 144.938 106.74C144.334 105.726 144.031 104.574 144.031 103.282C144.031 101.974 144.334 100.822 144.938 99.8243C145.543 98.8107 146.369 98.0178 147.415 97.4456C148.462 96.8734 149.655 96.5873 150.996 96.5873C152.352 96.5873 153.554 96.8734 154.6 97.4456C155.663 98.0178 156.489 98.8025 157.077 99.7998C157.682 100.797 157.984 101.958 157.984 103.282C157.984 104.574 157.682 105.726 157.077 106.74C156.489 107.753 155.663 108.554 154.6 109.143C153.554 109.715 152.352 110.001 150.996 110.001ZM150.996 107.377C151.748 107.377 152.418 107.214 153.006 106.887C153.595 106.56 154.053 106.086 154.38 105.465C154.723 104.843 154.895 104.116 154.895 103.282C154.895 102.432 154.723 101.704 154.38 101.099C154.053 100.478 153.595 100.004 153.006 99.6772C152.418 99.3502 151.756 99.1867 151.02 99.1867C150.268 99.1867 149.598 99.3502 149.009 99.6772C148.437 100.004 147.979 100.478 147.636 101.099C147.293 101.704 147.121 102.432 147.121 103.282C147.121 104.116 147.293 104.843 147.636 105.465C147.979 106.086 148.437 106.56 149.009 106.887C149.598 107.214 150.26 107.377 150.996 107.377ZM161.333 109.83V95.9988C161.333 94.6255 161.733 93.5302 162.534 92.7127C163.352 91.879 164.512 91.4621 166.016 91.4621C166.556 91.4621 167.063 91.5193 167.537 91.6337C168.027 91.7482 168.436 91.928 168.763 92.1732L167.929 94.4784C167.7 94.2985 167.439 94.1677 167.145 94.086C166.85 93.9879 166.548 93.9389 166.237 93.9389C165.6 93.9389 165.117 94.1187 164.79 94.4784C164.463 94.8217 164.3 95.3448 164.3 96.0478V97.5192L164.398 98.8925V109.83H161.333ZM159.175 99.2848V96.8325H167.905V99.2848H159.175ZM170.063 109.83V96.7345H173.128V109.83H170.063ZM171.608 94.5765C171.035 94.5765 170.561 94.3966 170.185 94.037C169.826 93.6773 169.646 93.2441 169.646 92.7373C169.646 92.2141 169.826 91.7809 170.185 91.4375C170.561 91.0779 171.035 90.898 171.608 90.898C172.18 90.898 172.646 91.0697 173.005 91.413C173.381 91.74 173.569 92.1569 173.569 92.6637C173.569 93.2032 173.39 93.6609 173.03 94.037C172.67 94.3966 172.196 94.5765 171.608 94.5765ZM182.082 110.001C180.643 110.001 179.531 109.633 178.746 108.898C177.962 108.146 177.569 107.042 177.569 105.587V93.8408H180.635V105.514C180.635 106.135 180.79 106.617 181.101 106.96C181.428 107.304 181.877 107.475 182.449 107.475C183.136 107.475 183.708 107.296 184.166 106.936L185.024 109.118C184.665 109.413 184.223 109.633 183.7 109.781C183.177 109.928 182.637 110.001 182.082 110.001ZM175.411 99.2848V96.8325H184.141V99.2848H175.411ZM202.391 109.83V107.181L202.219 106.617V101.982C202.219 101.083 201.95 100.388 201.41 99.8979C200.871 99.3911 200.053 99.1377 198.958 99.1377C198.222 99.1377 197.495 99.2521 196.775 99.481C196.072 99.7099 195.476 100.029 194.985 100.437L193.784 98.2058C194.487 97.6663 195.32 97.2658 196.285 97.0042C197.266 96.7263 198.279 96.5873 199.326 96.5873C201.222 96.5873 202.685 97.0451 203.715 97.9606C204.762 98.8598 205.285 100.258 205.285 102.154V109.83H202.391ZM198.271 110.001C197.29 110.001 196.432 109.838 195.696 109.511C194.961 109.167 194.389 108.702 193.98 108.113C193.587 107.508 193.391 106.83 193.391 106.078C193.391 105.342 193.563 104.68 193.906 104.091C194.266 103.503 194.846 103.037 195.647 102.693C196.448 102.35 197.511 102.178 198.835 102.178H202.636V104.214H199.056C198.01 104.214 197.307 104.386 196.947 104.729C196.587 105.056 196.408 105.465 196.408 105.955C196.408 106.511 196.628 106.952 197.07 107.279C197.511 107.606 198.124 107.77 198.909 107.77C199.661 107.77 200.331 107.598 200.92 107.255C201.525 106.911 201.958 106.405 202.219 105.734L202.734 107.573C202.44 108.342 201.909 108.939 201.14 109.364C200.388 109.789 199.432 110.001 198.271 110.001ZM216.649 96.5873C217.695 96.5873 218.627 96.7917 219.445 97.2004C220.279 97.6091 220.932 98.2385 221.407 99.0886C221.881 99.9224 222.118 101.001 222.118 102.326V109.83H219.052V102.718C219.052 101.557 218.774 100.691 218.219 100.119C217.679 99.5464 216.919 99.2603 215.938 99.2603C215.219 99.2603 214.581 99.4074 214.025 99.7017C213.469 99.996 213.036 100.437 212.726 101.026C212.431 101.598 212.284 102.326 212.284 103.208V109.83H209.219V96.7345H212.137V100.266L211.622 99.1867C212.08 98.353 212.742 97.7154 213.608 97.274C214.491 96.8162 215.505 96.5873 216.649 96.5873ZM231.572 110.001C230.314 110.001 229.177 109.723 228.164 109.167C227.166 108.595 226.382 107.811 225.81 106.813C225.237 105.816 224.951 104.639 224.951 103.282C224.951 101.925 225.237 100.748 225.81 99.7507C226.382 98.7535 227.166 97.9769 228.164 97.4211C229.177 96.8652 230.314 96.5873 231.572 96.5873C232.668 96.5873 233.649 96.8325 234.515 97.323C235.382 97.7971 236.068 98.5246 236.575 99.5055C237.082 100.486 237.335 101.745 237.335 103.282C237.335 104.802 237.09 106.061 236.6 107.059C236.109 108.039 235.431 108.775 234.564 109.266C233.698 109.756 232.7 110.001 231.572 110.001ZM231.94 107.377C232.676 107.377 233.33 107.214 233.902 106.887C234.491 106.56 234.957 106.086 235.3 105.465C235.66 104.843 235.839 104.116 235.839 103.282C235.839 102.432 235.66 101.704 235.3 101.099C234.957 100.478 234.491 100.004 233.902 99.6772C233.33 99.3502 232.676 99.1867 231.94 99.1867C231.205 99.1867 230.542 99.3502 229.954 99.6772C229.382 100.004 228.916 100.478 228.556 101.099C228.213 101.704 228.041 102.432 228.041 103.282C228.041 104.116 228.213 104.843 228.556 105.465C228.916 106.086 229.382 106.56 229.954 106.887C230.542 107.214 231.205 107.377 231.94 107.377ZM235.913 109.83V106.74L236.036 103.257L235.79 99.7753V91.6337H238.831V109.83H235.913ZM249.643 109.83V91.6337H252.708V109.83H249.643ZM262.617 110.001C261.276 110.001 260.083 109.715 259.037 109.143C257.99 108.554 257.165 107.753 256.56 106.74C255.955 105.726 255.653 104.574 255.653 103.282C255.653 101.974 255.955 100.822 256.56 99.8243C257.165 98.8107 257.99 98.0178 259.037 97.4456C260.083 96.8734 261.276 96.5873 262.617 96.5873C263.974 96.5873 265.176 96.8734 266.222 97.4456C267.285 98.0178 268.11 98.8025 268.699 99.7998C269.304 100.797 269.606 101.958 269.606 103.282C269.606 104.574 269.304 105.726 268.699 106.74C268.11 107.753 267.285 108.554 266.222 109.143C265.176 109.715 263.974 110.001 262.617 110.001ZM262.617 107.377C263.369 107.377 264.039 107.214 264.628 106.887C265.216 106.56 265.674 106.086 266.001 105.465C266.344 104.843 266.516 104.116 266.516 103.282C266.516 102.432 266.344 101.704 266.001 101.099C265.674 100.478 265.216 100.004 264.628 99.6772C264.039 99.3502 263.377 99.1867 262.642 99.1867C261.89 99.1867 261.219 99.3502 260.631 99.6772C260.058 100.004 259.601 100.478 259.257 101.099C258.914 101.704 258.742 102.432 258.742 103.282C258.742 104.116 258.914 104.843 259.257 105.465C259.601 106.086 260.058 106.56 260.631 106.887C261.219 107.214 261.881 107.377 262.617 107.377ZM276.583 110.001C275.488 110.001 274.434 109.862 273.42 109.584C272.423 109.29 271.63 108.939 271.041 108.53L272.218 106.2C272.807 106.576 273.51 106.887 274.327 107.132C275.145 107.377 275.962 107.5 276.78 107.5C277.744 107.5 278.439 107.369 278.864 107.108C279.306 106.846 279.526 106.494 279.526 106.053C279.526 105.693 279.379 105.424 279.085 105.244C278.791 105.048 278.406 104.901 277.932 104.802C277.458 104.704 276.927 104.614 276.338 104.533C275.766 104.451 275.186 104.345 274.597 104.214C274.025 104.067 273.502 103.862 273.028 103.601C272.554 103.323 272.169 102.955 271.875 102.497C271.581 102.04 271.434 101.435 271.434 100.683C271.434 99.8488 271.671 99.1295 272.145 98.5246C272.619 97.9034 273.281 97.4293 274.131 97.1023C274.998 96.759 276.019 96.5873 277.197 96.5873C278.079 96.5873 278.97 96.6854 279.87 96.8816C280.769 97.0778 281.513 97.3557 282.101 97.7154L280.924 100.045C280.303 99.669 279.673 99.4156 279.036 99.2848C278.415 99.1377 277.793 99.0641 277.172 99.0641C276.24 99.0641 275.545 99.2031 275.088 99.481C274.646 99.7589 274.425 100.11 274.425 100.535C274.425 100.928 274.573 101.222 274.867 101.418C275.161 101.614 275.545 101.77 276.019 101.884C276.494 101.999 277.017 102.097 277.589 102.178C278.177 102.244 278.758 102.35 279.33 102.497C279.902 102.644 280.425 102.849 280.899 103.11C281.39 103.356 281.782 103.707 282.077 104.165C282.371 104.623 282.518 105.219 282.518 105.955C282.518 106.772 282.273 107.484 281.782 108.088C281.308 108.693 280.63 109.167 279.747 109.511C278.864 109.838 277.81 110.001 276.583 110.001ZM289.204 110.001C288.109 110.001 287.054 109.862 286.041 109.584C285.043 109.29 284.25 108.939 283.662 108.53L284.839 106.2C285.428 106.576 286.131 106.887 286.948 107.132C287.765 107.377 288.583 107.5 289.4 107.5C290.365 107.5 291.06 107.369 291.485 107.108C291.926 106.846 292.147 106.494 292.147 106.053C292.147 105.693 292 105.424 291.705 105.244C291.411 105.048 291.027 104.901 290.553 104.802C290.079 104.704 289.547 104.614 288.959 104.533C288.387 104.451 287.806 104.345 287.218 104.214C286.646 104.067 286.122 103.862 285.648 103.601C285.174 103.323 284.79 102.955 284.496 102.497C284.201 102.04 284.054 101.435 284.054 100.683C284.054 99.8488 284.291 99.1295 284.765 98.5246C285.24 97.9034 285.902 97.4293 286.752 97.1023C287.618 96.759 288.64 96.5873 289.817 96.5873C290.7 96.5873 291.591 96.6854 292.49 96.8816C293.389 97.0778 294.133 97.3557 294.722 97.7154L293.545 100.045C292.923 99.669 292.294 99.4156 291.656 99.2848C291.035 99.1377 290.414 99.0641 289.793 99.0641C288.861 99.0641 288.166 99.2031 287.708 99.481C287.267 99.7589 287.046 100.11 287.046 100.535C287.046 100.928 287.193 101.222 287.487 101.418C287.782 101.614 288.166 101.77 288.64 101.884C289.114 101.999 289.637 102.097 290.21 102.178C290.798 102.244 291.378 102.35 291.951 102.497C292.523 102.644 293.046 102.849 293.52 103.11C294.011 103.356 294.403 103.707 294.697 104.165C294.991 104.623 295.139 105.219 295.139 105.955C295.139 106.772 294.893 107.484 294.403 108.088C293.929 108.693 293.25 109.167 292.368 109.511C291.485 109.838 290.43 110.001 289.204 110.001ZM312.624 109.83V107.181L312.452 106.617V101.982C312.452 101.083 312.182 100.388 311.643 99.8979C311.103 99.3911 310.286 99.1377 309.19 99.1377C308.455 99.1377 307.727 99.2521 307.008 99.481C306.305 99.7099 305.708 100.029 305.218 100.437L304.016 98.2058C304.719 97.6663 305.553 97.2658 306.517 97.0042C307.498 96.7263 308.512 96.5873 309.558 96.5873C311.455 96.5873 312.918 97.0451 313.948 97.9606C314.994 98.8598 315.517 100.258 315.517 102.154V109.83H312.624ZM308.504 110.001C307.523 110.001 306.665 109.838 305.929 109.511C305.193 109.167 304.621 108.702 304.212 108.113C303.82 107.508 303.624 106.83 303.624 106.078C303.624 105.342 303.795 104.68 304.139 104.091C304.498 103.503 305.079 103.037 305.88 102.693C306.681 102.35 307.744 102.178 309.068 102.178H312.869V104.214H309.289C308.242 104.214 307.539 104.386 307.18 104.729C306.82 105.056 306.64 105.465 306.64 105.955C306.64 106.511 306.861 106.952 307.302 107.279C307.744 107.606 308.357 107.77 309.141 107.77C309.893 107.77 310.564 107.598 311.152 107.255C311.757 106.911 312.19 106.405 312.452 105.734L312.967 107.573C312.673 108.342 312.141 108.939 311.373 109.364C310.621 109.789 309.665 110.001 308.504 110.001ZM326.882 96.5873C327.928 96.5873 328.86 96.7917 329.677 97.2004C330.511 97.6091 331.165 98.2385 331.639 99.0886C332.113 99.9224 332.35 101.001 332.35 102.326V109.83H329.285V102.718C329.285 101.557 329.007 100.691 328.451 100.119C327.912 99.5464 327.151 99.2603 326.171 99.2603C325.451 99.2603 324.814 99.4074 324.258 99.7017C323.702 99.996 323.269 100.437 322.958 101.026C322.664 101.598 322.517 102.326 322.517 103.208V109.83H319.451V96.7345H322.37V100.266L321.855 99.1867C322.312 98.353 322.974 97.7154 323.841 97.274C324.724 96.8162 325.737 96.5873 326.882 96.5873ZM344.307 109.83V107.181L344.135 106.617V101.982C344.135 101.083 343.865 100.388 343.326 99.8979C342.786 99.3911 341.969 99.1377 340.874 99.1377C340.138 99.1377 339.41 99.2521 338.691 99.481C337.988 99.7099 337.391 100.029 336.901 100.437L335.699 98.2058C336.402 97.6663 337.236 97.2658 338.201 97.0042C339.182 96.7263 340.195 96.5873 341.241 96.5873C343.138 96.5873 344.601 97.0451 345.631 97.9606C346.677 98.8598 347.201 100.258 347.201 102.154V109.83H344.307ZM340.187 110.001C339.206 110.001 338.348 109.838 337.612 109.511C336.876 109.167 336.304 108.702 335.896 108.113C335.503 107.508 335.307 106.83 335.307 106.078C335.307 105.342 335.479 104.68 335.822 104.091C336.182 103.503 336.762 103.037 337.563 102.693C338.364 102.35 339.427 102.178 340.751 102.178H344.552V104.214H340.972C339.925 104.214 339.222 104.386 338.863 104.729C338.503 105.056 338.323 105.465 338.323 105.955C338.323 106.511 338.544 106.952 338.985 107.279C339.427 107.606 340.04 107.77 340.825 107.77C341.577 107.77 342.247 107.598 342.835 107.255C343.44 106.911 343.874 106.405 344.135 105.734L344.65 107.573C344.356 108.342 343.825 108.939 343.056 109.364C342.304 109.789 341.348 110.001 340.187 110.001ZM351.134 109.83V91.6337H354.2V109.83H351.134ZM359.302 114.759C358.664 114.759 358.027 114.652 357.389 114.44C356.752 114.227 356.22 113.933 355.795 113.557L357.021 111.301C357.332 111.579 357.684 111.8 358.076 111.963C358.468 112.127 358.869 112.208 359.278 112.208C359.833 112.208 360.283 112.069 360.626 111.791C360.97 111.513 361.288 111.048 361.583 110.394L362.343 108.677L362.588 108.309L367.542 96.7345H370.484L364.354 110.884C363.945 111.865 363.487 112.642 362.98 113.214C362.49 113.786 361.934 114.186 361.313 114.415C360.708 114.644 360.038 114.759 359.302 114.759ZM362 110.296L356.09 96.7345H359.278L364.084 108.039L362 110.296ZM376.279 110.001C375.184 110.001 374.129 109.862 373.115 109.584C372.118 109.29 371.325 108.939 370.737 108.53L371.914 106.2C372.502 106.576 373.205 106.887 374.023 107.132C374.84 107.377 375.658 107.5 376.475 107.5C377.44 107.5 378.134 107.369 378.56 107.108C379.001 106.846 379.222 106.494 379.222 106.053C379.222 105.693 379.074 105.424 378.78 105.244C378.486 105.048 378.102 104.901 377.628 104.802C377.154 104.704 376.622 104.614 376.034 104.533C375.461 104.451 374.881 104.345 374.293 104.214C373.72 104.067 373.197 103.862 372.723 103.601C372.249 103.323 371.865 102.955 371.571 102.497C371.276 102.04 371.129 101.435 371.129 100.683C371.129 99.8488 371.366 99.1295 371.84 98.5246C372.314 97.9034 372.977 97.4293 373.827 97.1023C374.693 96.759 375.715 96.5873 376.892 96.5873C377.775 96.5873 378.666 96.6854 379.565 96.8816C380.464 97.0778 381.208 97.3557 381.797 97.7154L380.619 100.045C379.998 99.669 379.369 99.4156 378.731 99.2848C378.11 99.1377 377.489 99.0641 376.867 99.0641C375.936 99.0641 375.241 99.2031 374.783 99.481C374.342 99.7589 374.121 100.11 374.121 100.535C374.121 100.928 374.268 101.222 374.562 101.418C374.857 101.614 375.241 101.77 375.715 101.884C376.189 101.999 376.712 102.097 377.284 102.178C377.873 102.244 378.453 102.35 379.025 102.497C379.598 102.644 380.121 102.849 380.595 103.11C381.085 103.356 381.478 103.707 381.772 104.165C382.066 104.623 382.213 105.219 382.213 105.955C382.213 106.772 381.968 107.484 381.478 108.088C381.004 108.693 380.325 109.167 379.442 109.511C378.56 109.838 377.505 110.001 376.279 110.001ZM384.853 109.83V96.7345H387.919V109.83H384.853ZM386.398 94.5765C385.826 94.5765 385.352 94.3966 384.976 94.037C384.616 93.6773 384.436 93.2441 384.436 92.7373C384.436 92.2141 384.616 91.7809 384.976 91.4375C385.352 91.0779 385.826 90.898 386.398 90.898C386.97 90.898 387.436 91.0697 387.796 91.413C388.172 91.74 388.36 92.1569 388.36 92.6637C388.36 93.2032 388.18 93.6609 387.82 94.037C387.461 94.3966 386.987 94.5765 386.398 94.5765ZM395.988 110.001C394.893 110.001 393.838 109.862 392.825 109.584C391.827 109.29 391.034 108.939 390.446 108.53L391.623 106.2C392.212 106.576 392.915 106.887 393.732 107.132C394.549 107.377 395.367 107.5 396.184 107.5C397.149 107.5 397.844 107.369 398.269 107.108C398.71 106.846 398.931 106.494 398.931 106.053C398.931 105.693 398.784 105.424 398.489 105.244C398.195 105.048 397.811 104.901 397.337 104.802C396.863 104.704 396.331 104.614 395.743 104.533C395.171 104.451 394.59 104.345 394.002 104.214C393.43 104.067 392.906 103.862 392.432 103.601C391.958 103.323 391.574 102.955 391.28 102.497C390.985 102.04 390.838 101.435 390.838 100.683C390.838 99.8488 391.075 99.1295 391.549 98.5246C392.024 97.9034 392.686 97.4293 393.536 97.1023C394.402 96.759 395.424 96.5873 396.601 96.5873C397.484 96.5873 398.375 96.6854 399.274 96.8816C400.173 97.0778 400.917 97.3557 401.506 97.7154L400.329 100.045C399.707 99.669 399.078 99.4156 398.44 99.2848C397.819 99.1377 397.198 99.0641 396.577 99.0641C395.645 99.0641 394.95 99.2031 394.492 99.481C394.051 99.7589 393.83 100.11 393.83 100.535C393.83 100.928 393.977 101.222 394.271 101.418C394.566 101.614 394.95 101.77 395.424 101.884C395.898 101.999 396.421 102.097 396.994 102.178C397.582 102.244 398.162 102.35 398.735 102.497C399.307 102.644 399.83 102.849 400.304 103.11C400.795 103.356 401.187 103.707 401.481 104.165C401.775 104.623 401.923 105.219 401.923 105.955C401.923 106.772 401.677 107.484 401.187 108.088C400.713 108.693 400.034 109.167 399.152 109.511C398.269 109.838 397.214 110.001 395.988 110.001Z" fill="#141F3F"/>
<path d="M117.253 172.895V160.633H119.128L126.817 170.074H125.889V160.633H128.149V172.895H126.274L118.585 163.453H119.513V172.895H117.253ZM137.361 172.895V161.509L138.359 162.542H134.769V160.633H139.638V172.895H137.361ZM147.185 173.07C146.216 173.07 145.34 172.824 144.558 172.334C143.787 171.844 143.18 171.131 142.736 170.197C142.292 169.251 142.07 168.107 142.07 166.764C142.07 165.421 142.292 164.282 142.736 163.348C143.18 162.402 143.787 161.684 144.558 161.194C145.34 160.703 146.216 160.458 147.185 160.458C148.166 160.458 149.042 160.703 149.813 161.194C150.583 161.684 151.191 162.402 151.634 163.348C152.09 164.282 152.317 165.421 152.317 166.764C152.317 168.107 152.09 169.251 151.634 170.197C151.191 171.131 150.583 171.844 149.813 172.334C149.042 172.824 148.166 173.07 147.185 173.07ZM147.185 171.09C147.757 171.09 148.254 170.939 148.674 170.635C149.094 170.32 149.421 169.841 149.655 169.199C149.9 168.556 150.023 167.745 150.023 166.764C150.023 165.771 149.9 164.96 149.655 164.329C149.421 163.687 149.094 163.214 148.674 162.91C148.254 162.595 147.757 162.437 147.185 162.437C146.636 162.437 146.146 162.595 145.714 162.91C145.293 163.214 144.961 163.687 144.715 164.329C144.482 164.96 144.365 165.771 144.365 166.764C144.365 167.745 144.482 168.556 144.715 169.199C144.961 169.841 145.293 170.32 145.714 170.635C146.146 170.939 146.636 171.09 147.185 171.09ZM158.971 173.07C158.002 173.07 157.126 172.824 156.344 172.334C155.573 171.844 154.966 171.131 154.522 170.197C154.078 169.251 153.856 168.107 153.856 166.764C153.856 165.421 154.078 164.282 154.522 163.348C154.966 162.402 155.573 161.684 156.344 161.194C157.126 160.703 158.002 160.458 158.971 160.458C159.952 160.458 160.828 160.703 161.598 161.194C162.369 161.684 162.976 162.402 163.42 163.348C163.876 164.282 164.103 165.421 164.103 166.764C164.103 168.107 163.876 169.251 163.42 170.197C162.976 171.131 162.369 171.844 161.598 172.334C160.828 172.824 159.952 173.07 158.971 173.07ZM158.971 171.09C159.543 171.09 160.039 170.939 160.46 170.635C160.88 170.32 161.207 169.841 161.441 169.199C161.686 168.556 161.809 167.745 161.809 166.764C161.809 165.771 161.686 164.96 161.441 164.329C161.207 163.687 160.88 163.214 160.46 162.91C160.039 162.595 159.543 162.437 158.971 162.437C158.422 162.437 157.932 162.595 157.5 162.91C157.079 163.214 156.746 163.687 156.501 164.329C156.268 164.96 156.151 165.771 156.151 166.764C156.151 167.745 156.268 168.556 156.501 169.199C156.746 169.841 157.079 170.32 157.5 170.635C157.932 170.939 158.422 171.09 158.971 171.09ZM166.518 172.895V160.633H168.392L173.752 169.584H172.771L178.044 160.633H179.918L179.935 172.895H177.781L177.763 164.014H178.219L173.735 171.493H172.719L168.164 164.014H168.69V172.895H166.518Z" fill="#141F3F"/>
<path d="M111.827 724.895C110.731 724.895 109.718 724.682 108.786 724.257C107.87 723.832 107.118 723.219 106.53 722.418L108.345 720.235C108.819 720.889 109.334 721.38 109.889 721.707C110.462 722.034 111.083 722.197 111.753 722.197C113.535 722.197 114.426 721.143 114.426 719.034V710.156H108.32V707.484H117.614V718.862C117.614 720.889 117.115 722.401 116.118 723.399C115.137 724.396 113.707 724.895 111.827 724.895ZM129.859 724.649V722.001L129.688 721.437V716.802C129.688 715.903 129.418 715.208 128.878 714.718C128.339 714.211 127.522 713.958 126.426 713.958C125.691 713.958 124.963 714.072 124.244 714.301C123.541 714.53 122.944 714.848 122.454 715.257L121.252 713.026C121.955 712.486 122.789 712.086 123.753 711.824C124.734 711.546 125.748 711.407 126.794 711.407C128.69 711.407 130.154 711.865 131.184 712.78C132.23 713.68 132.753 715.077 132.753 716.974V724.649H129.859ZM125.74 724.821C124.759 724.821 123.9 724.658 123.165 724.331C122.429 723.987 121.857 723.521 121.448 722.933C121.056 722.328 120.86 721.649 120.86 720.897C120.86 720.162 121.031 719.5 121.375 718.911C121.734 718.323 122.315 717.857 123.116 717.513C123.917 717.17 124.979 716.998 126.304 716.998H130.105V719.034H126.524C125.478 719.034 124.775 719.205 124.415 719.549C124.056 719.876 123.876 720.284 123.876 720.775C123.876 721.331 124.097 721.772 124.538 722.099C124.979 722.426 125.592 722.59 126.377 722.59C127.129 722.59 127.799 722.418 128.388 722.075C128.993 721.731 129.426 721.224 129.688 720.554L130.203 722.393C129.908 723.162 129.377 723.758 128.609 724.183C127.857 724.609 126.9 724.821 125.74 724.821ZM144.117 711.407C145.164 711.407 146.096 711.611 146.913 712.02C147.747 712.429 148.401 713.058 148.875 713.908C149.349 714.742 149.586 715.821 149.586 717.145V724.649H146.521V717.538C146.521 716.377 146.243 715.511 145.687 714.938C145.147 714.366 144.387 714.08 143.406 714.08C142.687 714.08 142.049 714.227 141.493 714.522C140.938 714.816 140.504 715.257 140.194 715.846C139.9 716.418 139.752 717.145 139.752 718.028V724.649H136.687V711.554H139.605V715.086L139.09 714.007C139.548 713.173 140.21 712.535 141.077 712.094C141.959 711.636 142.973 711.407 144.117 711.407Z" fill="#141F3F"/>
<path d="M207.722 715.38H216.281V718.077H207.722V715.38ZM207.992 724.649H204.804V707.484H217.335V710.156H207.992V724.649ZM225.92 724.821C224.465 724.821 223.19 724.535 222.094 723.963C221.015 723.374 220.173 722.573 219.569 721.56C218.98 720.546 218.686 719.393 218.686 718.102C218.686 716.794 218.972 715.641 219.544 714.644C220.133 713.631 220.934 712.838 221.947 712.265C222.977 711.693 224.146 711.407 225.454 711.407C226.729 711.407 227.865 711.685 228.863 712.241C229.86 712.797 230.645 713.581 231.217 714.595C231.789 715.609 232.075 716.802 232.075 718.175C232.075 718.306 232.067 718.453 232.051 718.617C232.051 718.78 232.042 718.936 232.026 719.083H221.113V717.047H230.408L229.206 717.685C229.222 716.933 229.067 716.271 228.74 715.699C228.413 715.126 227.964 714.677 227.391 714.35C226.835 714.023 226.19 713.859 225.454 713.859C224.702 713.859 224.04 714.023 223.468 714.35C222.912 714.677 222.47 715.135 222.143 715.723C221.833 716.295 221.678 716.974 221.678 717.759V718.249C221.678 719.034 221.857 719.729 222.217 720.333C222.577 720.938 223.083 721.404 223.737 721.731C224.391 722.058 225.143 722.222 225.994 722.222C226.729 722.222 227.391 722.107 227.98 721.878C228.568 721.649 229.092 721.29 229.549 720.799L231.192 722.688C230.604 723.374 229.86 723.906 228.961 724.282C228.078 724.641 227.064 724.821 225.92 724.821ZM242.278 724.821C241.167 724.821 240.178 724.576 239.311 724.085C238.445 723.595 237.758 722.859 237.251 721.878C236.761 720.881 236.515 719.622 236.515 718.102C236.515 716.565 236.769 715.306 237.276 714.325C237.799 713.344 238.494 712.617 239.36 712.143C240.243 711.652 241.216 711.407 242.278 711.407C243.57 711.407 244.706 711.685 245.687 712.241C246.684 712.797 247.469 713.573 248.041 714.571C248.63 715.568 248.924 716.745 248.924 718.102C248.924 719.459 248.63 720.636 248.041 721.633C247.469 722.63 246.684 723.415 245.687 723.987C244.706 724.543 243.57 724.821 242.278 724.821ZM235.02 724.649V706.454H238.085V714.595L237.84 718.077L237.938 721.56V724.649H235.02ZM241.935 722.197C242.671 722.197 243.325 722.034 243.897 721.707C244.485 721.38 244.951 720.906 245.295 720.284C245.638 719.663 245.81 718.936 245.81 718.102C245.81 717.252 245.638 716.524 245.295 715.919C244.951 715.298 244.485 714.824 243.897 714.497C243.325 714.17 242.671 714.007 241.935 714.007C241.199 714.007 240.537 714.17 239.949 714.497C239.36 714.824 238.894 715.298 238.551 715.919C238.208 716.524 238.036 717.252 238.036 718.102C238.036 718.936 238.208 719.663 238.551 720.284C238.894 720.906 239.36 721.38 239.949 721.707C240.537 722.034 241.199 722.197 241.935 722.197Z" fill="#141F3F"/>
<path d="M303.455 724.649V707.484H306.078L313.582 720.015H312.209L319.591 707.484H322.214L322.239 724.649H319.223L319.198 712.216H319.836L313.558 722.688H312.136L305.76 712.216H306.495V724.649H303.455ZM334.649 724.649V722.001L334.478 721.437V716.802C334.478 715.903 334.208 715.208 333.668 714.718C333.129 714.211 332.312 713.958 331.216 713.958C330.481 713.958 329.753 714.072 329.034 714.301C328.331 714.53 327.734 714.848 327.244 715.257L326.042 713.026C326.745 712.486 327.579 712.086 328.543 711.824C329.524 711.546 330.538 711.407 331.584 711.407C333.48 711.407 334.944 711.865 335.974 712.78C337.02 713.68 337.543 715.077 337.543 716.974V724.649H334.649ZM330.53 724.821C329.549 724.821 328.69 724.658 327.955 724.331C327.219 723.987 326.647 723.521 326.238 722.933C325.846 722.328 325.65 721.649 325.65 720.897C325.65 720.162 325.821 719.5 326.165 718.911C326.524 718.323 327.105 717.857 327.906 717.513C328.707 717.17 329.769 716.998 331.094 716.998H334.895V719.034H331.314C330.268 719.034 329.565 719.205 329.205 719.549C328.846 719.876 328.666 720.284 328.666 720.775C328.666 721.331 328.887 721.772 329.328 722.099C329.769 722.426 330.382 722.59 331.167 722.59C331.919 722.59 332.589 722.418 333.178 722.075C333.783 721.731 334.216 721.224 334.478 720.554L334.993 722.393C334.698 723.162 334.167 723.758 333.399 724.183C332.647 724.609 331.69 724.821 330.53 724.821ZM341.477 724.649V711.554H344.395V715.159L344.052 714.105C344.444 713.222 345.057 712.552 345.891 712.094C346.741 711.636 347.796 711.407 349.055 711.407V714.325C348.924 714.293 348.801 714.276 348.687 714.276C348.572 714.26 348.458 714.252 348.343 714.252C347.183 714.252 346.259 714.595 345.572 715.282C344.886 715.952 344.542 716.957 344.542 718.298V724.649H341.477Z" fill="#141F3F"/>
<path d="M400.677 724.649L408.402 707.484H411.541L419.29 724.649H415.955L409.309 709.176H410.584L403.963 724.649H400.677ZM404.233 720.677L405.091 718.175H414.361L415.219 720.677H404.233ZM428.437 724.821C427.375 724.821 426.402 724.576 425.519 724.085C424.653 723.595 423.958 722.859 423.435 721.878C422.928 720.881 422.675 719.622 422.675 718.102C422.675 716.565 422.92 715.306 423.41 714.325C423.917 713.344 424.604 712.617 425.47 712.143C426.337 711.652 427.326 711.407 428.437 711.407C429.729 711.407 430.865 711.685 431.846 712.241C432.843 712.797 433.628 713.573 434.2 714.571C434.789 715.568 435.083 716.745 435.083 718.102C435.083 719.459 434.789 720.644 434.2 721.658C433.628 722.655 432.843 723.431 431.846 723.987C430.865 724.543 429.729 724.821 428.437 724.821ZM421.179 729.407V711.554H424.097V714.644L423.999 718.126L424.244 721.609V729.407H421.179ZM428.094 722.197C428.83 722.197 429.484 722.034 430.056 721.707C430.645 721.38 431.11 720.906 431.454 720.284C431.797 719.663 431.969 718.936 431.969 718.102C431.969 717.252 431.797 716.524 431.454 715.919C431.11 715.298 430.645 714.824 430.056 714.497C429.484 714.17 428.83 714.007 428.094 714.007C427.358 714.007 426.696 714.17 426.108 714.497C425.519 714.824 425.053 715.298 424.71 715.919C424.367 716.524 424.195 717.252 424.195 718.102C424.195 718.936 424.367 719.663 424.71 720.284C425.053 720.906 425.519 721.38 426.108 721.707C426.696 722.034 427.358 722.197 428.094 722.197ZM437.99 724.649V711.554H440.908V715.159L440.565 714.105C440.957 713.222 441.571 712.552 442.404 712.094C443.254 711.636 444.309 711.407 445.568 711.407V714.325C445.437 714.293 445.314 714.276 445.2 714.276C445.085 714.26 444.971 714.252 444.857 714.252C443.696 714.252 442.772 714.595 442.086 715.282C441.399 715.952 441.056 716.957 441.056 718.298V724.649H437.99Z" fill="#141F3F"/>
<path d="M499.755 724.649V707.484H502.379L509.883 720.015H508.509L515.891 707.484H518.515L518.539 724.649H515.523L515.498 712.216H516.136L509.858 722.688H508.436L502.06 712.216H502.796V724.649H499.755ZM530.95 724.649V722.001L530.778 721.437V716.802C530.778 715.903 530.508 715.208 529.969 714.718C529.429 714.211 528.612 713.958 527.516 713.958C526.781 713.958 526.053 714.072 525.334 714.301C524.631 714.53 524.034 714.848 523.544 715.257L522.342 713.026C523.045 712.486 523.879 712.086 524.844 711.824C525.824 711.546 526.838 711.407 527.884 711.407C529.781 711.407 531.244 711.865 532.274 712.78C533.32 713.68 533.843 715.077 533.843 716.974V724.649H530.95ZM526.83 724.821C525.849 724.821 524.991 724.658 524.255 724.331C523.519 723.987 522.947 723.521 522.538 722.933C522.146 722.328 521.95 721.649 521.95 720.897C521.95 720.162 522.121 719.5 522.465 718.911C522.824 718.323 523.405 717.857 524.206 717.513C525.007 717.17 526.07 716.998 527.394 716.998H531.195V719.034H527.615C526.568 719.034 525.865 719.205 525.506 719.549C525.146 719.876 524.966 720.284 524.966 720.775C524.966 721.331 525.187 721.772 525.628 722.099C526.07 722.426 526.683 722.59 527.467 722.59C528.219 722.59 528.89 722.418 529.478 722.075C530.083 721.731 530.516 721.224 530.778 720.554L531.293 722.393C530.999 723.162 530.467 723.758 529.699 724.183C528.947 724.609 527.991 724.821 526.83 724.821ZM538.617 729.578C537.979 729.578 537.342 729.472 536.704 729.26C536.066 729.047 535.535 728.753 535.11 728.377L536.336 726.121C536.647 726.399 536.998 726.619 537.391 726.783C537.783 726.946 538.184 727.028 538.592 727.028C539.148 727.028 539.598 726.889 539.941 726.611C540.284 726.333 540.603 725.867 540.897 725.213L541.658 723.497L541.903 723.129L546.856 711.554H549.799L543.669 725.704C543.26 726.685 542.802 727.461 542.295 728.034C541.805 728.606 541.249 729.006 540.628 729.235C540.023 729.464 539.353 729.578 538.617 729.578ZM541.314 725.115L535.404 711.554H538.592L543.399 722.859L541.314 725.115Z" fill="#141F3F"/>
<path d="M606.078 724.895C604.983 724.895 603.969 724.682 603.037 724.257C602.122 723.832 601.37 723.219 600.781 722.418L602.596 720.235C603.07 720.889 603.585 721.38 604.141 721.707C604.713 722.034 605.334 722.197 606.005 722.197C607.787 722.197 608.678 721.143 608.678 719.034V710.156H602.571V707.484H611.866V718.862C611.866 720.889 611.367 722.401 610.37 723.399C609.389 724.396 607.958 724.895 606.078 724.895ZM621.585 724.821C620.473 724.821 619.492 724.617 618.642 724.208C617.792 723.783 617.13 723.145 616.656 722.295C616.182 721.429 615.945 720.342 615.945 719.034V711.554H619.01V718.617C619.01 719.794 619.272 720.677 619.795 721.265C620.334 721.837 621.095 722.124 622.075 722.124C622.795 722.124 623.416 721.976 623.939 721.682C624.479 721.388 624.896 720.946 625.19 720.358C625.5 719.769 625.656 719.042 625.656 718.175V711.554H628.721V724.649H625.803V721.118L626.318 722.197C625.876 723.047 625.231 723.701 624.381 724.159C623.53 724.6 622.599 724.821 621.585 724.821ZM640.165 711.407C641.211 711.407 642.143 711.611 642.961 712.02C643.794 712.429 644.448 713.058 644.922 713.908C645.397 714.742 645.634 715.821 645.634 717.145V724.649H642.568V717.538C642.568 716.377 642.29 715.511 641.734 714.938C641.195 714.366 640.435 714.08 639.454 714.08C638.734 714.08 638.097 714.227 637.541 714.522C636.985 714.816 636.552 715.257 636.241 715.846C635.947 716.418 635.8 717.145 635.8 718.028V724.649H632.735V711.554H635.653V715.086L635.138 714.007C635.596 713.173 636.258 712.535 637.124 712.094C638.007 711.636 639.021 711.407 640.165 711.407Z" fill="#141F3F"/>
<path d="M530.493 110.075C528.94 110.075 527.607 109.748 526.496 109.094C525.384 108.424 524.534 107.459 523.945 106.2C523.357 104.941 523.062 103.388 523.062 101.541C523.062 99.5791 523.414 97.9197 524.117 96.5628C524.836 95.2059 525.825 94.1759 527.084 93.4729C528.359 92.7699 529.822 92.4185 531.474 92.4185C532.34 92.4185 533.166 92.5084 533.95 92.6882C534.752 92.868 535.43 93.146 535.986 93.522L534.809 95.9252C534.335 95.6146 533.82 95.4021 533.264 95.2876C532.724 95.1568 532.152 95.0914 531.547 95.0914C529.929 95.0914 528.645 95.5901 527.697 96.5873C526.749 97.5846 526.275 99.0559 526.275 101.001C526.275 101.312 526.283 101.68 526.299 102.105C526.316 102.514 526.373 102.931 526.471 103.356L525.49 102.277C525.784 101.606 526.185 101.05 526.692 100.609C527.215 100.151 527.828 99.808 528.531 99.5791C529.25 99.3502 530.027 99.2358 530.861 99.2358C531.989 99.2358 532.994 99.4565 533.877 99.8979C534.76 100.323 535.463 100.936 535.986 101.737C536.509 102.522 536.771 103.446 536.771 104.508C536.771 105.636 536.493 106.617 535.937 107.451C535.381 108.285 534.629 108.93 533.681 109.388C532.733 109.846 531.67 110.075 530.493 110.075ZM530.321 107.573C530.975 107.573 531.555 107.459 532.062 107.23C532.569 106.985 532.961 106.642 533.239 106.2C533.534 105.759 533.681 105.244 533.681 104.655C533.681 103.756 533.37 103.045 532.749 102.522C532.128 101.999 531.294 101.737 530.248 101.737C529.561 101.737 528.956 101.868 528.433 102.129C527.926 102.375 527.517 102.718 527.207 103.159C526.912 103.601 526.765 104.108 526.765 104.68C526.765 105.203 526.904 105.685 527.182 106.127C527.46 106.568 527.861 106.92 528.384 107.181C528.923 107.443 529.569 107.573 530.321 107.573ZM562.674 96.5873C563.721 96.5873 564.644 96.7917 565.446 97.2004C566.263 97.6091 566.901 98.2385 567.358 99.0886C567.816 99.9224 568.045 101.001 568.045 102.326V109.83H564.98V102.718C564.98 101.557 564.726 100.691 564.219 100.119C563.713 99.5464 562.985 99.2603 562.037 99.2603C561.367 99.2603 560.77 99.4074 560.247 99.7017C559.74 99.996 559.339 100.429 559.045 101.001C558.767 101.574 558.628 102.301 558.628 103.184V109.83H555.563V102.718C555.563 101.557 555.309 100.691 554.803 100.119C554.296 99.5464 553.568 99.2603 552.62 99.2603C551.95 99.2603 551.353 99.4074 550.83 99.7017C550.323 99.996 549.923 100.429 549.628 101.001C549.35 101.574 549.211 102.301 549.211 103.184V109.83H546.146V96.7345H549.064V100.217L548.549 99.1867C548.991 98.3366 549.628 97.6908 550.462 97.2494C551.312 96.808 552.277 96.5873 553.356 96.5873C554.582 96.5873 555.645 96.8898 556.544 97.4947C557.459 98.0996 558.064 99.0151 558.358 100.241L557.157 99.8243C557.582 98.8434 558.285 98.0587 559.266 97.4701C560.247 96.8816 561.383 96.5873 562.674 96.5873ZM577.871 110.001C576.531 110.001 575.337 109.715 574.291 109.143C573.245 108.554 572.419 107.753 571.814 106.74C571.209 105.726 570.907 104.574 570.907 103.282C570.907 101.974 571.209 100.822 571.814 99.8243C572.419 98.8107 573.245 98.0178 574.291 97.4456C575.337 96.8734 576.531 96.5873 577.871 96.5873C579.228 96.5873 580.43 96.8734 581.476 97.4456C582.539 98.0178 583.365 98.8025 583.953 99.7998C584.558 100.797 584.86 101.958 584.86 103.282C584.86 104.574 584.558 105.726 583.953 106.74C583.365 107.753 582.539 108.554 581.476 109.143C580.43 109.715 579.228 110.001 577.871 110.001ZM577.871 107.377C578.623 107.377 579.294 107.214 579.882 106.887C580.471 106.56 580.929 106.086 581.256 105.465C581.599 104.843 581.771 104.116 581.771 103.282C581.771 102.432 581.599 101.704 581.256 101.099C580.929 100.478 580.471 100.004 579.882 99.6772C579.294 99.3502 578.632 99.1867 577.896 99.1867C577.144 99.1867 576.474 99.3502 575.885 99.6772C575.313 100.004 574.855 100.478 574.512 101.099C574.169 101.704 573.997 102.432 573.997 103.282C573.997 104.116 574.169 104.843 574.512 105.465C574.855 106.086 575.313 106.56 575.885 106.887C576.474 107.214 577.136 107.377 577.871 107.377ZM595.222 96.5873C596.268 96.5873 597.2 96.7917 598.018 97.2004C598.851 97.6091 599.505 98.2385 599.979 99.0886C600.454 99.9224 600.691 101.001 600.691 102.326V109.83H597.625V102.718C597.625 101.557 597.347 100.691 596.792 100.119C596.252 99.5464 595.492 99.2603 594.511 99.2603C593.792 99.2603 593.154 99.4074 592.598 99.7017C592.042 99.996 591.609 100.437 591.298 101.026C591.004 101.598 590.857 102.326 590.857 103.208V109.83H587.792V96.7345H590.71V100.266L590.195 99.1867C590.653 98.353 591.315 97.7154 592.181 97.274C593.064 96.8162 594.078 96.5873 595.222 96.5873ZM609.508 110.001C608.07 110.001 606.958 109.633 606.173 108.898C605.388 108.146 604.996 107.042 604.996 105.587V93.8408H608.061V105.514C608.061 106.135 608.217 106.617 608.527 106.96C608.854 107.304 609.304 107.475 609.876 107.475C610.563 107.475 611.135 107.296 611.593 106.936L612.451 109.118C612.091 109.413 611.65 109.633 611.127 109.781C610.604 109.928 610.064 110.001 609.508 110.001ZM602.838 99.2848V96.8325H611.568V99.2848H602.838ZM622.403 96.5873C623.449 96.5873 624.381 96.7917 625.199 97.2004C626.032 97.6091 626.686 98.2385 627.16 99.0886C627.635 99.9224 627.872 101.001 627.872 102.326V109.83H624.806V102.718C624.806 101.557 624.528 100.691 623.972 100.119C623.433 99.5464 622.673 99.2603 621.692 99.2603C620.973 99.2603 620.335 99.4074 619.779 99.7017C619.223 99.996 618.79 100.437 618.479 101.026C618.185 101.598 618.038 102.326 618.038 103.208V109.83H614.973V91.6337H618.038V100.266L617.376 99.1867C617.834 98.353 618.496 97.7154 619.362 97.274C620.245 96.8162 621.259 96.5873 622.403 96.5873ZM635.806 110.001C634.711 110.001 633.657 109.862 632.643 109.584C631.646 109.29 630.853 108.939 630.264 108.53L631.441 106.2C632.03 106.576 632.733 106.887 633.55 107.132C634.368 107.377 635.185 107.5 636.003 107.5C636.967 107.5 637.662 107.369 638.087 107.108C638.528 106.846 638.749 106.494 638.749 106.053C638.749 105.693 638.602 105.424 638.308 105.244C638.013 105.048 637.629 104.901 637.155 104.802C636.681 104.704 636.15 104.614 635.561 104.533C634.989 104.451 634.409 104.345 633.82 104.214C633.248 104.067 632.725 103.862 632.251 103.601C631.776 103.323 631.392 102.955 631.098 102.497C630.804 102.04 630.657 101.435 630.657 100.683C630.657 99.8488 630.894 99.1295 631.368 98.5246C631.842 97.9034 632.504 97.4293 633.354 97.1023C634.221 96.759 635.242 96.5873 636.419 96.5873C637.302 96.5873 638.193 96.6854 639.092 96.8816C639.992 97.0778 640.735 97.3557 641.324 97.7154L640.147 100.045C639.526 99.669 638.896 99.4156 638.259 99.2848C637.637 99.1377 637.016 99.0641 636.395 99.0641C635.463 99.0641 634.768 99.2031 634.311 99.481C633.869 99.7589 633.648 100.11 633.648 100.535C633.648 100.928 633.796 101.222 634.09 101.418C634.384 101.614 634.768 101.77 635.242 101.884C635.716 101.999 636.24 102.097 636.812 102.178C637.4 102.244 637.981 102.35 638.553 102.497C639.125 102.644 639.648 102.849 640.122 103.11C640.613 103.356 641.005 103.707 641.299 104.165C641.594 104.623 641.741 105.219 641.741 105.955C641.741 106.772 641.496 107.484 641.005 108.088C640.531 108.693 639.853 109.167 638.97 109.511C638.087 109.838 637.033 110.001 635.806 110.001Z" fill="#141F3F"/>
<path d="M107.725 371.344L114.754 356.175C121.026 342.64 131.092 331.217 143.73 323.292V323.292C186.316 296.585 242.658 317.144 258.036 365.001L320.976 560.873C326.301 577.444 338.105 591.154 353.7 598.881V598.881C390.901 617.314 435.567 596.254 445.015 555.827L509.419 280.253C514.647 257.883 528.801 238.627 548.59 226.959L634.963 176.038" stroke="#1F409E" stroke-width="1.75162" stroke-linecap="round" stroke-dasharray="3.5 3.5"/>
<rect x="56.9276" y="35.9083" width="644.597" height="803.995" rx="35.9071" stroke="#1F409E" stroke-width="1.75162"/>
<defs>
<linearGradient id="paint0_linear_555_449" x1="128.744" y1="331.057" x2="128.744" y2="469.435" gradientUnits="userSpaceOnUse">
<stop stop-color="#BBC7E9"/>
<stop offset="1" stop-color="#8BA4ED"/>
</linearGradient>
<linearGradient id="paint1_linear_555_449" x1="626.205" y1="175.163" x2="626.205" y2="471.187" gradientUnits="userSpaceOnUse">
<stop stop-color="#BBC7E9"/>
<stop offset="1" stop-color="#8BA4ED"/>
</linearGradient>
<linearGradient id="paint2_linear_555_449" x1="523.735" y1="201.437" x2="523.735" y2="471.187" gradientUnits="userSpaceOnUse">
<stop stop-color="#BBC7E9"/>
<stop offset="1" stop-color="#8BA4ED"/>
</linearGradient>
<linearGradient id="paint3_linear_555_449" x1="424.768" y1="471.187" x2="424.768" y2="634.087" gradientUnits="userSpaceOnUse">
<stop stop-color="#BBC7E9"/>
<stop offset="1" stop-color="#8BA4ED"/>
</linearGradient>
<linearGradient id="paint4_linear_555_449" x1="228.587" y1="273.253" x2="228.587" y2="471.187" gradientUnits="userSpaceOnUse">
<stop stop-color="#BBC7E9"/>
<stop offset="1" stop-color="#8BA4ED"/>
</linearGradient>
<linearGradient id="paint5_linear_555_449" x1="328.429" y1="471.187" x2="328.429" y2="590.297" gradientUnits="userSpaceOnUse">
<stop stop-color="#BBC7E9"/>
<stop offset="1" stop-color="#8BA4ED"/>
</linearGradient>
</defs>
</svg>
