<svg width="325" height="422" viewBox="0 0 325 422" fill="none" xmlns="http://www.w3.org/2000/svg">
<rect x="1.16571" y="15.1657" width="321.737" height="405.669" rx="54.7886" stroke="url(#paint0_linear_550_56)" stroke-width="2.33143"/>
<rect x="23.3145" y="160.88" width="52.1284" height="52.1284" rx="17.3761" fill="#9FB0E2"/>
<path d="M48.4323 200.396V178.248L49.8753 179.825H43.13V176.905H51.7546V200.396H48.4323Z" fill="#424345"/>
<rect x="98.7573" y="160.88" width="52.1284" height="52.1284" rx="17.3761" fill="#9FB0E2"/>
<path d="M115.202 200.396V198.114L124.767 188.886C125.617 188.08 126.243 187.375 126.646 186.771C127.071 186.145 127.351 185.574 127.485 185.06C127.641 184.523 127.72 184.008 127.72 183.516C127.72 182.308 127.295 181.357 126.444 180.664C125.594 179.97 124.353 179.623 122.719 179.623C121.467 179.623 120.337 179.836 119.33 180.261C118.323 180.664 117.451 181.301 116.712 182.174L114.431 180.194C115.325 179.053 116.522 178.18 118.021 177.576C119.543 176.95 121.209 176.637 123.021 176.637C124.655 176.637 126.075 176.905 127.283 177.442C128.492 177.957 129.42 178.706 130.069 179.691C130.74 180.675 131.076 181.838 131.076 183.181C131.076 183.941 130.975 184.691 130.773 185.429C130.572 186.167 130.192 186.95 129.632 187.778C129.073 188.606 128.268 189.534 127.216 190.563L118.692 198.785L117.887 197.477H132.082V200.396H115.202Z" fill="#424345"/>
<rect x="174.2" y="160.88" width="52.1284" height="52.1284" rx="17.3761" fill="#9FB0E2"/>
<path d="M198.196 200.665C196.541 200.665 194.93 200.407 193.364 199.893C191.82 199.378 190.556 198.685 189.572 197.812L191.115 195.161C191.898 195.899 192.916 196.503 194.169 196.973C195.422 197.443 196.764 197.678 198.196 197.678C199.941 197.678 201.295 197.309 202.257 196.57C203.241 195.81 203.733 194.792 203.733 193.517C203.733 192.286 203.263 191.302 202.324 190.563C201.407 189.803 199.941 189.423 197.928 189.423H196.048V187.073L203.029 178.482L203.498 179.825H190.645V176.905H206.149V179.187L199.203 187.745L197.458 186.704H198.565C201.407 186.704 203.532 187.342 204.941 188.617C206.373 189.892 207.089 191.514 207.089 193.483C207.089 194.803 206.765 196.011 206.116 197.107C205.467 198.204 204.483 199.076 203.163 199.725C201.865 200.351 200.21 200.665 198.196 200.665Z" fill="#424345"/>
<rect x="249.643" y="160.88" width="52.1284" height="52.1284" rx="17.3761" fill="#141F3F"/>
<path d="M275.707 173.912V199.976" stroke="#D7DDEF" stroke-width="2.17201" stroke-linecap="round"/>
<path d="M262.675 185.858H288.739" stroke="#D7DDEF" stroke-width="2.17201" stroke-linecap="round"/>
<rect x="23.3145" y="224.666" width="52.1284" height="52.1284" rx="17.3761" fill="#9FB0E2"/>
<path d="M37.6217 258.41V256.06L49.6356 240.691H53.2599L41.3466 256.06L39.6352 255.524H58.3943V258.41H37.6217ZM50.6759 264.182V258.41L50.7766 255.524V250.423H53.9311V264.182H50.6759Z" fill="#424345"/>
<rect x="98.7573" y="224.666" width="52.1284" height="52.1284" rx="17.3761" fill="#9FB0E2"/>
<path d="M123.156 264.45C121.5 264.45 119.889 264.193 118.323 263.678C116.78 263.164 115.516 262.47 114.531 261.598L116.075 258.947C116.858 259.685 117.876 260.289 119.129 260.759C120.382 261.228 121.713 261.463 123.122 261.463C124.912 261.463 126.288 261.083 127.25 260.322C128.212 259.562 128.693 258.544 128.693 257.269C128.693 256.396 128.48 255.635 128.055 254.987C127.63 254.338 126.892 253.846 125.84 253.51C124.811 253.152 123.391 252.973 121.578 252.973H116.243L117.484 240.691H130.74V243.61H118.726L120.471 241.966L119.498 251.664L117.753 250.054H122.283C124.632 250.054 126.523 250.356 127.955 250.96C129.386 251.564 130.427 252.403 131.076 253.476C131.724 254.528 132.049 255.747 132.049 257.134C132.049 258.477 131.724 259.707 131.076 260.826C130.427 261.922 129.442 262.806 128.122 263.477C126.825 264.126 125.169 264.45 123.156 264.45Z" fill="#424345"/>
<rect x="174.2" y="224.666" width="52.1284" height="52.1284" rx="17.3761" fill="#9FB0E2"/>
<path d="M200.881 264.45C198.8 264.45 197.022 263.991 195.545 263.074C194.068 262.157 192.939 260.837 192.156 259.114C191.395 257.369 191.015 255.244 191.015 252.738C191.015 250.076 191.484 247.827 192.424 245.993C193.364 244.158 194.672 242.771 196.35 241.832C198.028 240.892 199.952 240.422 202.122 240.422C203.241 240.422 204.304 240.534 205.311 240.758C206.34 240.982 207.223 241.328 207.962 241.798L206.686 244.416C206.082 243.991 205.389 243.7 204.606 243.543C203.845 243.387 203.04 243.308 202.19 243.308C199.796 243.308 197.894 244.058 196.485 245.557C195.075 247.033 194.37 249.237 194.37 252.168C194.37 252.638 194.393 253.197 194.438 253.846C194.482 254.494 194.594 255.132 194.773 255.758L193.632 254.617C193.968 253.588 194.494 252.727 195.209 252.033C195.948 251.318 196.82 250.792 197.827 250.456C198.856 250.098 199.964 249.919 201.149 249.919C202.715 249.919 204.102 250.21 205.311 250.792C206.519 251.373 207.469 252.201 208.163 253.275C208.857 254.327 209.203 255.579 209.203 257.034C209.203 258.533 208.834 259.841 208.096 260.96C207.358 262.079 206.362 262.94 205.109 263.544C203.856 264.148 202.447 264.45 200.881 264.45ZM200.747 261.732C201.776 261.732 202.671 261.542 203.431 261.161C204.214 260.781 204.83 260.255 205.277 259.584C205.724 258.891 205.948 258.085 205.948 257.168C205.948 255.781 205.467 254.685 204.505 253.879C203.543 253.051 202.234 252.638 200.579 252.638C199.505 252.638 198.565 252.839 197.76 253.242C196.954 253.644 196.317 254.192 195.847 254.886C195.4 255.557 195.176 256.329 195.176 257.201C195.176 258.007 195.388 258.756 195.813 259.45C196.239 260.121 196.865 260.669 197.693 261.094C198.521 261.519 199.538 261.732 200.747 261.732Z" fill="#424345"/>
<rect x="249.643" y="224.666" width="52.1284" height="52.1284" rx="17.3761" fill="#141F3F"/>
<path d="M266.492 241.515L284.922 259.945" stroke="#D7DDEF" stroke-width="2.17201" stroke-linecap="round"/>
<path d="M265.724 259.177L284.154 240.747" stroke="#D7DDEF" stroke-width="2.17201" stroke-linecap="round"/>
<rect x="23.3145" y="288.451" width="52.1284" height="52.1284" rx="17.3761" fill="#9FB0E2"/>
<path d="M44.1894 327.967L54.1563 305.886L55.0288 307.396H41.0685L42.7464 305.751V311.591H39.5248V304.476H57.2437V306.758L47.7466 327.967H44.1894Z" fill="#424345"/>
<rect x="98.7573" y="288.451" width="52.1284" height="52.1284" rx="17.3761" fill="#9FB0E2"/>
<path d="M124.733 328.236C122.831 328.236 121.187 327.956 119.8 327.397C118.413 326.837 117.339 326.043 116.578 325.014C115.818 323.962 115.437 322.732 115.437 321.322C115.437 319.935 115.795 318.761 116.511 317.799C117.249 316.814 118.312 316.076 119.699 315.584C121.086 315.069 122.764 314.812 124.733 314.812C126.702 314.812 128.38 315.069 129.767 315.584C131.176 316.076 132.25 316.814 132.988 317.799C133.727 318.783 134.096 319.958 134.096 321.322C134.096 322.732 133.715 323.962 132.955 325.014C132.194 326.043 131.109 326.837 129.7 327.397C128.29 327.956 126.635 328.236 124.733 328.236ZM124.733 325.517C126.612 325.517 128.078 325.137 129.129 324.376C130.203 323.593 130.74 322.542 130.74 321.222C130.74 319.924 130.203 318.906 129.129 318.168C128.078 317.407 126.612 317.027 124.733 317.027C122.876 317.027 121.422 317.407 120.37 318.168C119.319 318.906 118.793 319.924 118.793 321.222C118.793 322.542 119.319 323.593 120.37 324.376C121.422 325.137 122.876 325.517 124.733 325.517ZM124.733 316.624C122.943 316.624 121.422 316.389 120.169 315.92C118.916 315.427 117.954 314.734 117.283 313.839C116.612 312.922 116.276 311.837 116.276 310.584C116.276 309.264 116.623 308.134 117.317 307.194C118.032 306.232 119.028 305.494 120.303 304.98C121.578 304.465 123.055 304.208 124.733 304.208C126.433 304.208 127.921 304.465 129.196 304.98C130.471 305.494 131.467 306.232 132.183 307.194C132.899 308.134 133.257 309.264 133.257 310.584C133.257 311.837 132.921 312.922 132.25 313.839C131.579 314.734 130.606 315.427 129.33 315.92C128.055 316.389 126.523 316.624 124.733 316.624ZM124.733 314.477C126.366 314.477 127.641 314.141 128.559 313.47C129.498 312.799 129.968 311.881 129.968 310.718C129.968 309.532 129.487 308.604 128.525 307.933C127.563 307.261 126.299 306.926 124.733 306.926C123.167 306.926 121.914 307.261 120.974 307.933C120.057 308.604 119.599 309.532 119.599 310.718C119.599 311.881 120.046 312.799 120.941 313.47C121.858 314.141 123.122 314.477 124.733 314.477Z" fill="#424345"/>
<rect x="174.2" y="288.451" width="52.1284" height="52.1284" rx="17.3761" fill="#9FB0E2"/>
<path d="M198.632 304.208C200.758 304.208 202.548 304.666 204.002 305.584C205.478 306.501 206.597 307.832 207.358 309.577C208.118 311.3 208.499 313.414 208.499 315.92C208.499 318.582 208.029 320.83 207.089 322.665C206.149 324.499 204.852 325.886 203.196 326.826C201.541 327.766 199.606 328.236 197.391 328.236C196.294 328.236 195.232 328.124 194.203 327.9C193.196 327.676 192.312 327.329 191.552 326.86L192.827 324.242C193.453 324.645 194.147 324.936 194.907 325.115C195.69 325.271 196.507 325.349 197.357 325.349C199.729 325.349 201.619 324.611 203.029 323.135C204.438 321.636 205.143 319.421 205.143 316.49C205.143 316.02 205.12 315.461 205.076 314.812C205.031 314.163 204.93 313.526 204.774 312.899L205.881 314.04C205.568 315.069 205.042 315.942 204.304 316.658C203.588 317.351 202.715 317.877 201.686 318.235C200.679 318.571 199.572 318.738 198.364 318.738C196.82 318.738 195.444 318.448 194.236 317.866C193.028 317.284 192.077 316.468 191.384 315.416C190.69 314.342 190.343 313.078 190.343 311.624C190.343 310.103 190.701 308.794 191.417 307.698C192.156 306.579 193.151 305.718 194.404 305.114C195.679 304.51 197.089 304.208 198.632 304.208ZM198.767 306.926C197.76 306.926 196.865 307.116 196.082 307.496C195.299 307.877 194.684 308.402 194.236 309.074C193.811 309.745 193.599 310.55 193.599 311.49C193.599 312.877 194.08 313.984 195.042 314.812C196.004 315.618 197.301 316.02 198.934 316.02C200.008 316.02 200.948 315.819 201.753 315.416C202.581 315.013 203.219 314.465 203.666 313.772C204.136 313.078 204.371 312.306 204.371 311.456C204.371 310.629 204.158 309.879 203.733 309.208C203.308 308.537 202.682 307.989 201.854 307.564C201.026 307.138 199.997 306.926 198.767 306.926Z" fill="#424345"/>
<rect x="249.643" y="288.451" width="52.1284" height="52.1284" rx="17.3761" fill="#141F3F"/>
<path d="M262.675 314.515H288.739" stroke="#D7DDEF" stroke-width="2.17201" stroke-linecap="round"/>
<rect x="23.3145" y="352.237" width="52.1284" height="52.1284" rx="17.3761" fill="#9FB0E2"/>
<path d="M54.7423 371.785C55.4389 371.785 56.1091 372.051 56.6154 372.53C57.1217 373.008 57.4258 373.662 57.4652 374.357L57.4694 374.512V382.483C57.4695 383.18 57.2029 383.85 56.7246 384.357C56.2462 384.863 55.5921 385.167 54.8967 385.206L54.7423 385.211H47.6089C46.9694 385.211 46.3501 384.986 45.8594 384.576L45.7293 384.46L41.5379 380.474C41.0139 379.975 40.7093 379.289 40.6911 378.566C40.6728 377.844 40.9424 377.143 41.4406 376.619L41.5379 376.521L45.7293 372.536C46.1927 372.095 46.7963 371.831 47.4344 371.791L47.6098 371.785H54.7423ZM48.6134 375.474C48.4921 375.384 48.3424 375.34 48.1917 375.352C48.041 375.363 47.8993 375.427 47.7924 375.534C47.6856 375.641 47.6209 375.783 47.61 375.934C47.5991 376.085 47.6428 376.234 47.7331 376.355L47.7944 376.425L49.867 378.498L47.7944 380.57L47.7331 380.641C47.6429 380.762 47.5993 380.912 47.6104 381.062C47.6214 381.213 47.6863 381.355 47.7932 381.462C47.9001 381.568 48.0419 381.633 48.1927 381.644C48.3434 381.655 48.493 381.611 48.6142 381.521L48.6838 381.46L50.7565 379.388L52.8291 381.461L52.8996 381.521C53.0208 381.611 53.1705 381.655 53.3212 381.644C53.472 381.633 53.6137 381.568 53.7205 381.461C53.8273 381.354 53.8921 381.212 53.903 381.061C53.9139 380.911 53.8702 380.761 53.7798 380.64L53.7186 380.57L51.6468 378.498L53.7194 376.425L53.7798 376.355C53.87 376.233 53.9136 376.084 53.9026 375.933C53.8915 375.782 53.8266 375.64 53.7197 375.534C53.6128 375.427 53.471 375.362 53.3203 375.351C53.1695 375.34 53.0199 375.384 52.8987 375.474L52.8291 375.536L50.7565 377.607L48.6838 375.535L48.6134 375.474Z" fill="#424345"/>
<rect x="98.7573" y="352.237" width="52.1284" height="52.1284" rx="17.3761" fill="#9FB0E2"/>
<path d="M125.169 392.021C123.335 392.021 121.69 391.551 120.236 390.612C118.804 389.672 117.663 388.307 116.813 386.517C115.985 384.728 115.571 382.558 115.571 380.007C115.571 377.457 115.985 375.287 116.813 373.497C117.663 371.707 118.804 370.342 120.236 369.403C121.69 368.463 123.335 367.993 125.169 367.993C126.981 367.993 128.615 368.463 130.069 369.403C131.523 370.342 132.664 371.707 133.492 373.497C134.319 375.287 134.733 377.457 134.733 380.007C134.733 382.558 134.319 384.728 133.492 386.517C132.664 388.307 131.523 389.672 130.069 390.612C128.615 391.551 126.981 392.021 125.169 392.021ZM125.169 389.034C126.4 389.034 127.474 388.699 128.391 388.028C129.33 387.356 130.058 386.35 130.572 385.007C131.109 383.665 131.378 381.998 131.378 380.007C131.378 378.016 131.109 376.349 130.572 375.007C130.058 373.665 129.33 372.658 128.391 371.987C127.474 371.315 126.4 370.98 125.169 370.98C123.939 370.98 122.854 371.315 121.914 371.987C120.974 372.658 120.236 373.665 119.699 375.007C119.185 376.349 118.927 378.016 118.927 380.007C118.927 381.998 119.185 383.665 119.699 385.007C120.236 386.35 120.974 387.356 121.914 388.028C122.854 388.699 123.939 389.034 125.169 389.034Z" fill="#424345"/>
<rect x="174.2" y="352.237" width="52.1284" height="52.1284" rx="17.3761" fill="#9FB0E2"/>
<path d="M199.746 391.954C199.12 391.954 198.583 391.741 198.135 391.316C197.688 390.869 197.464 390.31 197.464 389.638C197.464 388.967 197.688 388.419 198.135 387.994C198.583 387.569 199.12 387.356 199.746 387.356C200.35 387.356 200.865 387.569 201.29 387.994C201.737 388.419 201.961 388.967 201.961 389.638C201.961 390.31 201.737 390.869 201.29 391.316C200.865 391.741 200.35 391.954 199.746 391.954Z" fill="#424345"/>
<g clip-path="url(#clip0_550_56)">
<rect x="249.643" y="352.237" width="52.1284" height="52.1284" rx="17.3761" fill="#141F3F"/>
<path d="M262.675 378.301H288.739" stroke="#D7DDEF" stroke-width="2.17201" stroke-linecap="round"/>
<path d="M275.189 374.578C274.563 374.578 274.026 374.365 273.578 373.94C273.131 373.493 272.907 372.933 272.907 372.262C272.907 371.591 273.131 371.043 273.578 370.618C274.026 370.193 274.563 369.98 275.189 369.98C275.793 369.98 276.308 370.193 276.733 370.618C277.18 371.043 277.404 371.591 277.404 372.262C277.404 372.933 277.18 373.493 276.733 373.94C276.308 374.365 275.793 374.578 275.189 374.578Z" fill="#D7DDEF"/>
<path d="M275.189 387.61C274.563 387.61 274.026 387.397 273.578 386.972C273.131 386.525 272.907 385.966 272.907 385.294C272.907 384.623 273.131 384.075 273.578 383.65C274.026 383.225 274.563 383.012 275.189 383.012C275.793 383.012 276.308 383.225 276.733 383.65C277.18 384.075 277.404 384.623 277.404 385.294C277.404 385.966 277.18 386.525 276.733 386.972C276.308 387.397 275.793 387.61 275.189 387.61Z" fill="#D7DDEF"/>
</g>
<rect x="24.4795" y="0.0114746" width="279.771" height="139.886" rx="27.9771" fill="#BBC7E9"/>
<defs>
<linearGradient id="paint0_linear_550_56" x1="277.44" y1="14" x2="47.0519" y2="428.711" gradientUnits="userSpaceOnUse">
<stop stop-color="#4B70DA"/>
<stop offset="1" stop-color="#07EFEF"/>
</linearGradient>
<clipPath id="clip0_550_56">
<rect x="249.643" y="352.237" width="52.1284" height="52.1284" rx="17.3761" fill="white"/>
</clipPath>
</defs>
</svg>
